<svg 
 xmlns="http://www.w3.org/2000/svg"
 xmlns:xlink="http://www.w3.org/1999/xlink"
 width="55px" height="31px">
<defs>
<linearGradient id="PSgrad_0" x1="0%" x2="60.182%" y1="79.864%" y2="0%">
  <stop offset="0%" stop-color="rgb(73,87,254)" stop-opacity="1" />
  <stop offset="100%" stop-color="rgb(123,66,255)" stop-opacity="1" />
</linearGradient>

</defs>
<path fill-rule="evenodd"  fill="url(#PSgrad_0)"
 d="M51.987,-0.002 L17.208,-0.002 C13.500,-0.002 10.145,1.572 7.789,4.079 C7.600,4.280 7.227,4.816 7.051,5.030 C9.195,5.567 12.400,6.775 14.464,8.581 C14.834,8.394 15.619,8.404 15.921,8.468 C17.925,8.893 19.426,10.653 19.426,12.767 C19.426,15.195 17.959,17.187 14.990,17.164 C12.021,17.140 10.554,14.275 10.554,12.767 C10.554,11.259 11.021,11.119 11.164,10.871 C10.636,10.610 7.362,8.507 5.236,8.413 C4.881,9.591 4.325,11.537 4.325,12.767 C4.325,19.790 10.121,25.536 17.208,25.536 L51.987,25.536 C53.648,25.536 55.008,24.189 55.008,22.543 L55.008,2.991 C55.008,1.345 53.648,-0.002 51.987,-0.002 L51.987,-0.002 ZM22.425,16.666 C23.245,16.666 25.270,16.788 25.977,16.578 C26.659,16.347 27.288,15.589 27.288,14.316 C27.288,13.635 27.121,12.844 26.432,12.548 L26.432,12.526 C26.863,12.174 27.068,11.493 27.068,10.846 C27.068,9.879 26.652,9.198 26.016,8.902 C25.433,8.655 23.162,8.770 22.425,8.770 L22.425,10.461 L23.000,10.461 L23.000,14.974 L22.425,14.974 L22.425,16.666 L22.425,16.666 ZM24.636,11.703 L24.636,10.604 C25.101,10.604 25.448,10.524 25.448,11.153 C25.448,11.788 25.104,11.703 24.636,11.703 L24.636,11.703 ZM24.636,14.832 L24.636,13.547 C25.184,13.547 25.659,13.406 25.659,14.151 C25.659,14.954 25.231,14.832 24.636,14.832 L24.636,14.832 ZM30.098,12.251 L30.098,10.604 L30.378,10.604 C31.275,10.604 31.209,11.799 30.840,12.131 C30.664,12.301 30.325,12.251 30.098,12.251 L30.098,12.251 ZM31.529,8.913 C31.204,8.781 30.817,8.770 30.393,8.770 L27.886,8.770 L27.886,10.461 L28.462,10.461 L28.462,14.974 L27.886,14.974 L27.886,16.666 L30.590,16.666 L30.590,14.974 L30.098,14.974 L30.098,13.975 C30.391,13.975 30.490,13.966 30.590,14.272 L31.211,16.084 C31.355,16.490 31.560,16.666 31.983,16.666 L33.082,16.666 L33.082,14.974 L32.885,14.974 C32.306,14.974 32.514,13.763 31.901,13.382 L31.901,13.360 C32.386,12.877 32.680,12.119 32.680,11.186 C32.680,10.333 32.396,9.282 31.529,8.913 L31.529,8.913 ZM33.347,16.666 L35.801,16.666 L35.801,14.974 L35.377,14.974 L35.483,14.250 L36.641,14.250 L36.748,14.974 L36.324,14.974 L36.324,16.666 L38.786,16.666 L38.786,14.974 L38.369,14.974 L36.998,8.770 L35.128,8.770 L33.756,14.974 L33.347,14.974 L33.347,16.666 L33.347,16.666 ZM35.725,12.691 C35.846,11.971 35.972,11.276 36.044,10.549 C36.107,10.549 36.356,12.471 36.392,12.691 L35.725,12.691 L35.725,12.691 ZM39.224,16.666 L42.050,16.666 L42.050,14.974 L41.436,14.974 C41.436,14.071 41.461,13.175 41.383,12.273 C41.620,12.273 42.806,16.288 42.943,16.666 L44.595,16.666 L44.595,10.461 L45.170,10.461 L45.170,8.770 L42.346,8.770 L42.346,10.461 L42.959,10.461 C42.959,11.386 42.952,12.262 43.012,13.185 C42.861,13.185 41.621,9.200 41.467,8.770 L39.224,8.770 L39.224,10.461 L39.800,10.461 L39.800,14.974 L39.224,14.974 L39.224,16.666 L39.224,16.666 ZM45.799,16.666 L48.246,16.666 C48.769,16.666 49.192,16.600 49.617,16.380 C50.586,15.820 51.215,14.481 51.215,12.712 C51.215,10.714 50.427,9.363 49.337,8.924 C49.004,8.781 48.648,8.770 48.231,8.770 L45.799,8.770 L45.799,10.461 L46.375,10.461 L46.375,14.974 L45.799,14.974 L45.799,16.666 L45.799,16.666 ZM48.012,14.832 L48.012,10.604 L48.208,10.604 C48.450,10.604 48.640,10.626 48.852,10.769 C49.245,11.043 49.526,11.680 49.526,12.724 C49.526,13.602 49.337,14.261 48.996,14.601 C48.761,14.777 48.534,14.832 48.208,14.832 L48.012,14.832 L48.012,14.832 ZM14.058,15.342 C13.644,16.231 12.273,15.609 12.689,14.716 C12.965,14.124 13.204,14.130 13.649,13.930 C13.981,13.780 14.121,13.216 14.188,12.325 C14.293,10.921 10.774,9.122 9.707,8.656 C8.533,8.144 6.923,7.359 5.522,7.313 C3.118,7.235 2.698,10.424 2.652,12.227 C2.547,16.414 2.596,22.860 2.623,24.118 C2.673,26.524 4.902,28.003 7.171,27.971 C7.656,27.964 8.077,27.928 8.456,27.871 C8.150,27.201 8.005,26.509 7.991,25.900 C7.976,25.232 8.275,23.468 9.350,24.072 C10.083,24.484 9.480,25.172 9.495,25.870 C9.506,26.358 9.645,26.934 9.943,27.484 C9.975,27.541 10.388,27.361 10.460,27.336 C11.071,26.390 16.669,26.517 17.839,26.932 C19.480,27.513 19.457,30.231 18.004,30.692 C16.382,31.208 12.199,31.108 10.598,30.205 C10.109,29.928 9.697,29.593 9.355,29.224 C8.759,29.357 8.068,29.450 7.189,29.462 C4.078,29.506 1.187,27.388 1.119,24.147 C1.045,20.646 0.908,16.051 1.073,12.109 C1.206,8.900 2.510,5.345 6.427,5.939 C7.761,6.142 9.122,6.767 10.315,7.289 C12.211,8.116 15.879,9.953 15.692,12.436 C15.468,15.407 14.311,14.798 14.058,15.342 L14.058,15.342 ZM11.039,28.716 C11.135,28.784 11.247,29.046 11.352,29.105 C12.083,29.517 16.441,29.872 17.315,29.365 C17.595,29.202 17.533,28.412 17.332,28.341 C16.393,28.008 11.625,27.811 11.039,28.716 L11.039,28.716 Z"/>
</svg>