<svg 
 xmlns="http://www.w3.org/2000/svg"
 xmlns:xlink="http://www.w3.org/1999/xlink"
 width="55px" height="50px">
<defs>
<linearGradient id="PSgrad_0" x1="0%" x2="60.182%" y1="79.864%" y2="0%">
  <stop offset="0%" stop-color="rgb(73,87,254)" stop-opacity="1" />
  <stop offset="100%" stop-color="rgb(123,66,255)" stop-opacity="1" />
</linearGradient>

</defs>
<path fill-rule="evenodd" fill="url(#PSgrad_0)"
 d="M46.046,42.248 C48.727,40.300 50.128,40.395 52.936,42.535 C53.627,43.062 54.314,43.308 54.1000,43.272 L54.1000,44.656 C54.023,44.690 53.043,44.347 52.099,43.627 C49.793,41.869 48.804,41.869 46.498,43.627 C44.698,44.1000 43.114,45.000 41.312,43.627 C39.007,41.869 38.019,41.869 35.712,43.627 C33.907,45.003 31.975,45.003 30.170,43.627 C27.864,41.869 26.876,41.869 24.570,43.627 C22.760,45.007 21.410,45.007 19.600,43.627 C17.294,41.869 16.305,41.869 14.000,43.627 C12.195,45.003 10.263,45.003 8.458,43.627 C6.151,41.869 5.163,41.869 2.857,43.627 C2.007,44.274 1.515,44.649 0.079,44.649 L-0.000,44.649 L-0.000,43.271 L0.079,43.272 C1.053,43.272 1.408,43.002 2.021,42.535 C4.574,40.588 5.964,40.334 8.213,41.770 C9.170,38.958 9.899,35.999 12.037,33.802 C11.844,33.153 11.962,31.167 11.962,30.388 C11.962,29.532 12.662,28.832 13.518,28.832 L18.861,28.832 C19.717,28.832 20.416,29.532 20.416,30.388 L20.416,31.600 C20.912,31.615 21.312,31.635 21.568,31.636 L21.576,29.132 C18.758,27.333 16.691,24.351 16.431,22.965 C16.180,22.855 14.766,22.687 14.157,22.346 C13.753,22.119 13.507,21.870 13.327,21.601 C12.726,21.084 12.638,20.192 12.638,19.571 L12.638,9.524 C12.638,7.610 14.973,7.101 16.485,7.105 C17.240,3.261 21.749,-0.124 27.412,0.004 C33.074,0.133 37.419,3.253 38.301,7.109 C39.822,7.153 42.153,7.606 42.174,9.533 L42.213,13.204 L43.134,13.201 L43.138,4.447 C43.138,4.030 43.480,3.689 43.897,3.689 L45.210,3.689 C45.628,3.689 45.969,4.030 45.969,4.447 L45.969,22.690 C45.969,23.665 43.904,26.709 42.425,26.831 C39.826,27.045 37.706,26.827 36.281,26.868 C35.751,27.550 34.490,28.586 33.377,29.171 C33.345,29.952 33.409,30.832 33.467,31.677 C34.117,31.688 34.878,31.654 35.644,31.625 L35.644,30.388 C35.644,29.532 36.343,28.832 37.199,28.832 L42.542,28.832 C43.398,28.832 44.098,29.532 44.098,30.388 L44.092,36.077 C45.174,37.846 45.910,39.993 46.046,42.248 L46.046,42.248 ZM26.870,25.430 C26.765,25.874 26.026,25.897 25.969,25.360 C26.157,23.991 26.603,23.472 27.854,23.222 C28.391,23.222 28.449,23.949 28.031,24.109 C27.924,24.149 27.831,24.149 27.700,24.203 C27.289,24.373 27.169,24.455 26.961,25.025 C26.894,25.212 26.908,25.270 26.870,25.430 L26.870,25.430 ZM27.711,22.420 C29.075,22.420 30.192,23.480 30.282,24.822 L35.624,24.874 C36.059,24.273 36.186,23.390 36.176,23.271 C30.707,23.088 31.056,21.004 27.810,20.949 C24.565,20.894 24.928,23.032 18.089,23.158 C20.026,27.085 23.396,29.259 27.172,29.532 C29.350,29.690 33.148,28.316 34.450,26.815 C33.569,26.807 30.462,26.855 29.508,26.848 C29.044,27.300 28.410,27.578 27.711,27.578 C26.288,27.578 25.134,26.424 25.134,24.999 C25.134,23.574 26.288,22.420 27.711,22.420 L27.711,22.420 ZM36.629,31.596 C36.942,31.591 37.248,31.590 37.538,31.598 C37.481,30.724 37.744,30.597 38.736,30.597 C39.340,30.597 39.340,29.679 38.736,29.679 C37.269,29.679 36.594,30.194 36.629,31.596 L36.629,31.596 ZM13.876,31.811 C13.940,32.410 13.030,32.507 12.966,31.908 C12.822,30.269 13.484,29.679 15.056,29.679 C15.658,29.679 15.659,30.597 15.056,30.597 C13.987,30.597 13.764,30.744 13.876,31.811 L13.876,31.811 ZM24.919,17.629 L27.268,14.492 L27.311,16.902 L24.919,17.629 L24.919,17.629 ZM17.979,14.277 L20.000,11.609 L21.172,11.609 L17.986,15.656 L17.979,14.277 L17.979,14.277 ZM42.213,16.359 L42.174,19.581 C42.156,21.103 39.993,23.282 37.604,23.372 C37.580,23.524 37.343,24.584 37.174,24.853 C39.748,24.936 41.691,25.107 42.520,24.221 C42.903,23.811 43.138,23.245 43.138,22.690 L43.138,16.350 L42.213,16.359 L42.213,16.359 ZM38.500,9.075 L16.444,9.042 C14.628,9.748 14.649,12.525 14.745,14.250 C14.848,16.111 14.723,17.963 14.895,19.378 C15.198,21.888 20.933,21.927 22.363,20.933 C24.319,19.574 25.971,18.892 27.633,18.980 C29.490,19.080 31.003,19.850 32.801,21.099 C34.231,22.093 39.666,21.888 39.971,19.378 C40.141,17.963 40.016,16.112 40.119,14.250 C40.214,12.551 40.236,9.831 38.500,9.075 L38.500,9.075 ZM44.110,4.692 L45.055,4.692 L45.055,6.511 L44.110,6.511 L44.110,4.692 L44.110,4.692 ZM44.110,7.527 L45.055,7.527 L45.055,22.874 L44.110,22.874 L44.110,7.527 L44.110,7.527 ZM27.714,12.475 C25.187,12.475 23.441,18.083 21.789,18.757 C21.169,19.011 17.248,19.694 16.986,17.987 C16.839,17.026 16.946,15.767 16.857,14.502 C16.763,13.149 16.752,10.846 19.157,10.847 L35.713,10.846 C38.117,10.846 38.107,13.148 38.012,14.501 C37.923,15.766 38.031,17.026 37.884,17.987 C37.621,19.694 33.701,19.011 33.081,18.757 C31.429,18.082 30.242,12.475 27.714,12.475 L27.714,12.475 ZM11.150,40.988 C9.978,39.582 11.587,37.942 12.524,36.870 C13.923,35.265 15.899,33.597 17.662,33.576 C18.700,33.564 19.701,35.341 20.416,36.394 C18.774,37.837 13.262,43.520 11.150,40.988 L11.150,40.988 ZM43.535,41.171 C45.996,39.069 39.552,33.604 37.203,33.576 C36.164,33.564 35.164,35.341 34.448,36.394 C36.160,37.899 41.199,43.163 43.535,41.171 L43.535,41.171 ZM33.608,34.826 L33.587,33.052 C27.899,35.543 26.966,35.543 21.278,33.052 L21.256,34.826 C26.295,38.845 28.570,38.845 33.608,34.826 L33.608,34.826 ZM32.420,29.936 C28.566,31.490 26.298,31.490 22.444,29.936 L22.474,31.444 C25.131,33.233 29.734,33.233 32.390,31.444 L32.420,29.936 L32.420,29.936 ZM32.754,4.749 C34.622,5.154 34.630,5.864 35.403,6.369 C36.067,6.803 36.161,6.462 36.386,7.279 C35.947,7.332 18.905,7.426 18.426,7.203 C19.570,3.112 22.341,3.616 24.058,3.418 C25.147,3.293 24.471,4.844 25.921,4.856 C25.955,4.856 26.636,3.501 28.051,3.477 C29.039,3.461 29.018,4.794 29.970,5.128 C30.848,5.435 32.742,4.746 32.754,4.749 L32.754,4.749 ZM9.295,47.871 C10.590,48.858 11.868,48.858 13.163,47.871 C16.101,45.631 17.499,45.631 20.437,47.871 C21.697,48.832 22.473,48.832 23.733,47.871 C26.671,45.631 28.069,45.631 31.007,47.871 C32.303,48.858 33.580,48.858 34.876,47.871 C37.814,45.631 39.211,45.631 42.149,47.871 C43.443,48.856 44.368,48.856 45.662,47.871 C48.599,45.631 49.998,45.631 52.936,47.871 C53.627,48.398 54.314,48.644 54.1000,48.608 L54.1000,49.992 C54.023,50.026 53.043,49.683 52.099,48.962 C49.793,47.205 48.804,47.205 46.498,48.962 C44.698,50.336 43.114,50.336 41.312,48.962 C39.007,47.205 38.019,47.205 35.712,48.962 C33.907,50.339 31.975,50.339 30.170,48.962 C27.864,47.205 26.876,47.205 24.570,48.962 C22.760,50.343 21.410,50.343 19.600,48.962 C17.294,47.205 16.305,47.205 14.000,48.962 C12.195,50.339 10.263,50.339 8.458,48.962 C6.151,47.205 5.163,47.205 2.857,48.962 C2.007,49.610 1.515,49.985 0.079,49.985 L-0.000,49.985 L-0.000,48.607 L0.079,48.608 C1.053,48.608 1.408,48.338 2.021,47.871 C4.958,45.631 6.357,45.631 9.295,47.871 L9.295,47.871 Z"/>
</svg>