<svg 
 xmlns="http://www.w3.org/2000/svg"
 xmlns:xlink="http://www.w3.org/1999/xlink"
 width="48px" height="48px">
<defs>
<linearGradient id="PSgrad_0" x1="0%" x2="60.182%" y1="79.864%" y2="0%">
  <stop offset="0%" stop-color="rgb(169,0,131)" stop-opacity="1" />
  <stop offset="100%" stop-color="rgb(160,45,250)" stop-opacity="1" />
</linearGradient>

</defs>
<path fill-rule="evenodd"  fill="url(#PSgrad_0)"
 d="M30.562,33.620 C29.161,33.386 27.789,32.968 26.466,32.430 C25.991,34.476 25.791,37.346 25.791,37.346 C25.791,37.346 23.861,35.191 22.862,33.068 C22.210,31.684 22.103,30.847 22.146,30.164 C21.709,29.881 21.255,29.578 20.793,29.260 L16.374,33.954 L16.108,43.914 C15.506,44.545 12.882,47.517 12.666,47.627 C11.590,48.178 10.765,47.104 10.608,46.220 L9.686,41.058 C7.004,43.906 4.036,39.909 6.047,37.773 L6.320,37.483 L1.460,36.504 C0.628,36.336 -0.383,35.460 0.136,34.317 C0.240,34.088 3.037,31.301 3.631,30.662 L13.008,30.379 L16.877,26.270 C15.935,25.466 15.057,24.638 14.320,23.822 C13.388,25.048 12.611,26.652 12.611,26.652 C11.597,24.688 10.446,21.861 11.185,19.611 C10.280,18.159 7.611,14.797 6.652,12.754 C6.435,12.290 6.698,11.739 7.170,11.644 C8.269,11.349 8.718,10.979 9.415,10.178 C7.048,7.819 6.160,7.187 5.903,3.483 C5.674,0.184 7.425,-0.034 9.981,0.787 C12.517,1.605 17.695,5.097 20.070,6.910 C20.864,6.486 21.872,6.118 23.045,6.043 C26.065,5.848 29.543,7.598 29.543,7.598 C26.919,8.599 26.071,9.410 25.043,11.966 C25.828,12.940 26.585,13.953 27.311,14.995 L34.795,7.045 C35.242,6.570 35.863,6.311 36.494,6.340 L37.829,4.923 L33.038,4.923 C31.576,4.923 31.587,2.444 33.038,2.444 L40.163,2.443 L42.017,0.474 C42.619,-0.165 43.603,-0.165 44.204,0.474 C44.873,1.184 45.073,2.178 44.347,2.948 L42.492,4.918 L42.492,12.486 C42.492,14.039 40.158,14.027 40.158,12.486 L40.158,7.398 L38.824,8.814 C38.851,9.485 38.608,10.145 38.161,10.619 L30.016,19.270 C30.340,19.834 30.654,20.403 30.958,20.975 C33.189,21.301 37.150,22.673 38.055,23.250 C36.442,24.421 34.929,25.516 33.695,27.134 C34.081,28.242 34.386,29.313 34.595,30.322 C39.029,31.129 44.824,31.651 47.1000,37.581 L36.704,37.643 L32.750,47.993 C30.652,44.338 29.792,37.043 30.562,33.620 L30.562,33.620 ZM10.622,4.641 C11.077,4.641 11.446,5.033 11.446,5.517 C11.446,5.1000 11.077,6.392 10.622,6.392 C10.167,6.392 9.799,5.1000 9.799,5.517 C9.799,5.033 10.167,4.641 10.622,4.641 L10.622,4.641 ZM28.176,16.275 C28.537,16.824 28.888,17.379 29.230,17.940 L35.817,10.908 C35.720,10.079 35.307,9.636 34.523,9.534 L28.176,16.275 L28.176,16.275 ZM21.764,28.229 C25.401,30.785 29.431,32.414 33.418,32.275 C32.491,21.541 19.736,5.551 9.558,2.269 C8.091,1.796 7.237,1.590 7.362,3.374 C7.559,6.228 8.235,6.894 9.924,8.560 C10.300,8.931 11.550,9.971 10.977,10.652 C10.147,11.634 9.560,12.415 8.355,12.883 C10.100,16.460 14.618,21.933 17.970,25.109 L22.501,20.296 C21.176,19.178 19.964,18.384 19.959,18.381 C19.617,18.154 19.512,17.675 19.725,17.311 C19.938,16.947 20.389,16.836 20.732,17.062 C24.206,19.318 26.873,22.040 28.328,26.161 C28.473,26.560 28.286,27.009 27.911,27.164 C27.535,27.318 27.112,27.119 26.967,26.720 C26.965,26.715 26.506,25.433 25.713,24.034 L21.764,28.229 L21.764,28.229 ZM24.863,22.709 C24.462,22.161 24.087,21.777 23.604,21.325 L7.083,38.873 C6.497,39.495 7.110,40.499 7.801,40.499 C8.010,40.499 8.212,40.396 8.370,40.228 L24.863,22.709 L24.863,22.709 Z"/>
</svg>
