<svg 
 xmlns="http://www.w3.org/2000/svg"
 xmlns:xlink="http://www.w3.org/1999/xlink"
 width="62px" height="52px">
<defs>
<linearGradient id="PSgrad_0" x1="0%" x2="60.182%" y1="79.864%" y2="0%">
  <stop offset="0%" stop-color="rgb(169,0,131)" stop-opacity="1" />
  <stop offset="100%" stop-color="rgb(160,45,250)" stop-opacity="1" />
</linearGradient>

</defs>
<path fill-rule="evenodd"  fill="url(#PSgrad_0)"
 d="M43.139,20.547 C42.777,20.759 41.583,22.206 41.351,22.361 C41.086,22.538 41.344,23.625 41.081,23.675 C35.101,24.822 34.641,19.937 37.014,16.061 C37.745,16.121 39.260,15.935 39.964,15.899 C39.981,17.648 41.008,19.554 43.139,20.547 L43.139,20.547 ZM10.233,49.654 C11.660,50.744 13.066,50.744 14.493,49.654 C17.728,47.185 19.267,47.185 22.502,49.654 C23.890,50.714 24.744,50.714 26.132,49.654 C29.367,47.185 30.906,47.185 34.141,49.654 C35.568,50.744 36.974,50.744 38.401,49.654 C41.636,47.185 43.175,47.185 46.410,49.654 C47.834,50.742 48.854,50.742 50.278,49.654 C53.513,47.185 55.052,47.185 58.287,49.654 C59.048,50.236 59.804,50.507 60.560,50.468 L60.560,51.994 C59.484,52.030 58.406,51.653 57.365,50.858 C54.826,48.921 53.738,48.921 51.199,50.858 C49.215,52.373 47.472,52.373 45.489,50.858 C42.950,48.921 41.861,48.921 39.322,50.858 C37.334,52.376 35.208,52.376 33.219,50.858 C30.681,48.921 29.592,48.921 27.053,50.858 C25.060,52.380 23.574,52.380 21.581,50.858 C19.042,48.921 17.954,48.921 15.415,50.858 C13.427,52.376 11.300,52.376 9.312,50.858 C6.773,48.921 5.684,48.921 3.146,50.858 C2.210,51.572 1.668,51.986 0.087,51.986 L-0.001,50.467 C1.046,50.479 1.420,50.269 2.224,49.654 C5.459,47.185 6.998,47.185 10.233,49.654 L10.233,49.654 ZM10.233,31.941 C10.355,32.034 10.476,32.118 10.597,32.195 C13.432,28.900 17.074,24.525 19.461,20.867 C20.058,19.653 20.046,18.437 20.085,17.223 C20.157,14.980 19.427,12.320 16.418,14.662 C13.656,16.811 10.559,21.181 7.469,23.818 C5.890,25.166 5.103,26.633 3.865,25.041 L2.210,22.914 C1.357,21.817 1.116,21.968 1.987,20.818 C3.732,18.511 5.585,15.797 7.660,12.961 C10.463,9.131 10.638,7.299 16.565,6.838 C21.521,6.453 24.507,6.552 26.679,6.498 C29.052,6.440 31.680,8.653 36.380,12.980 C36.775,13.344 36.629,14.294 37.081,14.692 C37.434,14.790 39.371,14.636 39.833,14.650 C39.825,12.402 40.762,10.840 41.842,7.672 C41.625,3.210 44.560,3.439 45.407,3.831 C47.159,2.323 49.303,0.615 51.912,0.105 C57.088,-0.907 62.679,4.934 61.935,9.179 C61.530,11.494 59.778,14.091 56.543,16.934 C58.022,17.906 56.276,21.058 53.167,19.695 C49.787,20.888 47.577,21.053 44.631,20.834 C43.756,21.428 42.654,22.600 42.506,22.872 C42.066,23.682 42.864,27.016 43.468,30.249 C44.336,30.505 45.267,31.069 46.410,31.941 C47.834,33.028 48.854,33.028 50.278,31.941 C53.513,29.472 55.052,29.472 58.287,31.941 C59.048,32.522 59.804,32.793 60.560,32.754 L60.560,34.280 C59.484,34.317 58.406,33.939 57.365,33.144 C54.826,31.207 53.738,31.207 51.199,33.144 C49.215,34.659 47.472,34.659 45.489,33.144 C42.950,31.207 41.861,31.207 39.322,33.144 C37.334,34.663 35.208,34.663 33.219,33.144 C30.681,31.207 29.592,31.207 27.053,33.144 C25.060,34.666 23.574,34.666 21.581,33.144 C19.042,31.207 17.954,31.207 15.415,33.144 C13.427,34.663 11.300,34.663 9.312,33.144 C6.773,31.207 5.684,31.207 3.146,33.144 C2.210,33.859 1.668,34.272 0.087,34.272 L-0.001,32.753 C1.046,32.765 1.420,32.555 2.224,31.941 C5.459,29.472 6.998,29.472 10.233,31.941 L10.233,31.941 ZM10.233,37.872 C11.660,38.961 13.066,38.961 14.493,37.872 C17.728,35.403 19.267,35.403 22.502,37.872 C23.890,38.932 24.744,38.932 26.132,37.872 C29.367,35.403 30.906,35.403 34.141,37.872 C35.568,38.961 36.974,38.961 38.401,37.872 C41.636,35.403 43.175,35.403 46.410,37.872 C47.834,38.959 48.854,38.959 50.278,37.872 C53.513,35.403 55.052,35.403 58.287,37.872 C59.048,38.453 59.804,38.725 60.560,38.685 L60.560,40.211 C59.484,40.248 58.406,39.870 57.365,39.075 C54.826,37.139 53.738,37.139 51.199,39.075 C49.215,40.590 47.472,40.590 45.489,39.075 C42.950,37.139 41.861,37.139 39.322,39.075 C37.334,40.594 35.208,40.593 33.219,39.075 C30.681,37.139 29.592,37.139 27.053,39.075 C25.060,40.597 23.574,40.597 21.581,39.075 C19.042,37.139 17.954,37.139 15.415,39.075 C13.427,40.594 11.300,40.593 9.312,39.075 C6.773,37.139 5.684,37.139 3.146,39.075 C2.210,39.790 1.668,40.204 0.087,40.204 L-0.001,38.684 C1.046,38.696 1.420,38.486 2.224,37.872 C5.459,35.403 6.998,35.403 10.233,37.872 L10.233,37.872 ZM10.233,43.771 C11.660,44.860 13.066,44.860 14.493,43.771 C17.728,41.302 19.267,41.302 22.502,43.771 C23.890,44.831 24.744,44.831 26.132,43.771 C29.367,41.302 30.906,41.302 34.141,43.771 C35.568,44.860 36.974,44.860 38.401,43.771 C41.636,41.302 43.175,41.302 46.410,43.771 C47.834,44.858 48.854,44.858 50.278,43.771 C53.513,41.302 55.052,41.302 58.287,43.771 C59.048,44.353 59.804,44.624 60.560,44.584 L60.560,46.111 C59.484,46.148 58.406,45.769 57.365,44.975 C54.826,43.037 53.738,43.037 51.199,44.975 C49.215,46.489 47.472,46.490 45.489,44.975 C42.950,43.037 41.861,43.037 39.322,44.975 C37.334,46.493 35.208,46.493 33.219,44.975 C30.681,43.037 29.592,43.037 27.053,44.975 C25.060,46.497 23.574,46.497 21.581,44.975 C19.042,43.037 17.954,43.037 15.415,44.975 C13.427,46.493 11.300,46.493 9.312,44.975 C6.773,43.037 5.684,43.037 3.146,44.975 C2.210,45.689 1.668,46.103 0.087,46.103 L-0.001,44.583 C1.046,44.596 1.420,44.385 2.224,43.771 C5.459,41.302 6.998,41.302 10.233,43.771 L10.233,43.771 ZM46.860,4.891 L46.714,7.022 C46.869,7.028 47.029,7.050 47.191,7.086 C48.502,7.387 49.757,8.644 50.057,9.958 C50.143,10.336 50.145,10.700 50.057,11.025 L50.773,11.743 C51.097,11.655 51.461,11.657 51.839,11.743 C53.149,12.043 54.404,13.301 54.704,14.614 C54.741,14.777 54.763,14.937 54.768,15.092 L56.279,14.989 C56.495,14.516 56.648,13.937 56.622,13.255 C56.541,11.114 55.677,9.516 54.400,8.332 C52.413,6.490 49.185,3.972 46.860,4.891 L46.860,4.891 ZM55.677,15.952 L54.567,16.028 C54.498,16.157 54.410,16.276 54.304,16.383 C53.868,16.820 53.225,16.941 52.539,16.784 C51.228,16.484 49.973,15.226 49.673,13.913 C49.529,13.278 49.621,12.679 49.979,12.248 L49.553,11.821 C49.122,12.180 48.525,12.272 47.891,12.127 C46.580,11.827 45.325,10.570 45.026,9.256 C44.846,8.466 45.032,7.628 45.781,7.223 L45.901,5.454 C44.772,4.287 42.284,4.880 43.140,7.790 C40.397,13.433 40.825,16.396 42.014,18.102 C43.473,20.193 46.852,19.849 49.724,19.474 C51.656,19.222 52.545,18.647 53.157,18.493 C53.904,19.274 57.437,18.872 55.184,16.534 C55.154,16.504 55.389,16.308 55.677,15.952 L55.677,15.952 ZM45.209,15.211 C45.534,15.857 45.559,15.912 46.184,16.283 C46.612,16.536 45.873,17.210 45.443,16.959 C44.812,16.591 44.802,16.535 44.468,15.887 C44.239,15.445 44.984,14.765 45.209,15.211 L45.209,15.211 ZM53.722,14.839 C53.893,15.592 53.514,15.972 52.762,15.800 C51.835,15.588 50.867,14.618 50.656,13.690 C50.214,11.752 53.280,12.899 53.722,14.839 L53.722,14.839 ZM49.074,10.181 C48.863,9.253 47.894,8.283 46.968,8.071 C46.216,7.899 45.836,8.279 46.008,9.032 C46.220,9.961 47.188,10.931 48.115,11.143 C48.866,11.315 49.246,10.935 49.074,10.181 L49.074,10.181 ZM34.935,13.350 C32.714,11.336 30.985,9.818 29.558,8.827 C28.231,7.905 27.186,7.448 26.244,7.471 C23.006,7.550 19.898,7.541 16.641,7.790 C12.276,8.124 11.471,9.292 9.870,11.614 C8.778,13.198 2.661,20.910 2.718,21.609 C2.719,21.622 4.648,23.975 4.788,24.153 C5.065,24.503 5.260,24.496 5.469,24.342 C6.959,23.248 10.271,19.574 11.551,18.159 C13.112,16.433 17.021,11.417 19.725,13.256 C21.482,14.450 21.283,18.834 20.472,20.457 C23.637,20.507 32.545,18.211 34.935,13.350 L34.935,13.350 Z"/>
</svg>