<svg 
 xmlns="http://www.w3.org/2000/svg"
 xmlns:xlink="http://www.w3.org/1999/xlink"
 width="48px" height="41px">
<path fill-rule="evenodd"  fill="rgb(255, 255, 255)"
 d="M22.692,40.292 C21.086,40.292 19.784,39.007 19.784,37.423 C19.784,35.837 21.086,34.553 22.692,34.553 C24.299,34.553 25.601,35.837 25.601,37.423 C25.601,39.007 24.299,40.292 22.692,40.292 L22.692,40.292 ZM26.512,20.883 C26.661,21.421 26.337,21.978 25.791,22.125 C25.245,22.271 24.680,21.953 24.532,21.413 L23.141,16.362 C23.117,16.274 23.105,16.183 23.105,16.096 C23.105,14.532 24.401,13.262 25.984,13.260 L31.808,13.256 C33.379,13.256 34.687,14.550 34.687,16.096 C34.687,16.200 34.671,16.300 34.642,16.394 L33.261,21.413 C33.112,21.953 32.547,22.271 32.001,22.125 C31.455,21.978 31.131,21.421 31.281,20.883 L32.626,15.989 C32.575,15.609 32.253,15.312 31.865,15.281 L25.984,15.277 C25.573,15.277 25.220,15.590 25.165,15.989 L26.512,20.883 L26.512,20.883 ZM1.120,2.015 C-0.230,2.015 -0.230,-0.009 1.120,-0.009 L5.892,-0.009 C8.251,-0.009 9.483,1.901 10.102,3.900 L17.218,26.989 C17.542,28.045 18.156,29.459 19.473,29.459 L38.320,29.459 C39.638,29.459 40.250,28.047 40.574,26.989 L45.735,10.203 C46.123,8.935 48.080,9.518 47.691,10.788 L42.530,27.575 C41.916,29.577 40.678,31.484 38.320,31.484 L19.473,31.484 C17.115,31.484 15.877,29.577 15.262,27.575 L8.146,4.486 C7.819,3.432 7.208,2.015 5.892,2.015 L1.120,2.015 L1.120,2.015 ZM34.475,23.707 C35.777,23.707 36.388,22.282 36.720,21.265 L39.104,12.597 C39.038,11.451 38.066,10.541 36.901,10.541 L20.891,10.541 C19.723,10.541 18.755,11.449 18.688,12.597 L21.075,21.265 C21.339,22.281 22.085,23.707 23.317,23.707 L34.475,23.707 L34.475,23.707 ZM34.475,25.732 L23.317,25.732 C21.047,25.732 19.636,23.777 19.095,21.795 L16.677,13.014 C16.648,12.921 16.632,12.821 16.632,12.719 C16.632,10.410 18.549,8.516 20.891,8.516 L36.901,8.516 C39.236,8.516 41.147,10.391 41.160,12.696 C41.160,12.799 41.151,12.885 41.124,12.983 L38.693,21.792 C38.096,23.788 36.812,25.732 34.475,25.732 L34.475,25.732 ZM35.100,40.292 C33.493,40.292 32.191,39.007 32.191,37.423 C32.191,35.837 33.493,34.553 35.100,34.553 C36.706,34.553 38.009,35.837 38.009,37.423 C38.009,39.007 36.706,40.292 35.100,40.292 L35.100,40.292 Z"/>
</svg>