<svg 
 xmlns="http://www.w3.org/2000/svg"
 xmlns:xlink="http://www.w3.org/1999/xlink"
 width="18px" height="18px">
<path fill-rule="evenodd"  fill="rgb(255, 255, 255)"
 d="M16.400,17.989 C15.521,17.989 14.808,17.276 14.808,16.397 C14.808,15.518 15.521,14.804 16.400,14.804 C17.279,14.804 17.992,15.518 17.992,16.397 C17.992,17.276 17.279,17.989 16.400,17.989 L16.400,17.989 ZM16.400,3.183 C15.520,3.183 14.807,2.469 14.807,1.590 C14.807,0.710 15.520,-0.002 16.400,-0.002 C17.279,-0.002 17.992,0.710 17.992,1.590 C17.992,2.469 17.279,3.183 16.400,3.183 L16.400,3.183 ZM8.997,3.183 C8.117,3.183 7.405,2.469 7.405,1.590 C7.405,0.710 8.117,-0.002 8.997,-0.002 C9.876,-0.002 10.589,0.710 10.589,1.590 C10.589,2.469 9.876,3.183 8.997,3.183 L8.997,3.183 ZM1.593,3.183 C0.713,3.183 0.001,2.469 0.001,1.590 C0.001,0.710 0.713,-0.002 1.593,-0.002 C2.472,-0.002 3.185,0.710 3.185,1.590 C3.185,2.469 2.472,3.183 1.593,3.183 L1.593,3.183 ZM16.400,10.595 C15.520,10.595 14.807,9.881 14.807,9.002 C14.807,8.123 15.520,7.410 16.400,7.410 C17.279,7.410 17.992,8.123 17.992,9.002 C17.992,9.881 17.279,10.595 16.400,10.595 L16.400,10.595 ZM8.997,10.595 C8.117,10.595 7.405,9.881 7.405,9.002 C7.405,8.123 8.117,7.410 8.997,7.410 C9.876,7.410 10.589,8.123 10.589,9.002 C10.589,9.881 9.876,10.595 8.997,10.595 L8.997,10.595 ZM1.593,10.595 C0.713,10.595 0.001,9.881 0.001,9.002 C0.001,8.123 0.713,7.410 1.593,7.410 C2.472,7.410 3.185,8.123 3.185,9.002 C3.185,9.881 2.472,10.595 1.593,10.595 L1.593,10.595 ZM8.997,17.989 C8.117,17.989 7.405,17.276 7.405,16.397 C7.405,15.518 8.117,14.804 8.997,14.804 C9.876,14.804 10.589,15.518 10.589,16.397 C10.589,17.276 9.876,17.989 8.997,17.989 L8.997,17.989 ZM1.593,17.989 C0.713,17.989 0.001,17.276 0.001,16.397 C0.001,15.518 0.713,14.804 1.593,14.804 C2.472,14.804 3.185,15.518 3.185,16.397 C3.185,17.276 2.472,17.989 1.593,17.989 L1.593,17.989 Z"/>
</svg>