<svg 
 xmlns="http://www.w3.org/2000/svg"
 xmlns:xlink="http://www.w3.org/1999/xlink"
 width="48px" height="36px">
<path fill-rule="evenodd"  fill="rgb(143, 143, 143)"
 d="M47.500,26.008 L20.491,26.008 C20.215,26.008 19.991,25.784 19.991,25.508 L19.991,24.508 C19.991,24.232 20.215,24.008 20.491,24.008 L47.500,24.008 C47.776,24.008 48.000,24.232 48.000,24.508 L48.000,25.508 C48.000,25.784 47.776,26.008 47.500,26.008 ZM47.500,4.001 L20.491,4.001 C20.215,4.001 19.991,3.777 19.991,3.501 L19.991,2.501 C19.991,2.224 20.215,2.001 20.491,2.001 L47.500,2.001 C47.776,2.001 48.000,2.224 48.000,2.501 L48.000,3.501 C48.000,3.777 47.776,4.001 47.500,4.001 ZM11.989,36.011 L1.985,36.011 C0.880,36.011 -0.015,35.116 -0.015,34.011 L-0.015,24.007 C-0.015,22.902 0.880,22.007 1.985,22.007 L11.989,22.007 C13.094,22.007 13.989,22.902 13.989,24.007 L13.989,34.011 C13.989,35.116 13.094,36.011 11.989,36.011 ZM11.989,26.008 C11.989,24.903 11.093,24.008 9.989,24.008 L3.985,24.008 C2.881,24.008 1.985,24.903 1.985,26.008 L1.985,32.011 C1.985,33.115 2.881,34.011 3.985,34.011 L9.989,34.011 C11.093,34.011 11.989,33.115 11.989,32.011 L11.989,26.008 ZM11.989,14.004 L1.985,14.004 C0.880,14.004 -0.015,13.109 -0.015,12.004 L-0.015,1.1000 C-0.015,0.895 0.880,-0.000 1.985,-0.000 L11.989,-0.000 C13.094,-0.000 13.989,0.895 13.989,1.1000 L13.989,12.004 C13.989,13.109 13.094,14.004 11.989,14.004 ZM11.989,4.001 C11.989,2.896 11.093,2.001 9.989,2.001 L3.985,2.001 C2.881,2.001 1.985,2.896 1.985,4.001 L1.985,10.004 C1.985,11.108 2.881,12.004 3.985,12.004 L9.989,12.004 C11.093,12.004 11.989,11.108 11.989,10.004 L11.989,4.001 ZM20.491,10.003 L35.496,10.003 C35.772,10.003 35.996,10.227 35.996,10.503 L35.996,11.504 C35.996,11.780 35.772,12.004 35.496,12.004 L20.491,12.004 C20.215,12.004 19.991,11.780 19.991,11.504 L19.991,10.503 C19.991,10.227 20.215,10.003 20.491,10.003 ZM20.491,32.010 L35.496,32.010 C35.772,32.010 35.996,32.234 35.996,32.510 L35.996,33.511 C35.996,33.787 35.772,34.011 35.496,34.011 L20.491,34.011 C20.215,34.011 19.991,33.787 19.991,33.511 L19.991,32.510 C19.991,32.234 20.215,32.010 20.491,32.010 Z"/>
</svg>