<svg 
 xmlns="http://www.w3.org/2000/svg"
 xmlns:xlink="http://www.w3.org/1999/xlink"
 width="48px" height="42px">
<path fill-rule="evenodd"  fill="rgb(255, 255, 255)"
 d="M23.498,41.400 C22.441,40.720 7.301,30.880 3.122,23.414 C0.520,18.771 -0.734,12.853 1.454,7.834 C3.199,3.826 6.723,1.478 11.105,0.947 C16.070,0.350 20.966,1.629 24.167,5.519 C27.368,1.629 32.262,0.350 37.229,0.947 C41.574,1.473 45.121,3.799 46.880,7.834 C49.067,12.852 47.814,18.771 45.212,23.414 C42.424,28.010 37.660,32.007 33.388,35.313 C28.848,38.829 24.865,41.381 24.777,41.438 C24.590,41.557 24.379,41.615 24.170,41.615 L24.170,41.617 C23.924,41.617 23.692,41.541 23.498,41.400 L23.498,41.400 ZM5.061,22.394 C8.654,28.807 21.250,37.341 24.167,39.262 C25.450,38.418 28.600,36.297 32.016,33.650 C36.380,30.272 41.222,26.018 43.244,22.445 C45.445,18.182 46.864,13.276 44.851,8.661 C43.408,5.350 40.525,3.502 36.959,3.069 C32.613,2.547 27.295,3.829 25.159,7.887 C24.773,8.677 23.589,8.702 23.179,7.897 C21.142,3.845 15.653,2.554 11.373,3.069 C7.789,3.504 4.912,5.375 3.482,8.661 C1.568,13.050 2.796,18.348 5.061,22.394 L5.061,22.394 Z"/>
</svg>