<svg 
 xmlns="http://www.w3.org/2000/svg"
 xmlns:xlink="http://www.w3.org/1999/xlink"
 width="NaN%" height="NaN%">
<path fill-rule="evenodd"  fill="rgb(255, 255, 255)"
 d="M9.567,14.703 C25.489,10.095 41.411,5.488 57.332,0.880 C60.992,-0.179 64.844,1.940 65.904,5.596 L67.243,10.216 C72.700,10.749 77.414,14.168 78.994,19.513 C79.023,19.614 79.051,19.713 79.078,19.812 C82.086,20.526 84.357,23.213 84.405,26.437 L84.476,31.246 C89.598,33.199 93.241,37.739 93.353,43.312 C93.463,48.878 90.111,53.893 84.839,55.749 L84.908,60.426 C84.965,64.232 81.902,67.384 78.092,67.440 L28.369,68.176 C24.560,68.232 21.405,65.173 21.348,61.366 L21.341,60.895 C18.200,61.066 15.226,59.059 14.315,55.917 L13.012,51.423 C7.427,51.188 2.754,47.372 1.231,42.018 C-0.295,36.656 1.860,31.250 6.186,27.885 L4.847,23.266 C3.787,19.610 5.908,15.761 9.567,14.703 L9.567,14.703 ZM79.412,25.079 C78.927,28.512 77.071,31.675 74.069,33.755 L75.372,38.247 C76.432,41.903 74.311,45.751 70.652,46.810 L25.527,59.869 L25.846,61.300 C25.865,62.626 26.975,63.702 28.303,63.683 L78.026,62.948 C79.353,62.928 80.431,61.819 80.412,60.493 L80.286,52.031 C80.980,51.896 81.681,51.955 82.415,51.788 C86.341,50.897 88.953,47.388 88.873,43.396 C88.795,39.464 85.978,36.406 82.334,35.240 C81.577,34.998 80.829,34.984 80.029,34.683 L79.908,26.503 C79.900,25.969 79.715,25.477 79.412,25.079 L79.412,25.079 ZM47.424,17.764 C47.670,16.764 48.682,16.152 49.683,16.397 C50.685,16.643 51.298,17.654 51.052,18.655 L45.463,41.268 C45.217,42.269 44.205,42.881 43.203,42.635 C42.202,42.389 41.589,41.378 41.835,40.378 L47.424,17.764 L47.424,17.764 ZM30.942,31.447 C31.931,31.154 32.969,31.719 33.262,32.708 C33.555,33.695 32.989,34.733 32.000,35.026 L23.115,37.637 C22.126,37.930 21.087,37.365 20.794,36.377 C20.502,35.388 21.067,34.350 22.056,34.059 L30.942,31.447 L30.942,31.447 ZM55.673,41.841 C53.720,42.092 51.843,41.524 50.389,40.404 L50.386,40.408 C48.936,39.290 47.913,37.619 47.660,35.661 C47.409,33.710 47.977,31.836 49.098,30.383 L49.093,30.379 C50.213,28.930 51.886,27.908 53.846,27.657 C55.806,27.405 57.683,27.970 59.133,29.089 L59.130,29.093 C60.582,30.215 61.607,31.885 61.859,33.836 C62.111,35.794 61.545,37.670 60.425,39.118 L60.421,39.114 C59.298,40.565 57.627,41.589 55.673,41.841 L55.673,41.841 ZM52.677,37.452 C53.362,37.980 54.256,38.247 55.195,38.127 C56.134,38.006 56.931,37.522 57.460,36.838 L57.459,36.830 C57.992,36.140 58.262,35.246 58.142,34.313 C58.020,33.376 57.536,32.580 56.851,32.051 L56.843,32.052 C56.153,31.520 55.258,31.250 54.324,31.370 C53.390,31.490 52.594,31.977 52.060,32.666 L52.053,32.668 C51.524,33.352 51.257,34.245 51.378,35.184 C51.498,36.116 51.985,36.912 52.676,37.445 L52.677,37.452 L52.677,37.452 ZM39.214,30.258 C37.261,30.509 35.384,29.941 33.930,28.822 L33.927,28.826 C32.476,27.708 31.453,26.037 31.201,24.078 C30.949,22.128 31.518,20.253 32.639,18.800 L32.635,18.796 C33.754,17.348 35.427,16.326 37.387,16.074 C39.347,15.821 41.224,16.388 42.674,17.505 L42.671,17.510 C44.123,18.632 45.148,20.302 45.400,22.253 C45.652,24.211 45.085,26.087 43.966,27.534 L43.962,27.532 C42.839,28.983 41.168,30.006 39.214,30.258 L39.214,30.258 ZM36.218,25.870 C36.903,26.398 37.797,26.665 38.736,26.544 C39.675,26.423 40.472,25.939 41.000,25.254 L40.999,25.247 C41.533,24.558 41.802,23.664 41.682,22.731 C41.561,21.793 41.076,20.997 40.391,20.468 L40.384,20.469 C39.693,19.937 38.799,19.667 37.865,19.788 C36.931,19.908 36.134,20.395 35.601,21.084 L35.593,21.085 C35.065,21.769 34.798,22.662 34.919,23.600 C35.039,24.534 35.526,25.330 36.216,25.862 L36.218,25.870 L36.218,25.870 ZM10.819,19.018 C9.544,19.387 8.797,20.742 9.167,22.015 L11.446,29.873 C10.769,30.395 10.054,30.628 9.404,31.079 C6.260,33.260 4.462,37.006 5.539,40.789 C6.631,44.630 10.155,47.222 14.171,46.927 C14.924,46.872 15.564,46.612 16.278,46.537 L18.635,54.666 C19.005,55.940 20.360,56.686 21.635,56.317 C37.557,51.709 53.478,47.101 69.400,42.495 C70.675,42.125 71.422,40.771 71.052,39.498 L68.695,31.369 C69.329,31.056 70.020,30.927 70.684,30.574 C74.236,28.677 75.828,24.605 74.696,20.776 C73.581,17.003 70.056,14.797 66.233,14.633 C65.439,14.599 64.714,14.784 63.863,14.704 L61.584,6.847 C61.214,5.573 59.859,4.827 58.584,5.195 C42.662,9.803 26.740,14.411 10.819,19.018 L10.819,19.018 Z"/>
</svg>