<svg 
 xmlns="http://www.w3.org/2000/svg"
 xmlns:xlink="http://www.w3.org/1999/xlink"
 width="NaN%" height="NaN%">
<path fill-rule="evenodd"  fill="rgb(255, 255, 255)"
 d="M35.876,37.641 C36.824,37.225 37.932,37.651 38.353,38.592 C38.772,39.532 38.343,40.632 37.395,41.048 L15.952,50.432 C15.004,50.848 13.896,50.423 13.476,49.481 C13.056,48.541 13.485,47.441 14.433,47.025 L35.876,37.641 L35.876,37.641 ZM41.923,28.373 C40.876,27.335 40.351,25.966 40.349,24.594 L40.349,24.589 L40.349,24.584 C40.351,23.211 40.876,21.844 41.923,20.805 C42.554,20.179 43.301,19.741 44.096,19.490 L44.294,15.783 L36.103,15.783 C34.917,15.882 33.451,15.769 32.553,15.766 L32.553,15.773 C32.118,15.773 31.683,15.935 31.355,16.261 L4.984,42.428 C4.328,43.079 4.328,44.156 4.984,44.807 L25.362,65.026 C25.690,65.352 26.125,65.515 26.560,65.515 L26.560,65.521 C26.993,65.519 27.428,65.355 27.759,65.026 L54.129,38.860 C54.406,38.584 54.568,38.238 54.613,37.880 L54.685,37.816 L54.685,17.465 C54.685,16.540 53.922,15.783 52.990,15.783 L48.060,15.783 L47.853,19.669 C48.471,19.929 49.048,20.308 49.549,20.805 C50.602,21.849 51.129,23.219 51.129,24.589 C51.129,25.959 50.602,27.328 49.549,28.373 C48.501,29.413 47.121,29.934 45.736,29.935 L45.736,29.940 C44.356,29.940 42.976,29.417 41.923,28.373 L41.923,28.373 ZM44.105,24.594 C44.105,25.001 44.266,25.411 44.586,25.730 C44.904,26.045 45.321,26.202 45.736,26.202 L45.742,26.208 C46.151,26.208 46.565,26.048 46.886,25.730 C47.203,25.415 47.362,25.001 47.362,24.589 C47.362,24.176 47.203,23.763 46.886,23.448 C46.812,23.374 46.733,23.310 46.651,23.253 C46.384,23.374 46.084,23.436 45.771,23.420 C45.469,23.404 45.188,23.319 44.943,23.181 C44.815,23.251 44.695,23.340 44.586,23.448 C44.266,23.767 44.105,24.178 44.105,24.584 L44.105,24.594 L44.105,24.594 ZM44.533,11.297 L44.808,6.136 L44.812,6.082 C44.857,5.430 45.454,0.004 52.679,0.004 C58.612,0.004 64.728,0.679 64.746,0.680 C64.760,0.682 70.140,1.190 70.007,8.517 C69.975,10.272 67.744,13.170 65.055,16.047 C63.102,18.136 60.886,20.281 59.206,21.876 L59.206,38.368 C59.206,38.818 59.081,39.179 58.873,39.455 C58.588,40.401 58.073,41.290 57.326,42.031 L30.955,68.199 C28.538,70.597 24.582,70.597 22.165,68.199 L1.788,47.978 C-0.633,45.576 -0.633,41.658 1.788,39.256 L28.158,13.089 C29.384,11.873 31.005,11.273 32.620,11.290 C32.751,11.291 32.882,11.297 33.013,11.306 L33.024,11.297 L44.533,11.297 L44.533,11.297 ZM59.160,16.724 C60.205,15.694 61.294,14.592 62.308,13.507 C64.458,11.206 66.239,9.108 66.250,8.444 C66.321,4.560 64.324,4.387 64.319,4.387 C64.302,4.385 58.466,3.742 52.679,3.742 C48.863,3.742 48.585,6.032 48.565,6.297 L48.564,6.333 L48.300,11.297 L52.990,11.297 C56.150,11.297 58.787,13.682 59.160,16.724 L59.160,16.724 ZM21.767,58.842 C20.368,57.453 19.667,55.626 19.666,53.794 L19.660,53.794 C19.660,51.967 20.362,50.140 21.767,48.746 C23.167,47.357 25.009,46.662 26.854,46.661 L26.854,46.655 C28.695,46.655 30.537,47.353 31.941,48.746 C33.347,50.140 34.048,51.967 34.048,53.794 L34.043,53.794 C34.042,55.626 33.341,57.453 31.941,58.842 C30.537,60.236 28.695,60.933 26.854,60.933 L26.854,60.927 C25.009,60.927 23.167,60.231 21.767,58.842 L21.767,58.842 ZM23.422,53.799 C23.422,54.663 23.758,55.531 24.431,56.199 C25.104,56.866 25.979,57.200 26.849,57.200 L26.854,57.195 C27.731,57.195 28.608,56.863 29.278,56.199 C29.950,55.531 30.287,54.663 30.287,53.799 L30.281,53.794 C30.281,52.924 29.947,52.054 29.278,51.389 C28.608,50.726 27.731,50.393 26.854,50.393 L26.849,50.388 C25.979,50.388 25.104,50.722 24.431,51.389 C23.762,52.054 23.427,52.924 23.427,53.794 L23.422,53.799 L23.422,53.799 ZM20.884,38.782 C19.484,37.392 18.783,35.565 18.782,33.733 L18.777,33.733 C18.777,31.906 19.478,30.079 20.883,28.685 C22.283,27.297 24.125,26.602 25.971,26.600 L25.971,26.595 C27.812,26.595 29.654,27.292 31.058,28.685 C32.463,30.079 33.165,31.906 33.165,33.733 L33.160,33.733 C33.158,35.565 32.458,37.392 31.058,38.782 C29.653,40.175 27.812,40.872 25.971,40.872 L25.971,40.867 C24.125,40.865 22.283,40.170 20.884,38.782 L20.884,38.782 ZM22.538,33.738 C22.538,34.602 22.875,35.471 23.547,36.138 C24.220,36.805 25.095,37.140 25.966,37.140 L25.971,37.134 C26.848,37.134 27.725,36.802 28.394,36.138 C29.067,35.471 29.403,34.602 29.403,33.738 L29.398,33.733 C29.398,32.864 29.063,31.993 28.394,31.329 C27.725,30.665 26.848,30.332 25.971,30.332 L25.966,30.327 C25.095,30.327 24.220,30.661 23.547,31.329 C22.878,31.993 22.544,32.864 22.544,33.733 L22.538,33.738 L22.538,33.738 Z"/>
</svg>