<svg 
 xmlns="http://www.w3.org/2000/svg"
 xmlns:xlink="http://www.w3.org/1999/xlink"
 width="58px" height="58px" viewBox="0 0 58 58">
<path fill-rule="evenodd"  fill="rgb(255, 255, 255)"
 d="M4.526,20.537 L4.526,27.063 C4.526,27.986 5.295,28.749 6.225,28.749 L27.090,28.749 L27.090,18.852 L6.225,18.852 C5.295,18.852 4.526,19.615 4.526,20.537 L4.526,20.537 ZM30.867,28.749 L51.732,28.749 C52.197,28.749 52.622,28.558 52.931,28.252 L52.935,28.256 C53.241,27.950 53.431,27.528 53.431,27.063 L53.431,20.537 C53.431,20.073 53.241,19.651 52.935,19.344 L52.931,19.349 C52.622,19.042 52.197,18.852 51.732,18.852 L30.867,18.852 L30.867,28.749 L30.867,28.749 ZM30.867,33.243 L30.867,54.401 L48.522,54.401 C48.987,54.401 49.412,54.210 49.720,53.904 L49.725,53.908 C50.031,53.602 50.221,53.180 50.221,52.716 L50.221,33.243 L30.867,33.243 L30.867,33.243 ZM27.090,54.401 L27.090,33.243 L7.736,33.243 L7.736,52.716 C7.736,53.638 8.505,54.401 9.435,54.401 L27.090,54.401 L27.090,54.401 ZM54.753,32.462 L54.753,52.716 C54.753,56.113 51.949,58.894 48.522,58.894 L9.435,58.894 C6.003,58.894 3.204,56.119 3.204,52.716 L3.204,32.464 C1.370,31.451 0.101,29.544 0.001,27.344 L-0.006,27.344 L-0.006,27.063 L-0.006,20.537 L-0.006,20.256 L0.001,20.256 C0.150,16.983 2.888,14.358 6.225,14.358 L18.052,14.358 C16.742,14.000 15.545,13.668 14.685,13.418 C13.328,13.021 12.284,12.673 11.787,12.404 C11.281,12.132 10.820,11.795 10.416,11.408 C10.003,11.012 9.643,10.563 9.351,10.076 C8.377,8.450 8.223,6.768 8.628,5.266 C8.928,4.158 9.538,3.162 10.350,2.372 C11.157,1.589 12.171,1.005 13.284,0.718 C14.827,0.319 16.542,0.482 18.146,1.452 C19.707,2.396 20.418,3.733 21.128,5.068 C21.261,5.317 21.397,5.572 21.463,5.692 L23.423,9.189 C24.000,10.224 24.721,11.523 25.625,13.167 L26.280,14.358 L32.006,14.358 L32.333,13.764 C33.237,12.120 33.964,10.809 34.535,9.787 L36.494,6.288 C36.561,6.169 36.697,5.914 36.830,5.665 C37.540,4.330 38.251,2.993 39.811,2.050 C41.416,1.080 43.131,0.916 44.674,1.315 C45.786,1.602 46.801,2.186 47.608,2.970 C48.419,3.759 49.030,4.756 49.329,5.863 C49.735,7.365 49.581,9.047 48.607,10.674 C48.315,11.161 47.955,11.609 47.542,12.005 C47.138,12.392 46.676,12.729 46.171,13.002 C45.674,13.271 44.630,13.618 43.272,14.014 C42.922,14.117 42.516,14.233 42.068,14.358 L51.732,14.358 C55.064,14.358 57.807,16.987 57.957,20.256 L57.964,20.256 L57.964,20.537 L57.964,27.063 L57.964,27.344 L57.957,27.344 C57.856,29.539 56.586,31.446 54.753,32.462 L54.753,32.462 ZM12.596,8.174 C12.718,8.377 12.863,8.560 13.027,8.716 C13.199,8.882 13.388,9.020 13.587,9.128 C13.808,9.247 14.614,9.502 15.747,9.834 C17.137,10.240 18.615,10.643 20.162,11.066 L20.118,10.988 C18.645,8.347 18.400,7.910 18.174,7.506 C17.997,7.190 17.896,7.001 17.794,6.808 C17.326,5.929 16.857,5.048 16.184,4.642 C15.527,4.243 14.838,4.173 14.228,4.331 C13.765,4.450 13.336,4.699 12.991,5.035 C12.649,5.367 12.394,5.780 12.272,6.231 C12.114,6.815 12.187,7.492 12.596,8.174 L12.596,8.174 ZM44.931,9.313 C45.094,9.157 45.240,8.974 45.361,8.771 C45.771,8.089 45.843,7.413 45.686,6.829 C45.563,6.376 45.309,5.964 44.967,5.632 C44.621,5.297 44.193,5.048 43.729,4.928 C43.119,4.770 42.431,4.841 41.773,5.239 C41.100,5.645 40.631,6.526 40.164,7.405 C40.061,7.598 39.961,7.787 39.784,8.103 C39.557,8.507 39.313,8.943 37.839,11.585 L37.796,11.664 C39.342,11.241 40.820,10.837 42.210,10.431 C43.344,10.099 44.150,9.845 44.371,9.725 C44.570,9.618 44.758,9.479 44.931,9.313 L44.931,9.313 Z"/>
</svg>