<svg version="1.2" xmlns="http://www.w3.org/2000/svg" viewBox="0 0 60 60" width="60" height="60"><style>.a{fill:#333}</style><path fill-rule="evenodd" class="a" d="m37.2 38.6q-0.5 1.4-1.3 2-0.7 0.5-1.1-0.2-0.5-0.7-0.4-2.1 0-1.5 0.6-2.9 0.6-1.4 1.3-1.9 0.7-0.5 1.1 0.1 0.5 0.7 0.5 2.1-0.1 1.5-0.7 2.9zm-6.5 9.9l16.2-7.5v-20.9l-16.2 7.5v20.9zm16.9-6.7l-17.2 7.9q-0.1 0.1-0.2 0.1-0.2 0-0.3-0.1-0.1 0.1-0.2 0.1-0.2 0-0.3-0.1l-17.2-7.9c-0.2-0.1-0.3-0.3-0.3-0.5v-22c0-0.2 0.2-0.4 0.4-0.5l17.5-7.9q0.3-0.2 0.5-0.1l17.3 8c0.2 0.1 0.3 0.3 0.3 0.5v22c0 0.2-0.1 0.4-0.3 0.5zm-17.8-15.1l16.4-7.4-16.1-7.4-16.5 7.4 16.2 7.4zm-0.6 0.9l-16.3-7.5v20.9l16.3 7.5v-20.9zm-3.6-9.4l2.6-1.2q0.2-0.1 0.4 0l5.2 2.5c0.3 0.1 0.4 0.4 0.2 0.6q-0.1 0.2-0.2 0.3l-2.5 1.1q-0.3 0.1-0.5 0l-5.2-2.4c-0.2-0.1-0.4-0.4-0.2-0.7q0.1-0.1 0.2-0.2zm2.8-0.2l-1.4 0.7 4 1.8 1.4-0.6-4-1.9zm9.8 24.3l0.2-13 0.8-0.9-0.3 13-0.7 0.9zm-1.8-4.8q0.2-0.4 0.2-0.8 0-0.5-0.1-0.6-0.2-0.2-0.4-0.1-0.2 0.1-0.3 0.5-0.2 0.5-0.2 0.9 0 0.4 0.1 0.6 0.2 0.2 0.4 0 0.2-0.1 0.3-0.5zm6-2.7q-0.6 1.4-1.3 1.9-0.7 0.5-1.2-0.1-0.5-0.7-0.4-2.2 0-1.4 0.6-2.8 0.6-1.5 1.3-2 0.7-0.5 1.2 0.2 0.4 0.7 0.4 2.1-0.1 1.4-0.6 2.9zm-1.2-0.6q0.2-0.1 0.4-0.6 0.1-0.4 0.1-0.8 0-0.4-0.1-0.6-0.1-0.2-0.3 0-0.2 0.1-0.4 0.5-0.2 0.4-0.2 0.8 0 0.4 0.2 0.6 0.1 0.2 0.3 0.1z"/></svg>