<svg version="1.2" xmlns="http://www.w3.org/2000/svg" viewBox="0 0 60 60" width="60" height="60"><style>.a{fill:#333}</style><path fill-rule="evenodd" class="a" d="m36.7 10.4c2.7 0.2 5.2 1.4 7 3.2 2 2 3.3 4.8 3.3 7.9q0 0.2 0 0.3h-0.6q0-0.1 0-0.3c0-2.9-1.2-5.6-3.1-7.5-1.7-1.7-4.1-2.8-6.6-3.1h-14.4l2.8 3.2c0.1 0.1 0.1 0.3 0 0.4-0.1 0.1-0.3 0.1-0.4 0l-3.3-3.6q-0.1-0.1-0.1-0.3 0-0.1 0.1-0.2l3.3-3.3c0.1-0.1 0.3-0.1 0.4 0 0.1 0.1 0.1 0.3 0 0.4l-2.8 2.9h14.4zm-6.9 40.3l8.5-4v-15.6l-8.5 4v15.6zm9.5-4.5l6.7-3v-15.6l-6.7 3v15.6zm-1.6-15.9l-16.2-7.5-8.8 4 16.2 7.5 8.8-4zm-15-8l16.2 7.5 6.4-3-16.1-7.4-6.5 2.9zm24 21.7l-17.2 7.9q-0.1 0.1-0.2 0.1-0.2 0-0.3-0.1-0.1 0.1-0.2 0.1-0.2 0-0.3-0.1l-17.2-7.9c-0.2-0.1-0.3-0.3-0.3-0.5v-16.7c0-0.2 0.1-0.4 0.3-0.4l17.6-8q0.2-0.2 0.5-0.1l17.3 8.1c0.2 0 0.3 0.2 0.3 0.4v16.7c0 0.2-0.1 0.4-0.3 0.5zm-18.5-8.9l-16.2-7.5v15.6l16.2 7.5v-15.6z"/></svg>