<svg version="1.2" xmlns="http://www.w3.org/2000/svg" viewBox="0 0 60 60" width="60" height="60"><style>.a{fill:#333}</style><path fill-rule="evenodd" class="a" d="m37.8 38q0.1-0.7 0.4-1.2 0.4-0.9 0.9-1.5c0.8-0.8 1.5-0.8 1.7-0.7q0.4 0 0.7 0.3 0.4 0.3 0.6 0.8 0.1 0.1 0.1 0.2l3.8-1.8v-3l-1.7 0.8v-1.1l1.7-0.8v-2.7l-5.9 2.8v-1.1l5.9-2.8v-2.7l-10.2 4.8v-1l10.2-4.9v-4.7l-15.9 7.5v16.4zm-31.8-1.7q0.4-1.5 0.8-2.9c0.3-0.8 0.4-1.3 1.5-0.7q3.4 1.6 6.8 3.2c0.2 0.2 0.5 0.5 0.1 1.6l-1 2.8c-0.2 0.6-0.5 0.5-1.1 0.3q-0.1-0.1-0.3-0.1c-2.1-1-4.2-2.1-6.3-3.1-0.7-0.3-0.7-0.4-0.5-1.1zm8.5 0.4q-3.4-1.6-6.8-3.2l-0.8 3 6.6 3.1q0.5-1.4 1-2.9zm5.3 9.6q0.2-0.6 0.4-1.2 0.4-0.9 1-1.5c0.7-0.8 1.4-0.7 1.6-0.7q0.4 0 0.7 0.3 0.4 0.3 0.6 0.7l0.6-0.3 0.3-13.8-6.4 5.7-2.4 8.3v4.6zm1-10l-1 4 3.1-2v-3.8zm2.2-3.4q0.2-0.1 0.4-0.1c0.2 0 0.5 0.2 0.5 0.5v5.2c0 0.2-0.1 0.4-0.3 0.5l-4.3 2.7q-0.2 0.2-0.4 0.1c-0.3 0-0.5-0.3-0.4-0.6l1.4-5.3q0-0.2 0.1-0.3zm-12.8 15q-0.4 0.2-0.8 0.2-0.4 0-0.8-0.2l-1.9-0.9c-0.4-0.2-0.8-0.6-1-1.1q-0.3-0.5-0.4-1.1l-2.2-1.1c-0.1-0.1-0.3-0.3-0.3-0.5v-4.9l2.5-9.1c0-0.2 0.2-0.4 0.4-0.5l5.8-4.7v-7.2c0-0.2 0.2-0.4 0.4-0.5l17.2-8q0.2-0.1 0.5 0l16.9 8c0.2 0.1 0.4 0.3 0.4 0.5v5.1l2.3-1.1v1.1l-2.3 1.1v2.7l6.5-3.1 0.1 1.1-6.6 3.1v2.7l10.8-5.1v1.1l-10.8 5v3.9c0 0.2-0.2 0.3-0.3 0.4l-4.2 2q0 0.4 0 0.9c0 1.1-0.2 2.2-0.6 3.1-0.4 0.9-1 1.6-1.6 2q-0.4 0.2-0.8 0.2-0.4 0-0.8-0.3l-1.9-0.8c-0.4-0.2-0.8-0.6-1-1.1q-0.2-0.3-0.3-0.7l-5.7 2.7q-0.1 0.1-0.3 0.1-0.1 0-0.2-0.1-0.1 0.1-0.3 0.1-0.1 0-0.2-0.1l-3.1-1.5v2.5c0 0.2-0.1 0.4-0.3 0.5l-0.9 0.5q0.1 0.5 0.1 1.2c0 1.1-0.3 2.1-0.6 3-0.5 1-1 1.7-1.7 2q-0.4 0.2-0.7 0.2-0.5 0-0.8-0.2l-1.9-0.9c-0.5-0.1-0.8-0.5-1.1-1q-0.1-0.3-0.2-0.6l-1.7 1q-0.1 0.1-0.2 0.1-0.2 0-0.3-0.1-0.1 0.1-0.2 0.1-0.2 0-0.3-0.1l-4.1-2q-0.2 0.2-0.5 0.4zm3.1-25.3q0.2-0.2 0.5-0.1l11.7 5.9c0.2 0.1 0.4 0.2 0.4 0.5l-0.3 11.3 2.9 1.4v-16.5l-16-7.5v5.6zm-6.7 22.9c0 0.2 0.2 0.4 0.3 0.5l0.2 0.1 0.5 0.2q0-0.2-0.1-0.4l-1-0.5q0 0.1 0.1 0.1zm2.2 1.1q0.1 0.3 0.3 0.4 0.1 0.1 0.3 0.1 0.2 0 0.3-0.1h0.1l-1.1-0.5zm9.7 1.5q0.1 0.3 0.2 0.6c0.1 0.2 0.2 0.3 0.3 0.5h0.2l0.1 0.1 0.5 0.2q-0.2-0.6-0.2-1.4 0-0.3 0-0.6zm3.8-4.2c-0.4 0.2-0.8 0.8-1.2 1.5-0.3 0.8-0.5 1.7-0.5 2.7q0 1 0.3 1.6 0.2 0.3 0.4 0.5 0.1 0.1 0.3 0.1 0.1 0 0.3-0.1c0.4-0.2 0.8-0.8 1.2-1.5 0.3-0.8 0.5-1.7 0.5-2.6q0-1.1-0.3-1.7-0.2-0.3-0.4-0.5-0.1-0.1-0.3-0.1-0.1 0-0.3 0.1zm2-15l-10.6-5.3-6.6 5.7 10.7 5.3zm-17.9 1.1l-2.5 9.5v3.4l10.8 5.4v-4.9l2.4-8zm30 9.6q0.1 0.4 0.3 0.7c0 0.2 0.2 0.4 0.3 0.5l0.2 0.1 0.5 0.2q-0.1-0.6-0.1-1.4 0-0.3 0-0.6zm3.8-4.1c-0.4 0.2-0.8 0.8-1.2 1.5-0.3 0.8-0.5 1.7-0.5 2.7q0 1 0.3 1.6 0.2 0.3 0.3 0.5 0.2 0.1 0.4 0.1 0.1 0 0.3-0.1c0.4-0.2 0.8-0.8 1.1-1.5 0.4-0.8 0.6-1.7 0.6-2.7q0-1-0.3-1.6-0.2-0.3-0.4-0.5-0.1-0.1-0.3-0.1-0.1 0-0.3 0.1zm5-18.8l-15.8-7.4-16.1 7.4 15.8 7.5z"/></svg>