<svg 
 xmlns="http://www.w3.org/2000/svg"
 xmlns:xlink="http://www.w3.org/1999/xlink"
 width="24px" height="28px">
<path fill-rule="evenodd"  fill="rgb(255, 255, 255)"
 d="M9.141,18.987 C9.150,18.996 9.327,19.082 9.353,19.096 C11.655,20.241 12.603,20.166 14.870,18.988 L14.870,18.987 C16.291,18.244 17.481,17.241 17.981,16.347 C18.048,16.227 18.113,16.103 18.174,15.973 C18.121,16.002 18.068,16.029 18.013,16.055 L14.397,17.816 C14.118,17.950 12.213,18.606 12.005,18.606 C11.003,18.606 10.190,17.831 10.190,16.876 C10.190,15.920 11.003,15.145 12.005,15.145 C12.735,15.145 12.285,15.290 12.989,14.955 C14.041,14.456 15.091,14.051 16.014,13.353 C16.216,13.187 16.375,13.018 16.497,12.823 L13.850,12.410 C13.724,12.743 12.802,14.616 12.444,14.616 L11.567,14.616 C11.210,14.616 10.286,12.743 10.161,12.410 C8.615,12.456 6.380,12.623 4.998,13.260 C5.266,14.294 5.526,15.447 6.030,16.347 C6.531,17.241 7.720,18.244 9.141,18.987 L9.141,18.987 ZM20.073,8.300 C20.240,8.308 20.427,8.330 20.618,8.372 C20.640,8.376 21.074,8.514 21.158,8.558 C21.654,8.801 22.077,9.264 22.120,10.120 C22.161,10.906 21.821,11.707 21.354,12.408 C20.819,13.211 20.102,13.894 19.613,14.262 C19.482,14.594 19.316,14.901 19.106,15.174 C18.915,15.741 18.700,16.227 18.482,16.616 C17.950,17.568 16.738,18.616 15.291,19.402 C15.254,19.913 15.040,20.922 14.745,21.914 C19.032,21.857 24.656,22.574 23.944,27.505 L23.943,27.505 C23.961,27.824 22.337,27.935 20.309,27.973 C19.986,26.749 19.166,26.738 17.083,24.761 C16.839,24.530 15.338,23.229 14.042,22.248 C14.051,22.217 14.057,22.184 14.065,22.152 C14.074,22.121 14.084,22.089 14.102,22.061 C14.375,21.201 14.592,20.294 14.680,19.710 C14.335,19.873 13.982,20.018 13.622,20.144 C12.150,20.555 11.861,20.555 10.389,20.144 C10.030,20.018 9.675,19.873 9.331,19.710 C9.458,20.546 9.704,21.424 9.963,22.229 C9.856,22.304 9.744,22.385 9.629,22.470 C8.895,23.011 7.991,23.753 6.929,24.761 C4.846,26.738 4.026,26.749 3.704,27.973 C1.674,27.935 0.051,27.824 0.068,27.505 L0.068,27.505 C-0.645,22.574 4.978,21.857 9.266,21.914 C8.971,20.922 8.757,19.913 8.721,19.402 C7.274,18.616 6.062,17.568 5.529,16.616 C5.224,16.072 4.927,15.341 4.688,14.460 C4.239,14.194 3.312,13.390 2.657,12.408 C2.191,11.707 1.851,10.906 1.890,10.120 C1.978,8.406 3.583,8.275 4.257,8.296 C4.348,7.411 4.507,6.487 4.745,5.532 C5.887,0.955 12.947,-0.110 16.844,2.336 L16.842,1.961 C16.827,-0.666 20.073,-0.678 20.073,1.961 L20.073,8.300 L20.073,8.300 ZM19.720,27.982 C18.503,27.997 17.188,27.991 16.019,27.991 C14.833,27.991 13.645,27.973 12.460,27.974 L12.460,23.636 C12.460,23.636 13.301,23.645 13.847,22.881 C15.092,23.831 16.484,25.039 16.717,25.260 C18.612,27.058 19.397,26.851 19.720,27.982 L19.720,27.982 ZM10.162,22.852 C10.857,23.764 11.552,23.641 11.552,23.641 L11.552,27.973 C10.366,27.971 9.178,27.991 7.993,27.991 C6.824,27.991 5.510,27.997 4.292,27.982 C4.616,26.851 5.400,27.058 7.296,25.260 C8.344,24.265 9.228,23.539 9.939,23.013 L10.162,22.852 L10.162,22.852 ZM16.848,3.044 C13.344,0.557 6.355,1.430 5.300,5.663 C5.128,6.351 4.999,7.024 4.907,7.675 C7.074,5.934 13.151,5.589 16.869,6.639 L16.848,3.044 L16.848,3.044 ZM16.873,7.213 C15.310,6.760 13.210,6.568 11.193,6.638 C8.447,6.733 6.575,7.396 4.984,8.377 C4.881,8.441 4.201,8.979 4.151,9.080 C4.046,10.300 4.060,11.590 4.703,12.750 C5.791,12.277 7.882,11.916 10.165,11.850 C10.390,11.312 11.086,9.999 11.368,9.559 C11.520,8.979 12.491,8.979 12.644,9.559 C12.926,9.999 13.622,11.312 13.845,11.850 L16.735,12.269 C16.861,11.815 16.895,11.217 16.890,10.346 L16.873,7.213 L16.873,7.213 ZM13.131,15.517 C13.552,15.834 13.821,16.325 13.821,16.876 C13.821,17.084 13.782,17.285 13.711,17.471 C13.848,17.437 13.994,17.386 14.147,17.312 L17.054,15.909 L17.767,15.549 C19.842,14.579 19.501,11.073 19.501,9.159 L19.501,1.961 C19.501,0.064 17.402,0.080 17.412,1.959 L17.460,10.343 C17.473,12.468 17.276,13.146 16.290,13.870 L16.236,13.908 C15.296,14.557 14.275,14.969 13.238,15.462 C13.201,15.480 13.165,15.499 13.131,15.517 L13.131,15.517 ZM11.950,14.029 C11.950,14.034 11.986,14.032 12.002,14.032 C12.255,14.032 12.507,13.896 12.678,13.621 C12.991,13.113 13.258,12.710 13.347,12.467 C13.160,12.016 12.367,10.121 12.147,9.838 L11.993,9.743 L11.950,14.029 L11.950,14.029 Z"/>
</svg>