<svg 
 xmlns="http://www.w3.org/2000/svg"
 xmlns:xlink="http://www.w3.org/1999/xlink"
 width="56px" height="44px">
<path fill-rule="evenodd"  fill="rgb(51, 51, 51)"
 d="M55.810,16.440 L55.833,17.536 L44.973,22.627 L44.973,26.453 L44.972,26.453 C44.972,26.644 44.864,26.826 44.683,26.911 L40.473,28.899 C40.513,29.180 40.536,29.484 40.536,29.804 C40.536,30.866 40.297,31.951 39.910,32.845 C39.505,33.782 38.926,34.527 38.268,34.858 C38.012,34.987 37.758,35.050 37.513,35.050 C37.234,35.050 36.973,34.971 36.737,34.823 L34.865,33.938 C34.396,33.782 34.020,33.385 33.777,32.887 C33.669,32.668 33.584,32.431 33.520,32.183 L27.801,34.884 C27.730,34.923 27.648,34.946 27.562,34.946 C27.471,34.946 27.387,34.921 27.313,34.878 C27.240,34.921 27.154,34.946 27.064,34.946 C26.978,34.946 26.897,34.923 26.826,34.884 L23.744,33.428 L23.701,35.891 L23.700,35.891 C23.700,36.082 23.593,36.264 23.411,36.349 L22.476,36.863 C22.551,37.227 22.592,37.633 22.592,38.071 C22.592,39.133 22.353,40.218 21.966,41.111 C21.562,42.048 20.982,42.794 20.325,43.125 C20.068,43.255 19.814,43.317 19.571,43.317 C19.291,43.317 19.030,43.238 18.793,43.090 L16.921,42.205 C16.453,42.050 16.077,41.652 15.833,41.154 C15.752,40.988 15.683,40.811 15.627,40.628 L13.916,41.569 C13.845,41.608 13.764,41.631 13.678,41.631 C13.587,41.631 13.502,41.606 13.428,41.563 C13.356,41.606 13.271,41.631 13.180,41.631 C13.094,41.631 13.013,41.608 12.942,41.569 L8.865,39.548 C8.676,39.729 8.475,39.875 8.267,39.980 C8.011,40.109 7.758,40.171 7.513,40.171 C7.233,40.171 6.972,40.092 6.736,39.944 L4.864,39.059 C4.396,38.904 4.020,38.506 3.776,38.008 C3.605,37.659 3.491,37.267 3.426,36.852 L1.252,35.775 C1.070,35.690 0.963,35.507 0.963,35.316 L0.962,35.316 L0.962,30.346 L3.450,21.298 C3.450,21.080 3.588,20.893 3.780,20.823 L9.654,16.073 L9.654,8.898 C9.654,8.679 9.792,8.492 9.984,8.423 L27.240,0.417 C27.371,0.347 27.533,0.337 27.679,0.405 L44.654,8.427 C44.841,8.500 44.973,8.683 44.973,8.898 L44.973,13.979 L47.300,12.878 L47.323,13.975 L44.973,15.076 L44.973,17.751 L51.561,14.636 L51.583,15.732 L44.973,18.831 L44.973,21.564 L55.810,16.440 ZM36.870,33.483 C36.966,33.679 37.079,33.830 37.201,33.925 C37.297,33.1000 37.402,34.040 37.513,34.040 C37.609,34.040 37.715,34.012 37.829,33.955 C38.270,33.732 38.687,33.170 39.001,32.441 C39.334,31.670 39.541,30.730 39.541,29.804 C39.541,29.107 39.425,28.534 39.227,28.131 C39.132,27.935 39.019,27.785 38.896,27.690 C38.801,27.615 38.695,27.575 38.584,27.575 C38.488,27.575 38.382,27.603 38.268,27.660 C37.827,27.882 37.411,28.445 37.096,29.173 C36.763,29.944 36.556,30.884 36.556,31.810 C36.556,32.507 36.673,33.080 36.870,33.483 ZM34.666,32.441 C34.742,32.597 34.856,32.777 35.006,32.888 L35.214,32.987 L35.241,32.992 L35.243,33.000 L35.727,33.229 C35.621,32.814 35.561,32.336 35.561,31.810 C35.561,31.609 35.570,31.408 35.587,31.207 L34.438,31.749 C34.489,31.998 34.565,32.231 34.666,32.441 ZM18.926,41.750 C19.023,41.947 19.135,42.097 19.258,42.192 C19.354,42.267 19.460,42.306 19.571,42.306 C19.666,42.306 19.772,42.279 19.885,42.221 C20.326,41.999 20.743,41.437 21.058,40.709 C21.391,39.937 21.597,38.997 21.597,38.071 C21.597,37.374 21.482,36.801 21.284,36.398 C21.188,36.202 21.076,36.052 20.953,35.956 C20.857,35.882 20.751,35.842 20.640,35.842 C20.545,35.842 20.439,35.869 20.325,35.927 C19.883,36.149 19.468,36.712 19.153,37.440 C18.820,38.211 18.613,39.152 18.613,40.077 C18.613,40.774 18.729,41.347 18.926,41.750 ZM16.723,40.708 C16.800,40.864 16.912,41.043 17.062,41.156 L17.270,41.254 L17.297,41.259 L17.299,41.268 L17.784,41.496 C17.677,41.081 17.618,40.603 17.618,40.077 C17.618,39.892 17.626,39.707 17.639,39.522 L16.522,40.137 C16.570,40.341 16.637,40.532 16.723,40.708 ZM14.175,40.334 L17.832,38.293 C17.936,37.850 18.076,37.425 18.243,37.038 C18.494,36.457 18.812,35.951 19.172,35.571 C19.911,34.743 20.617,34.815 20.820,34.843 C21.085,34.879 21.333,34.983 21.555,35.156 C21.783,35.333 21.981,35.580 22.140,35.885 L22.706,35.570 L22.976,21.730 L16.663,27.428 L14.175,35.777 L14.175,40.334 ZM6.870,38.604 C6.965,38.801 7.078,38.951 7.201,39.046 C7.296,39.121 7.402,39.161 7.513,39.161 C7.609,39.161 7.715,39.133 7.828,39.075 L7.869,39.054 L6.841,38.545 L6.870,38.604 ZM4.666,37.562 C4.742,37.718 4.856,37.898 5.005,38.010 L5.213,38.108 L5.240,38.113 L5.242,38.122 L5.727,38.351 C5.694,38.223 5.666,38.090 5.642,37.951 L4.610,37.439 C4.627,37.481 4.646,37.522 4.666,37.562 ZM1.957,31.515 L1.957,34.996 L12.682,40.334 L12.682,35.461 L15.170,27.433 L4.445,22.089 L1.957,31.515 ZM5.132,21.302 L15.767,26.598 L22.288,20.935 L11.658,15.637 L5.132,21.302 ZM10.649,15.268 L11.430,14.636 C11.562,14.566 11.723,14.556 11.869,14.624 L23.652,20.468 C23.839,20.540 23.971,20.724 23.971,20.939 L23.765,32.326 L26.567,33.649 L26.567,17.211 L10.649,9.690 L10.649,15.268 ZM27.468,1.419 L11.337,8.902 L27.163,16.377 L43.290,8.895 L27.468,1.419 ZM43.978,19.298 L38.074,22.066 L38.069,21.016 L43.978,18.222 L43.978,15.543 L33.814,20.308 L33.808,19.258 L43.978,14.449 L43.978,9.689 L28.059,17.207 L28.059,33.649 L35.780,30.004 C35.884,29.568 36.022,29.152 36.187,28.770 C36.438,28.190 36.755,27.684 37.116,27.304 C37.854,26.476 38.561,26.548 38.764,26.576 C39.029,26.612 39.277,26.716 39.498,26.888 C39.743,27.078 39.953,27.349 40.118,27.686 C40.152,27.757 40.185,27.831 40.216,27.909 L43.978,26.132 L43.978,23.094 L42.324,23.869 L42.318,22.819 L43.978,22.035 L43.978,19.298 ZM13.234,29.406 L12.260,32.273 C12.052,32.900 11.736,32.786 11.167,32.541 C11.064,32.497 10.961,32.451 10.859,32.406 C8.736,31.459 6.594,30.366 4.504,29.387 C3.785,29.067 3.829,28.943 4.009,28.274 C4.273,27.291 4.549,26.312 4.818,25.331 C5.106,24.586 5.198,24.095 6.337,24.631 C8.595,25.696 10.854,26.760 13.112,27.824 C13.296,28.021 13.580,28.388 13.234,29.406 ZM5.756,25.470 L4.960,28.486 L11.496,31.573 C11.836,30.603 12.176,29.634 12.515,28.664 C10.262,27.600 8.009,26.535 5.756,25.470 ZM17.931,27.961 C17.954,27.865 18.005,27.776 18.084,27.706 L21.122,25.008 L21.123,25.009 C21.210,24.931 21.324,24.884 21.449,24.884 C21.723,24.884 21.944,25.109 21.944,25.387 L21.952,30.582 C21.960,30.757 21.877,30.930 21.721,31.029 L17.364,33.816 C17.249,33.901 17.098,33.936 16.948,33.898 C16.682,33.830 16.522,33.554 16.589,33.284 L17.929,27.960 L17.931,27.961 ZM20.961,30.326 L20.955,26.495 L18.856,28.359 L17.861,32.308 L20.961,30.326 Z"/>
</svg>