<svg 
 xmlns="http://www.w3.org/2000/svg"
 xmlns:xlink="http://www.w3.org/1999/xlink"
 width="37px" height="40px">
<path fill-rule="evenodd"  fill="rgb(51, 51, 51)"
 d="M26.227,28.604 C25.847,29.565 25.418,30.215 24.943,30.554 C24.467,30.894 24.075,30.841 23.765,30.393 C23.455,29.946 23.321,29.242 23.366,28.279 C23.409,27.316 23.621,26.355 24.002,25.395 C24.382,24.434 24.807,23.788 25.276,23.458 C25.745,23.128 26.134,23.186 26.443,23.633 C26.757,24.086 26.893,24.791 26.853,25.747 C26.811,26.704 26.603,27.656 26.227,28.604 L26.227,28.604 ZM19.679,38.475 L35.892,30.990 L35.892,10.091 L19.679,17.575 L19.679,38.475 L19.679,38.475 ZM36.610,31.766 L19.415,39.705 C19.343,39.744 19.260,39.766 19.172,39.766 C19.080,39.766 18.994,39.741 18.919,39.698 C18.845,39.741 18.757,39.766 18.665,39.766 C18.577,39.766 18.494,39.744 18.423,39.705 L1.227,31.766 C1.042,31.681 0.933,31.500 0.933,31.310 L0.933,31.310 L0.933,9.302 C0.933,9.084 1.073,8.898 1.269,8.829 L18.845,0.857 C18.978,0.787 19.143,0.778 19.291,0.846 L36.581,8.834 C36.771,8.906 36.906,9.089 36.906,9.302 L36.906,31.310 L36.905,31.310 C36.905,31.500 36.795,31.681 36.610,31.766 L36.610,31.766 ZM18.766,16.749 L35.192,9.299 L19.077,1.854 L2.646,9.307 L18.766,16.749 L18.766,16.749 ZM18.159,17.580 L1.946,10.091 L1.946,30.990 L18.159,38.475 L18.159,17.580 L18.159,17.580 ZM14.635,8.186 L17.196,7.024 C17.337,6.961 17.492,6.967 17.621,7.027 L17.621,7.026 L22.798,9.452 C23.050,9.570 23.158,9.869 23.039,10.120 C22.982,10.240 22.884,10.327 22.768,10.372 L20.254,11.513 C20.114,11.576 19.961,11.571 19.832,11.512 L19.832,11.513 L14.606,9.110 C14.352,8.994 14.241,8.696 14.358,8.444 C14.415,8.321 14.516,8.231 14.635,8.186 L14.635,8.186 ZM17.402,8.033 L16.026,8.657 L20.046,10.505 L21.383,9.898 L17.402,8.033 L17.402,8.033 ZM27.167,32.281 L27.434,19.314 L28.194,18.379 L27.914,31.356 L27.167,32.281 L27.167,32.281 ZM25.433,27.487 C25.545,27.204 25.604,26.927 25.611,26.656 C25.618,26.385 25.575,26.184 25.484,26.053 C25.393,25.922 25.282,25.901 25.149,25.990 C25.016,26.078 24.894,26.265 24.782,26.549 C24.674,26.819 24.617,27.089 24.608,27.357 C24.599,27.624 24.639,27.824 24.730,27.955 C24.826,28.093 24.940,28.117 25.073,28.027 C25.205,27.938 25.325,27.758 25.433,27.487 L25.433,27.487 ZM31.353,24.764 C30.967,25.737 30.539,26.392 30.068,26.728 C29.597,27.065 29.206,27.010 28.896,26.562 C28.583,26.109 28.446,25.405 28.488,24.448 C28.528,23.492 28.742,22.527 29.128,21.555 C29.508,20.594 29.933,19.950 30.405,19.622 C30.876,19.295 31.265,19.355 31.575,19.802 C31.885,20.249 32.019,20.951 31.979,21.907 C31.937,22.864 31.729,23.816 31.353,24.764 L31.353,24.764 ZM30.199,24.187 C30.331,24.098 30.451,23.918 30.559,23.647 C30.666,23.376 30.723,23.105 30.729,22.834 C30.736,22.563 30.696,22.365 30.609,22.240 C30.514,22.103 30.401,22.079 30.268,22.168 C30.135,22.258 30.016,22.437 29.908,22.708 C29.800,22.979 29.742,23.249 29.734,23.516 C29.725,23.784 29.768,23.987 29.863,24.124 C29.954,24.255 30.066,24.276 30.199,24.187 L30.199,24.187 Z"/>
</svg>