<svg 
 xmlns="http://www.w3.org/2000/svg"
 xmlns:xlink="http://www.w3.org/1999/xlink"
 width="36px" height="45px">
<path fill-rule="evenodd"  fill="rgb(51, 51, 51)"
 d="M25.664,3.358 C28.399,3.581 30.859,4.779 32.690,6.603 C34.726,8.630 35.986,11.433 35.986,14.528 C35.986,14.623 35.984,14.717 35.982,14.812 L35.407,14.812 C35.410,14.717 35.411,14.623 35.411,14.528 C35.411,11.591 34.215,8.932 32.283,7.007 C30.556,5.288 28.241,4.154 25.664,3.932 L11.269,3.932 L14.130,7.084 C14.236,7.201 14.227,7.382 14.110,7.487 C13.993,7.592 13.812,7.583 13.706,7.467 L10.428,3.856 C10.372,3.804 10.335,3.728 10.335,3.645 C10.335,3.557 10.376,3.478 10.439,3.425 L13.671,0.098 C13.781,-0.015 13.962,-0.018 14.075,0.091 C14.189,0.200 14.192,0.380 14.082,0.493 L11.299,3.359 L25.664,3.358 L25.664,3.358 ZM18.768,43.699 L27.314,39.666 L27.314,24.110 L18.768,28.143 L18.768,43.699 L18.768,43.699 ZM28.328,39.196 L34.996,36.183 L34.996,20.628 L28.328,23.640 L28.328,39.196 L28.328,39.196 ZM26.651,23.310 L10.505,15.843 L1.720,19.840 L17.854,27.313 L26.651,23.310 L26.651,23.310 ZM11.717,15.292 L27.868,22.757 L34.294,19.833 L18.165,12.358 L11.717,15.292 L11.717,15.292 ZM35.715,36.961 L18.504,44.933 C18.432,44.972 18.349,44.995 18.260,44.995 C18.168,44.995 18.082,44.970 18.007,44.927 C17.933,44.970 17.846,44.995 17.753,44.995 C17.666,44.995 17.583,44.972 17.511,44.933 L0.300,36.961 C0.115,36.876 0.006,36.695 0.006,36.503 L0.005,36.503 L0.005,19.837 C0.005,19.617 0.146,19.431 0.342,19.361 L17.933,11.357 C18.067,11.287 18.232,11.278 18.380,11.346 L35.685,19.365 C35.875,19.438 36.010,19.622 36.010,19.837 L36.010,36.503 L36.009,36.503 C36.009,36.695 35.899,36.876 35.715,36.961 L35.715,36.961 ZM17.246,28.148 L1.019,20.628 L1.019,36.183 L17.246,43.699 L17.246,28.148 L17.246,28.148 Z"/>
</svg>