<svg 
 xmlns="http://www.w3.org/2000/svg"
 xmlns:xlink="http://www.w3.org/1999/xlink"
 width="12px" height="12px">
<path fill-rule="evenodd"  fill="rgb(255, 255, 255)"
 d="M7.099,11.998 C7.639,11.998 8.076,11.503 8.076,10.893 C8.076,10.283 7.639,9.788 7.099,9.788 C6.560,9.788 6.123,10.283 6.123,10.893 C6.123,11.503 6.560,11.998 7.099,11.998 ZM3.575,11.998 C4.114,11.998 4.551,11.503 4.551,10.893 C4.551,10.283 4.114,9.788 3.575,9.788 C3.036,9.788 2.598,10.283 2.598,10.893 C2.598,11.503 3.036,11.998 3.575,11.998 ZM11.417,0.008 C11.417,0.008 9.773,0.097 10.233,0.017 C9.964,0.025 9.713,0.215 9.614,0.519 L8.930,2.618 L0.556,2.618 C-0.214,2.618 -0.214,4.150 0.556,4.150 L8.431,4.150 L8.139,5.048 L1.216,5.048 C0.445,5.048 0.445,6.580 1.216,6.580 L7.640,6.580 L7.333,7.522 L2.242,7.522 C1.471,7.522 1.471,9.054 2.242,9.054 L7.791,9.054 C7.992,9.054 8.172,8.955 8.296,8.798 C8.362,8.722 8.415,8.630 8.449,8.526 L10.724,1.540 L11.417,1.540 C12.187,1.540 12.187,0.008 11.417,0.008 Z"/>
</svg>