<svg 
 xmlns="http://www.w3.org/2000/svg"
 xmlns:xlink="http://www.w3.org/1999/xlink"
 width="24px" height="20px">
<path fill-rule="evenodd"  fill="rgb(255, 255, 255)"
 d="M11.336,19.986 C10.539,19.986 9.893,19.349 9.893,18.563 C9.893,17.776 10.539,17.140 11.336,17.140 C12.133,17.140 12.779,17.776 12.779,18.563 C12.779,19.349 12.133,19.986 11.336,19.986 L11.336,19.986 ZM13.231,10.359 C13.305,10.626 13.144,10.902 12.873,10.975 C12.602,11.047 12.322,10.890 12.249,10.621 L11.559,8.116 C11.547,8.072 11.541,8.028 11.541,7.984 C11.541,7.209 12.184,6.578 12.969,6.577 L15.858,6.575 C16.637,6.575 17.286,7.217 17.286,7.984 C17.286,8.036 17.278,8.085 17.264,8.132 L16.579,10.621 C16.505,10.890 16.225,11.047 15.954,10.975 C15.683,10.902 15.522,10.626 15.596,10.359 L16.264,7.931 C16.238,7.743 16.078,7.595 15.886,7.580 L12.969,7.578 C12.765,7.578 12.590,7.733 12.563,7.931 L13.231,10.359 L13.231,10.359 ZM0.635,0.1000 C-0.034,0.1000 -0.034,-0.004 0.635,-0.004 L3.003,-0.004 C4.173,-0.004 4.784,0.943 5.091,1.934 L8.621,13.388 C8.781,13.912 9.086,14.613 9.739,14.613 L19.088,14.613 C19.742,14.613 20.045,13.912 20.206,13.388 L22.766,5.061 C22.959,4.432 23.930,4.721 23.736,5.351 L21.176,13.678 C20.872,14.671 20.258,15.617 19.088,15.617 L9.739,15.617 C8.570,15.617 7.955,14.671 7.651,13.678 L4.121,2.225 C3.959,1.703 3.655,0.1000 3.003,0.1000 L0.635,0.1000 L0.635,0.1000 ZM17.181,11.759 C17.827,11.759 18.130,11.053 18.295,10.548 L19.477,6.249 C19.444,5.680 18.962,5.229 18.384,5.229 L10.443,5.229 C9.863,5.229 9.383,5.679 9.350,6.249 L10.534,10.548 C10.665,11.052 11.035,11.759 11.646,11.759 L17.181,11.759 L17.181,11.759 ZM17.181,12.764 L11.646,12.764 C10.520,12.764 9.820,11.795 9.551,10.811 L8.352,6.456 C8.338,6.409 8.330,6.360 8.330,6.309 C8.330,5.164 9.281,4.224 10.443,4.224 L18.384,4.224 C19.543,4.224 20.490,5.155 20.497,6.298 C20.497,6.349 20.492,6.391 20.479,6.440 L19.273,10.810 C18.977,11.800 18.340,12.764 17.181,12.764 L17.181,12.764 ZM17.491,19.986 C16.694,19.986 16.048,19.349 16.048,18.563 C16.048,17.776 16.694,17.140 17.491,17.140 C18.287,17.140 18.934,17.776 18.934,18.563 C18.934,19.349 18.287,19.986 17.491,19.986 L17.491,19.986 Z"/>
</svg>