<svg 
 xmlns="http://www.w3.org/2000/svg"
 xmlns:xlink="http://www.w3.org/1999/xlink"
 width="15px" height="16px">
<path fill-rule="evenodd"  fill-opacity="0.702" fill="rgb(169, 0, 131)"
 d="M6.907,15.018 C7.110,15.176 7.401,15.209 7.652,15.115 L7.652,15.116 C8.032,14.737 8.610,15.315 8.231,15.696 L8.145,15.782 C7.699,16.185 6.712,15.946 6.292,15.562 C6.288,15.559 6.284,15.555 6.281,15.549 L1.456,10.719 C-0.039,9.223 2.235,6.947 3.730,8.443 L4.594,9.307 L4.594,3.323 C4.594,1.207 7.810,1.207 7.810,3.323 L7.810,4.896 C8.710,4.387 9.865,4.859 10.146,5.869 C11.009,5.328 12.163,5.725 12.510,6.695 C13.560,6.001 14.1000,6.749 14.1000,8.039 L14.1000,13.776 C14.1000,14.411 14.346,15.201 13.675,15.203 C13.136,15.203 13.136,14.383 13.675,14.383 C13.781,14.382 14.138,14.074 14.181,13.796 C14.105,11.942 14.180,9.913 14.180,8.039 C14.180,7.023 12.648,6.992 12.604,8.006 L12.603,9.843 C12.603,10.382 11.784,10.382 11.784,9.843 L11.784,7.235 C11.784,6.282 10.388,6.158 10.219,7.095 L10.204,9.243 C10.204,9.782 9.385,9.782 9.385,9.243 L9.385,6.298 C9.385,5.294 7.878,5.244 7.810,6.245 L7.810,7.936 C7.810,8.475 6.990,8.475 6.990,7.936 L6.988,6.301 C6.988,5.309 6.990,4.316 6.990,3.323 C6.990,2.286 5.413,2.286 5.413,3.323 C5.413,5.979 5.416,8.635 5.416,11.290 L3.150,9.022 C2.418,8.290 1.302,9.406 2.035,10.139 L6.721,14.829 C6.781,14.890 6.853,14.954 6.907,15.018 L6.907,15.018 ZM8.690,3.762 C8.938,2.254 7.779,0.870 6.239,0.870 C4.868,0.870 3.756,1.984 3.756,3.356 C3.756,3.741 3.846,4.077 4.006,4.430 L4.060,4.550 L4.077,5.924 C4.077,5.941 4.053,5.904 4.041,5.894 C3.311,5.260 2.884,4.340 2.884,3.356 C2.884,1.502 4.387,-0.002 6.239,-0.002 C8.092,-0.002 9.595,1.502 9.595,3.356 C9.595,3.631 9.562,3.898 9.499,4.154 C9.421,4.064 8.989,3.762 8.690,3.762 L8.690,3.762 Z"/>
</svg>