<svg 
 xmlns="http://www.w3.org/2000/svg"
 xmlns:xlink="http://www.w3.org/1999/xlink"
 width="16px" height="14px">
<path fill-rule="evenodd"  fill="rgb(178, 178, 178)"
 d="M15.201,10.844 L8.424,10.844 C7.983,10.844 7.625,10.486 7.625,10.044 L7.625,10.018 C7.625,9.576 7.983,9.218 8.424,9.218 L15.201,9.218 C15.642,9.218 15.1000,9.576 15.1000,10.018 L15.1000,10.044 C15.1000,10.486 15.642,10.844 15.201,10.844 ZM11.406,4.469 C11.838,4.469 12.187,4.818 12.187,5.250 C12.187,5.681 11.838,6.031 11.406,6.031 L8.406,6.031 C7.975,6.031 7.625,5.681 7.625,5.250 C7.625,4.818 7.975,4.469 8.406,4.469 L11.406,4.469 ZM15.203,2.875 L8.422,2.875 C7.982,2.875 7.625,2.518 7.625,2.078 C7.625,1.638 7.982,1.281 8.422,1.281 L15.203,1.281 C15.643,1.281 15.1000,1.638 15.1000,2.078 C15.1000,2.518 15.643,2.875 15.203,2.875 ZM4.094,13.1000 L2.750,13.1000 C1.645,13.1000 0.750,13.104 0.750,11.1000 L0.750,10.406 C0.750,9.302 1.645,8.406 2.750,8.406 L4.094,8.406 C5.198,8.406 6.094,9.302 6.094,10.406 L6.094,11.1000 C6.094,13.104 5.198,13.1000 4.094,13.1000 ZM4.594,11.184 C4.594,10.547 4.078,10.031 3.441,10.031 L3.434,10.031 C2.797,10.031 2.281,10.547 2.281,11.184 L2.281,11.253 C2.281,11.890 2.797,12.406 3.434,12.406 L3.441,12.406 C4.078,12.406 4.594,11.890 4.594,11.253 L4.594,11.184 ZM4.094,6.031 L2.750,6.031 C1.645,6.031 0.750,5.135 0.750,4.031 L0.750,2.469 C0.750,1.364 1.645,0.469 2.750,0.469 L4.094,0.469 C5.198,0.469 6.094,1.364 6.094,2.469 L6.094,4.031 C6.094,5.135 5.198,6.031 4.094,6.031 ZM4.594,3.246 C4.594,2.610 4.078,2.093 3.441,2.093 L3.434,2.093 C2.797,2.093 2.281,2.610 2.281,3.246 L2.281,3.316 C2.281,3.952 2.797,4.469 3.434,4.469 L3.441,4.469 C4.078,4.469 4.594,3.952 4.594,3.316 L4.594,3.246 ZM8.422,12.406 L11.391,12.406 C11.831,12.406 12.187,12.763 12.187,13.203 C12.187,13.643 11.831,13.1000 11.391,13.1000 L8.422,13.1000 C7.982,13.1000 7.625,13.643 7.625,13.203 C7.625,12.763 7.982,12.406 8.422,12.406 Z"/>
</svg>