<svg 
 xmlns="http://www.w3.org/2000/svg"
 xmlns:xlink="http://www.w3.org/1999/xlink"
 width="24px" height="18px">
<path fill-rule="evenodd"  fill="rgb(255, 255, 255)"
 d="M23.500,1.1000 L10.500,1.1000 C10.224,1.1000 9.1000,1.776 9.1000,1.500 C9.1000,1.224 10.224,0.1000 10.500,0.1000 L23.500,0.1000 C23.776,0.1000 23.1000,1.224 23.1000,1.500 C23.1000,1.776 23.776,1.1000 23.500,1.1000 ZM4.1000,17.1000 L1.1000,17.1000 C0.895,17.1000 -0.000,17.104 -0.000,15.1000 L-0.000,12.1000 C-0.000,11.895 0.895,10.1000 1.1000,10.1000 L4.1000,10.1000 C6.104,10.1000 6.1000,11.895 6.1000,12.1000 L6.1000,15.1000 C6.1000,17.104 6.104,17.1000 4.1000,17.1000 ZM5.1000,13.1000 C5.1000,12.895 5.104,11.1000 3.1000,11.1000 L2.1000,11.1000 C1.895,11.1000 0.1000,12.895 0.1000,13.1000 L0.1000,14.1000 C0.1000,16.104 1.895,16.1000 2.1000,16.1000 L3.1000,16.1000 C5.104,16.1000 5.1000,16.104 5.1000,14.1000 L5.1000,13.1000 ZM4.1000,6.1000 L1.1000,6.1000 C0.895,6.1000 -0.000,6.104 -0.000,4.1000 L-0.000,1.1000 C-0.000,0.895 0.895,-0.000 1.1000,-0.000 L4.1000,-0.000 C6.104,-0.000 6.1000,0.895 6.1000,1.1000 L6.1000,4.1000 C6.1000,6.104 6.104,6.1000 4.1000,6.1000 ZM5.1000,2.1000 C5.1000,1.895 5.104,0.1000 3.1000,0.1000 L2.1000,0.1000 C1.895,0.1000 0.1000,1.895 0.1000,2.1000 L0.1000,3.1000 C0.1000,5.104 1.895,5.1000 2.1000,5.1000 L3.1000,5.1000 C5.104,5.1000 5.1000,5.104 5.1000,3.1000 L5.1000,2.1000 ZM10.500,4.1000 L17.500,4.1000 C17.776,4.1000 17.1000,5.224 17.1000,5.500 C17.1000,5.776 17.776,5.1000 17.500,5.1000 L10.500,5.1000 C10.224,5.1000 9.1000,5.776 9.1000,5.500 C9.1000,5.224 10.224,4.1000 10.500,4.1000 ZM10.500,11.1000 L23.500,11.1000 C23.776,11.1000 23.1000,12.224 23.1000,12.500 C23.1000,12.776 23.776,12.1000 23.500,12.1000 L10.500,12.1000 C10.224,12.1000 9.1000,12.776 9.1000,12.500 C9.1000,12.224 10.224,11.1000 10.500,11.1000 ZM10.500,15.1000 L17.500,15.1000 C17.776,15.1000 17.1000,16.224 17.1000,16.500 C17.1000,16.776 17.776,16.1000 17.500,16.1000 L10.500,16.1000 C10.224,16.1000 9.1000,16.776 9.1000,16.500 C9.1000,16.224 10.224,15.1000 10.500,15.1000 Z"/>
</svg>