<svg 
 xmlns="http://www.w3.org/2000/svg"
 xmlns:xlink="http://www.w3.org/1999/xlink"
 width="21px" height="16px">
<path fill-rule="evenodd"  fill="rgb(255, 255, 255)"
 d="M16.350,11.460 C15.138,11.460 14.155,12.469 14.155,13.715 C14.155,14.961 15.138,15.970 16.350,15.970 C17.562,15.970 18.544,14.961 18.544,13.715 C18.544,12.469 17.562,11.460 16.350,11.460 L16.350,11.460 ZM16.712,2.986 L14.549,2.986 C13.559,2.986 12.748,3.821 12.748,4.839 L12.748,11.199 C12.748,11.568 12.778,12.936 12.923,13.015 C13.220,11.387 14.605,10.155 16.281,10.155 C17.957,10.155 19.362,11.406 19.646,13.051 L20.969,13.051 C20.969,11.056 20.969,10.437 20.969,8.442 C20.864,5.906 19.429,3.058 16.712,2.986 L16.712,2.986 ZM14.818,4.905 C17.360,4.905 18.791,4.868 18.791,8.062 L14.818,8.062 L14.818,4.905 L14.818,4.905 ZM10.206,-0.004 C11.197,-0.004 12.009,0.830 12.009,1.848 L12.009,11.246 C12.009,12.140 11.385,12.890 10.563,13.061 C10.265,11.434 8.874,10.203 7.204,10.203 C5.522,10.203 4.123,11.452 3.839,13.099 L3.787,13.099 L3.787,9.063 L2.590,9.063 C1.310,9.063 1.310,7.061 2.590,7.061 L3.787,7.061 L3.787,5.502 L1.220,5.502 C-0.060,5.502 -0.060,3.501 1.220,3.501 L3.787,3.501 L3.787,1.997 L2.028,1.997 C0.748,1.997 0.748,-0.004 2.028,-0.004 L10.206,-0.004 L10.206,-0.004 ZM7.204,11.460 C5.992,11.460 5.010,12.469 5.010,13.715 C5.010,14.961 5.992,15.970 7.204,15.970 C8.416,15.970 9.399,14.961 9.399,13.715 C9.399,12.469 8.416,11.460 7.204,11.460 L7.204,11.460 Z"/>
</svg>
