<svg 
 xmlns="http://www.w3.org/2000/svg"
 xmlns:xlink="http://www.w3.org/1999/xlink"
 width="13px" height="3px">
<path fill-rule="evenodd"  fill="rgb(83, 83, 83)"
 d="M11.500,2.1000 C10.672,2.1000 9.1000,2.328 9.1000,1.500 C9.1000,0.671 10.672,-0.000 11.500,-0.000 C12.328,-0.000 12.1000,0.671 12.1000,1.500 C12.1000,2.328 12.328,2.1000 11.500,2.1000 ZM6.500,2.1000 C5.671,2.1000 4.1000,2.328 4.1000,1.500 C4.1000,0.671 5.671,-0.000 6.500,-0.000 C7.328,-0.000 7.1000,0.671 7.1000,1.500 C7.1000,2.328 7.328,2.1000 6.500,2.1000 ZM1.500,2.1000 C0.672,2.1000 -0.000,2.328 -0.000,1.500 C-0.000,0.671 0.672,-0.000 1.500,-0.000 C2.328,-0.000 2.1000,0.671 2.1000,1.500 C2.1000,2.328 2.328,2.1000 1.500,2.1000 Z"/>
</svg>