<svg 
 xmlns="http://www.w3.org/2000/svg"
 xmlns:xlink="http://www.w3.org/1999/xlink"
 width="32px" height="24px">
<path fill-rule="evenodd"  fill="rgb(255, 255, 255)"
 d="M4.238,19.749 C3.731,20.130 3.156,19.356 3.661,18.975 L10.684,13.680 C11.190,13.299 11.767,14.073 11.261,14.454 L4.238,19.749 L4.238,19.749 ZM4.800,-0.005 L27.573,-0.005 C28.787,-0.005 29.893,0.495 30.692,1.299 L30.694,1.301 C31.495,2.107 31.993,3.218 31.993,4.439 L31.993,18.882 C31.993,20.103 31.495,21.214 30.694,22.020 L30.692,22.021 C29.893,22.825 28.787,23.327 27.573,23.327 L4.800,23.327 C3.587,23.327 2.481,22.825 1.681,22.021 L1.680,22.020 C0.878,21.214 0.381,20.103 0.381,18.882 L0.381,4.439 C0.381,3.218 0.878,2.107 1.680,1.301 L1.681,1.299 C2.481,0.495 3.587,-0.005 4.800,-0.005 L4.800,-0.005 ZM27.573,0.966 L4.800,0.966 C4.127,0.966 3.495,1.162 2.963,1.502 L12.829,10.895 C14.605,12.586 17.549,12.595 19.338,10.917 L29.389,1.487 C28.860,1.156 28.236,0.966 27.573,0.966 L27.573,0.966 ZM2.044,2.352 C1.606,2.934 1.347,3.657 1.347,4.439 L1.347,18.882 C1.347,19.838 1.734,20.707 2.359,21.336 C2.986,21.964 3.851,22.355 4.800,22.355 L27.573,22.355 C28.523,22.355 29.387,21.964 30.014,21.336 C30.639,20.707 31.027,19.838 31.027,18.882 L31.027,4.439 C31.027,3.648 30.761,2.916 30.315,2.330 L20.243,11.779 C17.947,13.936 14.196,13.922 11.916,11.751 L2.044,2.352 L2.044,2.352 ZM28.135,19.749 C28.641,20.130 29.218,19.356 28.712,18.975 L21.689,13.680 C21.182,13.299 20.607,14.073 21.112,14.454 L28.135,19.749 L28.135,19.749 Z"/>
</svg>