<svg 
 xmlns="http://www.w3.org/2000/svg"
 xmlns:xlink="http://www.w3.org/1999/xlink"
 width="23px" height="19px">
<path fill-rule="evenodd"  fill="rgb(255, 255, 255)"
 d="M11.145,18.822 C10.657,18.509 3.677,13.972 1.750,10.529 C0.550,8.389 -0.028,5.660 0.981,3.346 C1.785,1.498 3.410,0.415 5.431,0.170 C7.720,-0.105 9.977,0.485 11.453,2.278 C12.929,0.485 15.186,-0.105 17.476,0.170 C19.479,0.413 21.115,1.485 21.926,3.346 C22.934,5.660 22.356,8.389 21.157,10.529 C19.871,12.649 17.675,14.492 15.705,16.016 C13.612,17.637 11.775,18.813 11.734,18.840 C11.648,18.895 11.551,18.921 11.454,18.921 L11.454,18.923 C11.341,18.923 11.234,18.888 11.145,18.822 L11.145,18.822 ZM2.644,10.059 C4.301,13.016 10.108,16.951 11.453,17.837 C12.045,17.448 13.497,16.469 15.072,15.249 C17.085,13.691 19.317,11.730 20.249,10.082 C21.264,8.117 21.919,5.855 20.991,3.727 C20.325,2.200 18.996,1.348 17.351,1.149 C15.348,0.908 12.895,1.499 11.911,3.370 C11.733,3.734 11.187,3.746 10.998,3.375 C10.059,1.506 7.528,0.911 5.554,1.149 C3.902,1.349 2.575,2.212 1.916,3.727 C1.033,5.751 1.599,8.194 2.644,10.059 L2.644,10.059 Z"/>
</svg>