<svg 
 xmlns="http://www.w3.org/2000/svg"
 xmlns:xlink="http://www.w3.org/1999/xlink"
 width="28px" height="26px">
<path fill-rule="evenodd"  stroke-width="2px" stroke="rgb(142, 142, 142)" fill-opacity="0" fill="rgb(178, 178, 178)"
 d="M18.985,3.992 C16.432,3.992 14.328,5.862 14.023,8.277 L13.952,8.277 C13.646,5.862 11.542,3.992 8.989,3.992 C6.227,3.992 3.987,6.182 3.987,8.884 C3.987,9.361 4.057,9.821 4.188,10.258 C5.301,14.986 13.979,20.986 14.023,21.015 L14.023,21.016 L14.023,21.016 L14.024,21.016 L14.023,21.016 C14.036,21.007 24.099,14.059 23.975,9.216 C23.983,9.106 23.987,8.995 23.987,8.884 C23.987,6.182 21.747,3.992 18.985,3.992 Z"/>
</svg>
