<svg 
 xmlns="http://www.w3.org/2000/svg"
 xmlns:xlink="http://www.w3.org/1999/xlink"
 width="24px" height="22px">
<path fill-rule="evenodd"  stroke-width="2px" stroke="rgb(178, 178, 178)" fill-opacity="0" fill="rgb(178, 178, 178)"
 d="M15.417,3.992 C13.472,3.992 11.869,5.480 11.636,7.401 L11.582,7.401 C11.349,5.480 9.746,3.992 7.801,3.992 C5.697,3.992 3.990,5.735 3.990,7.883 C3.990,8.263 4.044,8.629 4.143,8.976 C4.992,12.738 11.603,17.510 11.636,17.533 L11.637,17.534 L11.637,17.534 L11.637,17.534 L11.637,17.534 C11.647,17.527 19.313,12.000 19.219,8.147 C19.225,8.060 19.228,7.972 19.228,7.883 C19.228,5.735 17.522,3.992 15.417,3.992 Z"/>
</svg>