<svg 
 xmlns="http://www.w3.org/2000/svg"
 xmlns:xlink="http://www.w3.org/1999/xlink"
 width="15px" height="15px">
<path fill-rule="evenodd"  fill-opacity="0.702" fill="rgb(255, 255, 255)"
 d="M7.1000,14.1000 L12.1000,14.1000 C13.307,14.1000 13.1000,14.306 13.1000,13.999 L13.1000,9.999 L7.986,10.029 L7.1000,14.1000 ZM0.1000,13.999 C0.1000,14.306 1.693,14.1000 1.1000,14.1000 L6.1000,14.1000 L6.1000,9.999 L0.1000,9.999 L0.1000,13.999 ZM0.197,6.324 L0.197,7.575 C0.197,8.097 0.1000,7.999 0.1000,7.999 L0.1000,8.1000 L6.1000,8.1000 L6.1000,5.999 L0.1000,5.999 C0.693,5.999 0.197,6.018 0.197,6.324 ZM12.499,1.434 C12.499,1.434 10.065,-1.954 7.682,3.860 C5.299,-1.954 2.864,1.434 2.864,1.434 C-0.246,6.673 15.609,6.673 12.499,1.434 ZM14.760,6.324 C14.760,6.018 14.307,5.999 13.1000,5.999 L7.1000,5.999 L7.1000,8.1000 L13.1000,8.1000 L13.1000,7.999 C14.294,7.985 14.760,7.872 14.760,7.575 L14.760,6.324 ZM8.049,4.880 C10.017,1.195 10.1000,1.999 10.1000,1.999 C11.564,3.469 8.049,4.880 8.049,4.880 ZM3.1000,1.999 C3.1000,1.999 5.344,1.201 7.304,4.862 C6.263,4.425 3.229,4.006 3.1000,1.999 Z"/>
</svg>