<svg 
 xmlns="http://www.w3.org/2000/svg"
 xmlns:xlink="http://www.w3.org/1999/xlink"
 width="51px" height="38px">
<path fill-rule="evenodd"  fill="rgb(255, 255, 255)"
 d="M5.302,8.527 C13.822,6.029 22.343,3.531 30.863,1.033 C32.821,0.458 34.882,1.607 35.450,3.590 L36.166,6.094 C39.087,6.383 41.609,8.237 42.454,11.135 C42.470,11.189 42.485,11.243 42.499,11.297 C44.109,11.684 45.324,13.141 45.350,14.889 L45.388,17.496 C48.129,18.555 50.079,21.017 50.138,24.038 C50.197,27.056 48.403,29.775 45.583,30.781 L45.619,33.317 C45.650,35.380 44.011,37.089 41.972,37.119 L15.364,37.518 C13.325,37.549 11.637,35.890 11.607,33.827 L11.603,33.571 C9.922,33.664 8.331,32.576 7.843,30.872 L7.146,28.435 C4.157,28.308 1.656,26.239 0.841,23.337 C0.025,20.429 1.178,17.498 3.493,15.674 L2.776,13.169 C2.209,11.187 3.344,9.101 5.302,8.527 L5.302,8.527 ZM42.678,14.152 C42.419,16.014 41.426,17.729 39.819,18.856 L40.516,21.292 C41.084,23.274 39.948,25.360 37.990,25.934 L13.843,33.014 L14.013,33.791 C14.024,34.509 14.618,35.093 15.328,35.082 L41.936,34.684 C42.647,34.673 43.223,34.072 43.213,33.353 L43.146,28.765 C43.517,28.692 43.892,28.724 44.285,28.633 C46.386,28.150 47.784,26.248 47.741,24.084 C47.699,21.951 46.192,20.294 44.242,19.661 C43.837,19.530 43.436,19.523 43.008,19.360 L42.944,14.925 C42.939,14.635 42.841,14.368 42.678,14.152 L42.678,14.152 ZM25.561,10.186 C25.692,9.644 26.234,9.312 26.770,9.446 C27.306,9.579 27.634,10.127 27.502,10.670 L24.511,22.930 C24.379,23.472 23.838,23.804 23.302,23.671 C22.766,23.538 22.438,22.990 22.570,22.447 L25.561,10.186 L25.561,10.186 ZM16.740,17.605 C17.270,17.446 17.825,17.753 17.982,18.288 C18.139,18.824 17.836,19.387 17.307,19.545 L12.552,20.961 C12.023,21.120 11.467,20.813 11.310,20.278 C11.154,19.742 11.456,19.179 11.986,19.021 L16.740,17.605 L16.740,17.605 ZM29.975,23.240 C28.930,23.377 27.925,23.069 27.147,22.462 L27.145,22.463 C26.370,21.858 25.822,20.952 25.687,19.890 C25.552,18.832 25.857,17.816 26.456,17.028 L26.454,17.026 C27.053,16.241 27.948,15.686 28.997,15.550 C30.046,15.413 31.051,15.720 31.827,16.327 L31.825,16.329 C32.602,16.937 33.151,17.843 33.285,18.900 C33.420,19.962 33.117,20.979 32.518,21.764 L32.516,21.762 C31.915,22.549 31.020,23.104 29.975,23.240 L29.975,23.240 ZM28.371,20.861 C28.738,21.147 29.217,21.292 29.719,21.227 C30.221,21.161 30.648,20.899 30.931,20.528 L30.930,20.524 C31.216,20.149 31.360,19.665 31.296,19.159 C31.231,18.651 30.972,18.219 30.605,17.932 L30.601,17.933 C30.231,17.644 29.753,17.498 29.253,17.563 C28.753,17.628 28.327,17.892 28.042,18.266 L28.038,18.267 C27.755,18.638 27.612,19.122 27.676,19.631 C27.741,20.137 28.001,20.568 28.371,20.857 L28.371,20.861 L28.371,20.861 ZM21.167,16.960 C20.122,17.096 19.118,16.789 18.339,16.182 L18.338,16.184 C17.562,15.578 17.014,14.672 16.879,13.610 C16.745,12.552 17.049,11.536 17.648,10.748 L17.646,10.746 C18.245,9.961 19.141,9.407 20.189,9.270 C21.238,9.133 22.243,9.441 23.019,10.046 L23.017,10.049 C23.794,10.657 24.343,11.563 24.477,12.620 C24.612,13.682 24.309,14.699 23.710,15.484 L23.708,15.483 C23.107,16.269 22.213,16.824 21.167,16.960 L21.167,16.960 ZM19.564,14.581 C19.930,14.868 20.409,15.012 20.911,14.947 C21.414,14.881 21.840,14.619 22.123,14.248 L22.122,14.244 C22.408,13.870 22.552,13.385 22.488,12.880 C22.423,12.371 22.164,11.939 21.797,11.653 L21.793,11.653 C21.424,11.364 20.945,11.218 20.445,11.284 C19.945,11.349 19.519,11.613 19.234,11.987 L19.230,11.987 C18.947,12.358 18.804,12.842 18.868,13.351 C18.933,13.857 19.194,14.289 19.563,14.577 L19.564,14.581 L19.564,14.581 ZM5.972,10.866 C5.290,11.067 4.890,11.801 5.088,12.492 L6.308,16.752 C5.945,17.035 5.563,17.161 5.215,17.405 C3.533,18.588 2.570,20.619 3.146,22.670 C3.731,24.752 5.617,26.158 7.766,25.998 C8.169,25.968 8.511,25.827 8.893,25.787 L10.155,30.194 C10.352,30.885 11.078,31.289 11.760,31.089 C20.280,28.591 28.800,26.093 37.320,23.595 C38.003,23.394 38.402,22.660 38.204,21.970 L36.943,17.563 C37.282,17.393 37.652,17.323 38.008,17.132 C39.909,16.103 40.760,13.896 40.155,11.819 C39.558,9.774 37.672,8.578 35.626,8.489 C35.201,8.471 34.813,8.571 34.357,8.527 L33.138,4.267 C32.940,3.576 32.215,3.173 31.532,3.372 C23.012,5.870 14.492,8.369 5.972,10.866 L5.972,10.866 Z"/>
</svg>