<svg 
 xmlns="http://www.w3.org/2000/svg"
 xmlns:xlink="http://www.w3.org/1999/xlink"
 width="38px" height="38px">
<path fill-rule="evenodd"  fill="rgb(255, 255, 255)"
 d="M19.731,20.421 C20.238,20.196 20.831,20.426 21.056,20.937 C21.281,21.447 21.051,22.043 20.544,22.269 L9.069,27.356 C8.562,27.582 7.969,27.351 7.744,26.841 C7.519,26.331 7.749,25.734 8.256,25.509 L19.731,20.421 L19.731,20.421 ZM22.967,15.396 C22.407,14.833 22.125,14.091 22.124,13.347 L22.125,13.345 L22.124,13.342 C22.125,12.598 22.407,11.856 22.967,11.293 C23.304,10.954 23.704,10.716 24.130,10.580 L24.235,8.570 L19.852,8.570 C19.218,8.624 18.433,8.563 17.953,8.561 L17.953,8.565 C17.720,8.565 17.487,8.653 17.312,8.829 L3.200,23.016 C2.849,23.369 2.849,23.953 3.200,24.306 L14.104,35.269 C14.280,35.445 14.513,35.534 14.746,35.534 L14.746,35.537 C14.978,35.536 15.210,35.447 15.387,35.269 L29.499,21.082 C29.647,20.933 29.733,20.745 29.758,20.551 L29.796,20.516 L29.796,9.482 C29.796,8.981 29.388,8.570 28.889,8.570 L26.251,8.570 L26.140,10.677 C26.471,10.818 26.780,11.023 27.048,11.293 C27.611,11.859 27.893,12.602 27.893,13.345 C27.893,14.087 27.611,14.830 27.048,15.396 C26.487,15.960 25.748,16.242 25.007,16.243 L25.007,16.246 C24.269,16.246 23.530,15.963 22.967,15.396 L22.967,15.396 ZM24.135,13.347 C24.135,13.568 24.220,13.790 24.392,13.963 C24.562,14.134 24.785,14.220 25.007,14.220 L25.010,14.222 C25.229,14.222 25.451,14.136 25.622,13.963 C25.792,13.792 25.877,13.568 25.877,13.345 C25.877,13.121 25.792,12.897 25.622,12.726 C25.583,12.686 25.541,12.652 25.497,12.621 C25.354,12.686 25.194,12.719 25.026,12.711 C24.865,12.702 24.714,12.656 24.583,12.581 C24.515,12.619 24.450,12.668 24.392,12.726 C24.220,12.899 24.135,13.121 24.135,13.342 L24.135,13.347 L24.135,13.347 ZM24.363,6.138 L24.511,3.340 L24.513,3.311 C24.537,2.957 24.856,0.015 28.723,0.015 C31.898,0.015 35.171,0.381 35.180,0.382 C35.188,0.383 38.067,0.658 37.995,4.631 C37.978,5.583 36.784,7.154 35.345,8.713 C34.300,9.846 33.114,11.009 32.215,11.873 L32.215,20.815 C32.215,21.059 32.148,21.255 32.037,21.404 C31.885,21.918 31.609,22.400 31.209,22.801 L17.098,36.989 C15.804,38.289 13.687,38.289 12.394,36.989 L1.489,26.026 C0.194,24.724 0.194,22.599 1.489,21.297 L15.601,7.109 C16.257,6.450 17.124,6.125 17.988,6.134 C18.059,6.135 18.129,6.138 18.199,6.143 L18.205,6.138 L24.363,6.138 L24.363,6.138 ZM32.191,9.080 C32.750,8.522 33.333,7.924 33.875,7.336 C35.026,6.089 35.979,4.951 35.985,4.591 C36.023,2.485 34.954,2.392 34.952,2.391 C34.943,2.391 31.820,2.042 28.723,2.042 C26.681,2.042 26.532,3.284 26.521,3.427 L26.521,3.446 L26.379,6.138 L28.889,6.138 C30.580,6.138 31.991,7.431 32.191,9.080 L32.191,9.080 ZM12.181,31.916 C11.432,31.163 11.057,30.172 11.056,29.179 L11.053,29.179 C11.053,28.188 11.429,27.198 12.181,26.442 C12.930,25.689 13.916,25.312 14.903,25.311 L14.903,25.308 C15.888,25.308 16.874,25.686 17.625,26.442 C18.377,27.198 18.753,28.188 18.753,29.179 L18.750,29.179 C18.749,30.172 18.375,31.163 17.625,31.916 C16.874,32.672 15.888,33.050 14.903,33.050 L14.903,33.046 C13.916,33.046 12.930,32.669 12.181,31.916 L12.181,31.916 ZM13.066,29.182 C13.066,29.650 13.246,30.121 13.606,30.483 C13.966,30.845 14.435,31.025 14.900,31.025 L14.903,31.023 C15.372,31.023 15.842,30.843 16.200,30.483 C16.560,30.121 16.740,29.650 16.740,29.182 L16.737,29.179 C16.737,28.707 16.558,28.235 16.200,27.875 C15.842,27.515 15.372,27.335 14.903,27.335 L14.900,27.333 C14.435,27.333 13.966,27.514 13.606,27.875 C13.248,28.235 13.069,28.707 13.069,29.179 L13.066,29.182 L13.066,29.182 ZM11.708,21.039 C10.959,20.286 10.584,19.295 10.583,18.303 L10.581,18.303 C10.581,17.312 10.956,16.321 11.708,15.566 C12.457,14.813 13.442,14.436 14.430,14.435 L14.430,14.432 C15.415,14.432 16.401,14.810 17.152,15.566 C17.904,16.321 18.280,17.312 18.280,18.303 L18.277,18.303 C18.276,19.295 17.902,20.286 17.152,21.039 C16.401,21.795 15.415,22.173 14.430,22.173 L14.430,22.170 C13.442,22.169 12.457,21.792 11.708,21.039 L11.708,21.039 ZM12.594,18.305 C12.593,18.774 12.773,19.244 13.133,19.606 C13.494,19.968 13.962,20.149 14.428,20.149 L14.430,20.146 C14.900,20.146 15.369,19.966 15.727,19.606 C16.087,19.244 16.267,18.774 16.267,18.305 L16.264,18.303 C16.264,17.831 16.085,17.359 15.727,16.999 C15.369,16.639 14.900,16.459 14.430,16.459 L14.428,16.456 C13.962,16.456 13.494,16.637 13.133,16.999 C12.776,17.359 12.596,17.831 12.596,18.303 L12.594,18.305 L12.594,18.305 Z"/>
</svg>