<svg 
 xmlns="http://www.w3.org/2000/svg"
 xmlns:xlink="http://www.w3.org/1999/xlink"
 width="32px" height="32px">
<path fill-rule="evenodd"  fill="rgb(255, 255, 255)"
 d="M2.422,10.859 L2.422,14.397 C2.422,14.897 2.833,15.311 3.331,15.311 L14.497,15.311 L14.497,9.945 L3.331,9.945 C2.833,9.945 2.422,10.359 2.422,10.859 L2.422,10.859 ZM16.518,15.311 L27.683,15.311 C27.932,15.311 28.159,15.208 28.325,15.041 L28.327,15.044 C28.491,14.878 28.593,14.649 28.593,14.397 L28.593,10.859 C28.593,10.607 28.491,10.378 28.327,10.212 L28.325,10.214 C28.159,10.048 27.932,9.945 27.683,9.945 L16.518,9.945 L16.518,15.311 L16.518,15.311 ZM16.518,17.747 L16.518,29.219 L25.966,29.219 C26.214,29.219 26.442,29.115 26.607,28.950 L26.609,28.952 C26.773,28.786 26.875,28.557 26.875,28.305 L26.875,17.747 L16.518,17.747 L16.518,17.747 ZM14.497,29.219 L14.497,17.747 L4.140,17.747 L4.140,28.305 C4.140,28.805 4.551,29.219 5.049,29.219 L14.497,29.219 L14.497,29.219 ZM29.300,17.324 L29.300,28.305 C29.300,30.147 27.799,31.655 25.966,31.655 L5.049,31.655 C3.213,31.655 1.714,30.150 1.714,28.305 L1.714,17.325 C0.733,16.776 0.054,15.742 0.000,14.549 L-0.003,14.549 L-0.003,14.397 L-0.003,10.859 L-0.003,10.706 L0.000,10.706 C0.080,8.932 1.545,7.509 3.331,7.509 L9.660,7.509 C8.959,7.315 8.318,7.135 7.858,6.999 C7.132,6.784 6.573,6.595 6.307,6.449 C6.037,6.301 5.790,6.119 5.574,5.909 C5.353,5.695 5.160,5.451 5.004,5.187 C4.482,4.306 4.400,3.393 4.617,2.579 C4.778,1.979 5.104,1.438 5.538,1.010 C5.970,0.586 6.513,0.269 7.109,0.113 C7.934,-0.103 8.852,-0.015 9.711,0.512 C10.546,1.023 10.926,1.748 11.306,2.472 C11.377,2.607 11.450,2.745 11.486,2.810 L12.534,4.706 C12.843,5.267 13.229,5.971 13.713,6.863 L14.063,7.509 L17.127,7.509 L17.302,7.186 C17.786,6.295 18.175,5.585 18.480,5.030 L19.529,3.133 C19.565,3.069 19.637,2.931 19.709,2.795 C20.089,2.072 20.469,1.347 21.304,0.836 C22.163,0.309 23.081,0.221 23.906,0.437 C24.502,0.593 25.045,0.910 25.476,1.335 C25.911,1.762 26.237,2.303 26.397,2.903 C26.615,3.717 26.532,4.629 26.011,5.511 C25.855,5.775 25.662,6.018 25.441,6.233 C25.225,6.443 24.978,6.625 24.707,6.774 C24.442,6.919 23.883,7.107 23.156,7.322 C22.969,7.378 22.751,7.441 22.512,7.509 L27.683,7.509 C29.466,7.509 30.934,8.934 31.014,10.706 L31.018,10.706 L31.018,10.859 L31.018,14.397 L31.018,14.549 L31.014,14.549 C30.960,15.739 30.281,16.773 29.300,17.324 L29.300,17.324 ZM6.741,4.156 C6.806,4.266 6.884,4.365 6.971,4.450 C7.063,4.539 7.164,4.615 7.271,4.673 C7.389,4.737 7.820,4.876 8.427,5.056 C9.171,5.276 9.961,5.495 10.789,5.724 L10.766,5.682 C9.977,4.249 9.846,4.013 9.725,3.793 C9.630,3.622 9.577,3.520 9.522,3.415 C9.272,2.939 9.021,2.461 8.661,2.241 C8.309,2.025 7.940,1.987 7.614,2.072 C7.366,2.137 7.137,2.272 6.952,2.454 C6.769,2.634 6.633,2.858 6.567,3.102 C6.483,3.419 6.522,3.786 6.741,4.156 L6.741,4.156 ZM24.044,4.774 C24.131,4.689 24.209,4.590 24.274,4.480 C24.493,4.109 24.532,3.743 24.448,3.427 C24.382,3.181 24.246,2.957 24.063,2.778 C23.878,2.596 23.649,2.461 23.401,2.396 C23.074,2.311 22.706,2.349 22.354,2.565 C21.994,2.785 21.743,3.263 21.493,3.739 C21.438,3.844 21.384,3.946 21.289,4.117 C21.168,4.336 21.037,4.573 20.249,6.006 L20.226,6.048 C21.053,5.819 21.844,5.600 22.588,5.379 C23.194,5.200 23.626,5.062 23.744,4.997 C23.851,4.938 23.951,4.863 24.044,4.774 L24.044,4.774 Z"/>
</svg>