<svg 
 xmlns="http://www.w3.org/2000/svg"
 xmlns:xlink="http://www.w3.org/1999/xlink"
 width="15px" height="18px">
<path fill-rule="evenodd"  fill="rgb(183, 180, 180)"
 d="M7.176,17.731 C4.776,15.587 0.998,12.598 0.213,9.414 C0.064,8.812 -0.010,8.198 -0.010,7.577 C-0.010,5.484 0.830,3.587 2.189,2.216 C5.121,-0.744 9.874,-0.744 12.805,2.216 C14.219,3.642 15.006,5.558 15.006,7.577 C15.006,8.198 14.932,8.812 14.784,9.414 C13.996,12.604 10.220,15.581 7.819,17.731 L7.491,18.002 L7.176,17.731 L7.176,17.731 ZM7.498,16.711 C9.609,14.865 13.159,11.935 13.840,9.179 C13.968,8.657 14.032,8.115 14.032,7.577 C14.032,5.754 13.300,4.104 12.119,2.910 C9.566,0.333 5.431,0.333 2.877,2.911 C1.695,4.105 0.964,5.755 0.964,7.577 C0.964,8.115 1.028,8.657 1.156,9.179 C1.836,11.935 5.386,14.865 7.498,16.711 L7.498,16.711 ZM5.224,7.577 C5.224,8.672 5.806,9.369 6.550,9.671 C7.142,9.913 7.854,9.913 8.445,9.671 C9.189,9.369 9.771,8.672 9.771,7.577 C9.771,6.482 9.189,5.784 8.445,5.482 C7.854,5.242 7.142,5.242 6.550,5.482 C5.806,5.784 5.224,6.482 5.224,7.577 L5.224,7.577 ZM6.188,10.581 C5.101,10.140 4.250,9.137 4.250,7.577 C4.250,6.016 5.100,5.013 6.188,4.572 C7.019,4.234 7.977,4.234 8.809,4.572 C9.895,5.013 10.745,6.016 10.745,7.577 C10.745,9.137 9.895,10.140 8.809,10.581 C7.977,10.920 7.019,10.920 6.188,10.581 L6.188,10.581 Z"/>
</svg>