<svg 
 xmlns="http://www.w3.org/2000/svg"
 xmlns:xlink="http://www.w3.org/1999/xlink"
 width="17px" height="18px">
<path fill-rule="evenodd"  fill="rgb(200, 89, 175)"
 d="M16.136,14.303 C16.063,14.111 15.807,13.959 15.434,13.678 C15.059,13.397 13.212,12.033 12.860,11.828 C12.507,11.622 12.242,11.504 11.896,11.868 C11.546,12.232 10.589,13.021 10.299,13.254 C10.009,13.486 9.764,13.476 9.388,13.196 C9.013,12.916 7.764,12.239 6.443,10.550 C5.417,9.234 4.833,7.734 4.666,7.277 C4.501,6.821 4.756,6.636 4.997,6.468 C5.217,6.314 5.497,6.059 5.745,5.856 C5.996,5.651 6.095,5.491 6.282,5.240 C6.469,4.988 6.444,4.735 6.377,4.510 C6.312,4.286 5.852,2.105 5.658,1.215 C5.465,0.327 5.115,0.297 4.874,0.254 C4.634,0.211 4.177,0.202 4.177,0.202 C4.177,0.202 3.332,0.158 2.881,0.503 C2.430,0.847 1.186,1.657 0.821,3.687 C0.455,5.719 1.577,7.950 1.733,8.263 C1.890,8.575 3.759,13.357 7.649,15.764 C11.541,18.171 11.640,17.619 12.408,17.685 C13.174,17.755 15.024,17.127 15.541,16.222 C16.059,15.320 16.207,14.492 16.136,14.303 L16.136,14.303 Z"/>
</svg>