<svg 
 xmlns="http://www.w3.org/2000/svg"
 xmlns:xlink="http://www.w3.org/1999/xlink"
 width="36px" height="36px">
<path fill-rule="evenodd"  fill="rgb(255, 255, 255)"
 d="M17.1000,35.1000 C8.059,35.1000 -0.000,27.941 -0.000,17.1000 C-0.000,8.059 8.059,-0.000 17.1000,-0.000 C27.941,-0.000 35.1000,8.059 35.1000,17.1000 C35.1000,27.941 27.941,35.1000 17.1000,35.1000 ZM17.1000,2.062 C9.198,2.062 2.062,9.198 2.062,17.1000 C2.062,26.802 9.198,33.937 17.1000,33.937 C26.802,33.937 33.937,26.802 33.937,17.1000 C33.937,9.198 26.802,2.062 17.1000,2.062 ZM25.619,18.016 L25.618,18.018 C25.599,18.293 25.099,18.636 23.924,19.348 C21.582,20.656 18.879,22.139 16.171,23.732 C14.667,24.617 14.507,24.462 14.541,22.248 C14.627,18.312 14.627,17.690 14.541,13.754 C14.507,11.541 14.667,11.386 16.171,12.270 C18.879,13.863 21.582,15.347 23.924,16.655 C25.099,17.367 25.599,17.710 25.618,17.984 L25.619,17.987 L25.619,17.995 L25.619,18.001 L25.619,18.007 L25.619,18.016 Z"/>
</svg>
