<svg 
 xmlns="http://www.w3.org/2000/svg"
 xmlns:xlink="http://www.w3.org/1999/xlink"
 width="14px" height="14px">
<path fill-rule="evenodd"  fill="rgb(255, 255, 255)"
 d="M13.689,11.782 L11.114,9.214 C11.700,8.287 12.039,7.190 12.039,6.013 C12.039,2.697 9.343,0.008 6.017,0.008 C2.691,0.008 -0.005,2.697 -0.005,6.013 C-0.005,9.330 2.691,12.019 6.017,12.019 C7.190,12.019 8.284,11.684 9.210,11.106 L11.789,13.677 C12.200,14.088 12.868,14.088 13.279,13.677 L13.689,13.269 C14.101,12.858 14.101,12.192 13.689,11.782 ZM6.017,10.357 C3.612,10.357 1.662,8.412 1.662,6.013 C1.662,3.615 3.612,1.670 6.017,1.670 C8.423,1.670 10.373,3.615 10.373,6.013 C10.373,8.412 8.423,10.357 6.017,10.357 Z"/>
</svg>