<svg 
 xmlns="http://www.w3.org/2000/svg"
 xmlns:xlink="http://www.w3.org/1999/xlink"
 width="29px" height="33px">
<path fill-rule="evenodd"  fill="rgb(200, 89, 175)"
 d="M28.863,25.980 C28.730,25.628 28.262,25.350 27.580,24.838 C26.895,24.324 23.520,21.832 22.877,21.457 C22.232,21.081 21.749,20.866 21.115,21.530 C20.477,22.195 18.728,23.636 18.197,24.062 C17.668,24.487 17.220,24.469 16.534,23.956 C15.848,23.445 13.565,22.207 11.153,19.122 C9.277,16.718 8.210,13.977 7.905,13.142 C7.603,12.308 8.070,11.970 8.510,11.662 C8.912,11.382 9.423,10.917 9.878,10.546 C10.335,10.171 10.517,9.877 10.858,9.419 C11.200,8.959 11.154,8.497 11.032,8.086 C10.913,7.676 10.073,3.690 9.717,2.064 C9.365,0.443 8.727,0.387 8.285,0.308 C7.848,0.230 7.011,0.215 7.011,0.215 C7.011,0.215 5.468,0.133 4.644,0.763 C3.820,1.393 1.546,2.873 0.879,6.581 C0.212,10.295 2.261,14.372 2.547,14.942 C2.833,15.513 6.247,24.251 13.357,28.650 C20.467,33.047 20.648,32.038 22.051,32.160 C23.451,32.287 26.832,31.139 27.777,29.486 C28.722,27.838 28.993,26.325 28.863,25.980 L28.863,25.980 Z"/>
</svg>