<svg 
 xmlns="http://www.w3.org/2000/svg"
 xmlns:xlink="http://www.w3.org/1999/xlink"
 width="16px" height="16px">
<path fill-rule="evenodd" fill="rgb(255, 255, 255)"
 d="M13.151,2.717 C13.151,1.210 11.953,-0.011 10.475,-0.011 L2.680,-0.011 C1.202,-0.011 0.004,1.210 0.004,2.717 L0.004,7.570 C0.004,9.076 1.202,10.297 2.680,10.297 L3.320,10.297 L2.883,13.412 L7.250,10.297 L10.475,10.297 C11.953,10.297 13.151,9.076 13.151,7.570 L13.151,2.717 ZM15.923,5.317 C15.923,4.233 15.303,3.299 14.406,2.859 L14.406,6.712 L14.400,6.701 L14.400,8.642 C14.400,10.149 13.202,11.370 11.724,11.370 L8.232,11.370 L5.877,12.897 L8.841,12.897 L13.609,15.989 L13.175,12.897 L13.247,12.897 C14.725,12.897 15.923,11.676 15.923,10.170 L15.923,5.317 ZM10.076,8.202 L2.996,8.202 C2.717,8.202 2.491,7.972 2.491,7.686 C2.491,7.402 2.717,7.171 2.996,7.171 L10.076,7.171 C10.355,7.171 10.581,7.402 10.581,7.686 C10.581,7.972 10.355,8.202 10.076,8.202 ZM10.076,5.620 L2.996,5.620 C2.717,5.620 2.491,5.389 2.491,5.105 C2.491,4.820 2.717,4.589 2.996,4.589 L10.076,4.589 C10.355,4.589 10.581,4.820 10.581,5.105 C10.581,5.389 10.355,5.620 10.076,5.620 ZM10.076,3.075 L2.996,3.075 C2.717,3.075 2.491,2.844 2.491,2.559 C2.491,2.274 2.717,2.044 2.996,2.044 L10.076,2.044 C10.355,2.044 10.581,2.274 10.581,2.559 C10.581,2.844 10.355,3.075 10.076,3.075 Z"/>
</svg>