<svg 
 xmlns="http://www.w3.org/2000/svg"
 xmlns:xlink="http://www.w3.org/1999/xlink"
 width="15px" height="16px">
<path fill-rule="evenodd" fill="rgb(255, 255, 255)"
 d="M7.012,16.015 C5.575,14.794 4.236,13.660 2.740,12.520 C1.068,11.248 -0.012,9.240 -0.012,6.986 C-0.012,3.135 3.133,0.013 7.012,0.013 C10.891,0.013 14.036,3.135 14.036,6.986 C14.036,9.223 12.974,11.215 11.326,12.489 C9.816,13.657 8.474,14.764 7.012,16.015 L7.012,16.015 ZM7.012,9.674 C8.508,9.674 9.720,8.470 9.720,6.986 C9.720,5.501 8.508,4.298 7.012,4.298 C5.516,4.298 4.305,5.501 4.305,6.986 C4.305,8.470 5.517,9.674 7.012,9.674 L7.012,9.674 Z"/>
</svg>