<svg 
 xmlns="http://www.w3.org/2000/svg"
 xmlns:xlink="http://www.w3.org/1999/xlink"
 width="31px" height="30px" transform="scale(0.5, 0.5)">
<path fill-rule="evenodd" fill="rgb(255, 255, 255)"
 d="M16.531,29.280 L26.531,29.280 C27.144,29.280 28.531,27.894 28.531,27.280 L28.531,19.280 L16.503,19.340 L16.531,29.280 ZM2.531,27.280 C2.531,27.894 3.918,29.280 4.531,29.280 L14.531,29.280 L14.531,19.280 L2.531,19.280 L2.531,27.280 ZM0.925,11.929 L0.925,14.431 C0.925,15.475 2.531,15.280 2.531,15.280 L2.531,17.281 L14.531,17.281 L14.531,11.280 L2.531,11.280 C1.917,11.280 0.925,11.316 0.925,11.929 ZM25.530,2.150 C25.530,2.150 20.660,-4.627 15.894,7.001 C11.128,-4.627 6.259,2.150 6.259,2.150 C0.040,12.627 31.749,12.627 25.530,2.150 ZM30.052,11.929 C30.052,11.316 29.144,11.280 28.531,11.280 L16.531,11.280 L16.531,17.281 L28.531,17.281 L28.531,15.280 C29.118,15.252 30.052,15.025 30.052,14.431 L30.052,11.929 ZM16.630,9.040 C20.566,1.672 22.531,3.280 22.531,3.280 C23.660,6.219 16.630,9.040 16.630,9.040 ZM8.531,3.280 C8.531,3.280 11.219,1.683 15.140,9.004 C13.057,8.131 6.989,7.294 8.531,3.280 Z"/>
</svg>