<svg 
 xmlns="http://www.w3.org/2000/svg"
 xmlns:xlink="http://www.w3.org/1999/xlink"
 width="17px" height="15px">
<path fill-rule="evenodd"  fill="rgb(255, 255, 255)"
 d="M7.976,14.596 C7.443,15.090 6.587,15.097 6.064,14.611 L0.376,9.332 C-0.147,8.846 -0.140,8.052 0.393,7.558 L8.586,0.005 L16.053,0.005 L16.071,6.926 L7.976,14.596 ZM6.781,11.813 L11.994,6.974 L11.520,6.534 L6.307,11.373 L6.781,11.813 ZM8.677,3.895 L3.463,8.734 L3.937,9.174 L9.151,4.335 L8.677,3.895 ZM10.099,5.214 L4.885,10.053 L5.359,10.493 L10.573,5.654 L10.099,5.214 ZM12.733,1.892 C11.993,1.892 11.393,2.449 11.393,3.136 C11.393,3.823 11.993,4.381 12.733,4.381 C13.474,4.381 14.074,3.823 14.074,3.136 C14.074,2.449 13.474,1.892 12.733,1.892 Z"/>
</svg>