<svg 
 xmlns="http://www.w3.org/2000/svg"
 xmlns:xlink="http://www.w3.org/1999/xlink"
 width="17px" height="22px">
<path fill-rule="evenodd"  fill="rgb(255, 255, 255)"
 d="M7.082,19.054 C7.080,19.047 7.079,19.040 7.079,19.033 C6.896,18.925 6.729,18.794 6.580,18.645 C6.124,18.189 5.842,17.558 5.842,16.862 C5.842,16.600 6.054,16.388 6.315,16.388 C6.575,16.388 6.787,16.600 6.787,16.862 C6.787,17.296 6.963,17.691 7.248,17.976 C7.532,18.262 7.926,18.438 8.361,18.438 C8.795,18.438 9.188,18.262 9.474,17.976 C9.758,17.691 9.935,17.296 9.935,16.862 C9.935,16.600 10.145,16.388 10.407,16.388 C10.667,16.388 10.878,16.600 10.878,16.862 C10.878,17.527 10.621,18.133 10.200,18.583 C10.295,18.693 10.403,18.777 10.517,18.821 C10.593,18.850 10.674,18.861 10.758,18.850 C10.854,18.838 10.960,18.796 11.078,18.718 C11.500,18.439 11.972,17.776 12.451,16.533 C12.544,16.290 12.817,16.169 13.060,16.263 C13.301,16.356 13.422,16.630 13.329,16.873 C12.771,18.321 12.168,19.128 11.599,19.505 C11.356,19.665 11.113,19.754 10.876,19.785 C10.629,19.817 10.395,19.784 10.178,19.700 C9.890,19.589 9.640,19.391 9.439,19.142 C9.111,19.297 8.746,19.384 8.361,19.384 C8.292,19.384 8.225,19.381 8.158,19.376 C8.423,20.023 9.115,21.083 10.806,21.043 C11.677,21.023 12.435,20.325 13.062,19.391 C14.209,17.680 14.887,15.215 15.104,14.326 C15.165,14.073 15.420,13.918 15.672,13.980 C15.924,14.041 16.079,14.296 16.018,14.549 C15.791,15.483 15.074,18.079 13.843,19.916 C13.060,21.084 12.063,21.957 10.825,21.985 C7.587,22.060 7.083,19.063 7.082,19.054 L7.082,19.054 ZM1.337,7.642 C2.294,6.652 3.431,6.310 4.657,6.224 C5.195,6.186 12.577,6.239 12.836,6.274 C13.874,6.415 14.836,6.786 15.662,7.642 C16.865,9.447 15.921,11.363 14.495,12.615 C13.996,13.022 13.158,13.261 12.387,13.100 C11.739,12.964 11.332,12.364 11.048,11.883 C10.433,10.843 9.857,8.142 8.745,7.720 L8.255,7.720 C7.142,8.142 6.566,10.843 5.951,11.883 C5.668,12.364 5.260,12.964 4.612,13.100 C3.841,13.261 3.003,13.022 2.506,12.615 C1.078,11.363 0.134,9.447 1.337,7.642 L1.337,7.642 ZM8.500,5.449 C6.560,5.434 4.620,5.435 4.153,5.501 C4.425,4.695 6.482,4.101 8.499,4.064 C9.440,4.064 12.480,4.417 12.847,5.501 C12.379,5.435 10.439,5.434 8.500,5.449 L8.500,5.449 ZM8.116,3.183 C4.420,3.552 3.845,4.629 3.390,5.332 C3.215,5.343 2.709,5.597 2.251,5.822 C-0.945,7.191 -0.393,11.685 1.861,13.213 C3.720,14.474 5.237,14.030 6.039,13.363 C6.155,13.751 6.271,14.139 6.387,14.527 C6.485,15.038 6.096,15.046 5.049,15.054 C4.331,15.061 4.701,14.768 4.335,14.416 C3.990,14.083 3.056,14.741 4.252,15.547 C4.575,15.763 12.424,15.763 12.747,15.547 C13.944,14.741 13.010,14.083 12.664,14.416 C12.299,14.768 12.668,15.061 11.952,15.054 C10.903,15.046 10.514,15.038 10.612,14.527 C10.728,14.139 10.844,13.751 10.961,13.363 C11.763,14.030 13.279,14.474 15.138,13.213 C17.392,11.685 17.944,7.191 14.748,5.822 C14.290,5.597 13.785,5.343 13.610,5.332 C13.153,4.629 12.579,3.552 8.883,3.183 C8.582,3.207 8.418,3.207 8.116,3.183 L8.116,3.183 ZM8.500,14.741 C7.977,14.724 7.465,14.484 7.202,14.015 C6.655,13.039 7.551,10.396 7.990,9.376 C8.369,8.500 8.631,8.500 9.009,9.376 C9.448,10.396 10.344,13.039 9.797,14.015 C9.534,14.484 9.023,14.724 8.500,14.741 L8.500,14.741 ZM14.750,4.643 C14.750,4.903 14.539,5.115 14.278,5.115 C14.018,5.115 13.806,4.903 13.806,4.643 L13.806,0.986 C13.806,0.712 13.917,0.463 14.097,0.283 C14.277,0.103 14.526,-0.008 14.799,-0.008 L15.512,-0.008 C15.785,-0.008 16.033,0.103 16.212,0.283 L16.214,0.285 C16.394,0.465 16.505,0.714 16.505,0.986 L16.505,5.509 C16.505,5.771 16.294,5.982 16.033,5.982 C15.772,5.982 15.561,5.771 15.561,5.509 L15.561,0.986 C15.561,0.972 15.556,0.960 15.547,0.951 C15.538,0.943 15.526,0.938 15.512,0.938 L14.799,0.938 C14.786,0.938 14.774,0.943 14.765,0.952 C14.756,0.961 14.750,0.973 14.750,0.986 L14.750,4.643 L14.750,4.643 Z"/>
</svg>