<svg xmlns="http://www.w3.org/2000/svg">
  <symbol id="cart" viewBox="0 0 19 17">
    <path fill-rule="evenodd"  d="M10.681,16.999 C11.489,16.999 12.145,16.297 12.145,15.433 C12.145,14.569 11.489,13.867 10.681,13.867 C9.872,13.867 9.216,14.569 9.216,15.433 C9.216,16.297 9.872,16.999 10.681,16.999 ZM5.394,16.999 C6.202,16.999 6.858,16.297 6.858,15.433 C6.858,14.569 6.202,13.867 5.394,13.867 C4.585,13.867 3.929,14.569 3.929,15.433 C3.929,16.297 4.585,16.999 5.394,16.999 ZM17.157,0.013 C17.157,0.013 14.690,0.139 15.381,0.026 C14.977,0.036 14.601,0.306 14.453,0.735 L13.427,3.710 L0.866,3.710 C-0.290,3.710 -0.290,5.880 0.866,5.880 L12.678,5.880 L12.239,7.152 L1.855,7.152 C0.699,7.152 0.699,9.324 1.855,9.324 L11.491,9.324 L11.031,10.657 L3.394,10.657 C2.238,10.657 2.238,12.828 3.394,12.828 L11.718,12.828 C12.019,12.828 12.290,12.687 12.476,12.466 C12.574,12.359 12.654,12.228 12.705,12.079 L16.118,2.184 L17.157,2.184 C18.312,2.184 18.312,0.013 17.157,0.013 Z"/>
  </symbol>

  <symbol id="one-click" viewBox="0 0 18 22">
    <path fill-rule="evenodd" d="M7.618,20.651 C7.879,20.868 8.252,20.912 8.573,20.784 L8.573,20.785 C9.061,20.264 9.803,21.058 9.316,21.582 L9.205,21.702 C8.634,22.255 7.368,21.927 6.828,21.398 C6.823,21.394 6.819,21.387 6.815,21.381 L0.624,14.739 C-1.293,12.682 1.624,9.552 3.542,11.610 L4.650,12.798 L4.650,4.569 C4.650,1.660 8.776,1.660 8.776,4.569 L8.776,6.732 C9.930,6.033 11.413,6.681 11.773,8.070 C12.880,7.327 14.360,7.872 14.805,9.206 C16.153,8.252 17.999,9.281 17.999,11.055 L17.999,18.942 C17.999,19.816 17.161,20.902 16.300,20.905 C15.609,20.905 15.609,19.778 16.300,19.778 C16.436,19.776 16.894,19.353 16.949,18.969 C16.852,16.421 16.948,13.630 16.948,11.055 C16.948,9.658 14.982,9.613 14.926,11.008 L14.925,13.533 C14.925,14.275 13.874,14.275 13.874,13.533 L13.874,9.948 C13.874,8.638 12.084,8.468 11.867,9.755 L11.847,12.709 C11.847,13.451 10.796,13.451 10.796,12.709 L10.796,8.660 C10.796,7.280 8.863,7.211 8.776,8.587 L8.776,10.911 C8.776,11.654 7.725,11.654 7.725,10.911 L7.722,8.665 C7.722,7.299 7.725,5.935 7.725,4.569 C7.725,3.144 5.701,3.144 5.701,4.569 C5.701,8.222 5.705,11.874 5.705,15.524 L2.798,12.406 C1.859,11.399 0.428,12.934 1.368,13.941 L7.379,20.391 C7.456,20.474 7.549,20.563 7.618,20.651 L7.618,20.651 ZM9.905,5.174 C10.223,3.099 8.737,1.197 6.761,1.197 C5.002,1.197 3.575,2.728 3.575,4.616 C3.576,5.145 3.691,5.606 3.896,6.093 L3.966,6.257 L3.987,8.146 C3.987,8.168 3.956,8.119 3.941,8.104 C3.005,7.233 2.457,5.968 2.457,4.616 C2.457,2.065 4.384,-0.001 6.761,-0.001 C9.138,-0.001 11.066,2.065 11.066,4.616 C11.066,4.994 11.023,5.361 10.943,5.712 C10.843,5.588 10.289,5.174 9.905,5.174 L9.905,5.174 Z"/>
  </symbol>

  <symbol id="self-pickup" viewBox="0 0 32 36">
    <path fill-rule="evenodd" d="M16.690,34.428 L24.071,30.903 L24.071,11.187 L16.690,14.712 L16.690,34.428 L16.690,34.428 ZM24.947,30.492 L30.705,27.858 L30.705,8.142 L24.947,10.776 L24.947,30.492 L24.947,30.492 ZM23.498,10.487 L9.554,3.960 L1.967,7.454 L15.901,13.986 L23.498,10.487 L23.498,10.487 ZM10.600,3.478 L24.549,10.004 L30.099,7.448 L16.170,0.914 L10.600,3.478 L10.600,3.478 ZM31.326,28.539 L16.462,35.507 C16.400,35.541 16.328,35.561 16.252,35.561 C16.172,35.561 16.098,35.540 16.033,35.502 C15.969,35.540 15.894,35.561 15.814,35.561 C15.739,35.561 15.667,35.541 15.604,35.507 L0.741,28.539 C0.581,28.464 0.487,28.306 0.487,28.139 L0.486,28.139 L0.486,7.451 C0.486,7.259 0.607,7.096 0.777,7.035 L15.969,0.039 C16.085,-0.023 16.227,-0.031 16.355,0.029 L31.300,7.039 C31.464,7.102 31.581,7.263 31.581,7.451 L31.581,28.139 L31.580,28.139 C31.580,28.306 31.485,28.464 31.326,28.539 L31.326,28.539 ZM15.376,14.716 L1.362,8.143 L1.362,27.858 L15.376,34.428 L15.376,14.716 L15.376,14.716 Z"/>
  </symbol>

  <symbol id="delivery" viewBox="0 0 38 38">
    <path fill-rule="evenodd" d="M30.807,27.878 L30.821,27.851 L30.807,27.878 L30.807,27.878 ZM15.310,35.105 L15.324,35.077 L15.310,35.105 L15.310,35.105 ZM23.396,29.553 L30.064,26.366 C30.154,25.986 30.273,25.622 30.416,25.288 C30.632,24.781 30.907,24.339 31.218,24.007 C31.856,23.282 32.466,23.345 32.641,23.370 C32.870,23.402 33.084,23.492 33.275,23.643 C33.487,23.809 33.668,24.046 33.811,24.340 C33.840,24.402 33.869,24.467 33.895,24.535 L37.144,22.982 L37.144,8.609 L23.396,15.180 L23.396,29.553 L23.396,29.553 ZM3.053,25.827 C2.432,25.547 2.471,25.439 2.626,24.854 C2.853,23.995 3.092,23.139 3.325,22.281 C3.573,21.630 3.653,21.201 4.636,21.670 C6.586,22.601 8.537,23.531 10.487,24.461 C10.646,24.633 10.892,24.954 10.593,25.844 L9.751,28.350 C9.572,28.898 9.299,28.799 8.807,28.584 C8.718,28.546 8.629,28.505 8.541,28.465 C6.708,27.639 4.858,26.683 3.053,25.827 L3.053,25.827 ZM9.092,27.738 C9.385,26.890 9.679,26.043 9.972,25.195 C8.026,24.265 6.080,23.334 4.134,22.403 L3.447,25.040 L9.092,27.738 L9.092,27.738 ZM11.406,35.396 L14.563,33.611 C14.654,33.225 14.775,32.854 14.919,32.515 C15.135,32.008 15.410,31.565 15.721,31.232 C16.359,30.509 16.969,30.572 17.144,30.596 C17.373,30.628 17.587,30.718 17.779,30.869 C17.976,31.025 18.147,31.240 18.285,31.507 L18.773,31.232 L19.006,19.134 L13.554,24.115 L11.406,31.413 L11.406,35.396 L11.406,35.396 ZM17.261,23.299 L15.448,24.929 L14.588,28.380 L17.266,26.648 L17.261,23.299 L17.261,23.299 ZM14.781,24.358 L17.405,22.000 L17.406,22.000 C17.481,21.932 17.580,21.891 17.687,21.891 C17.924,21.891 18.115,22.088 18.115,22.331 L18.122,26.872 C18.128,27.024 18.057,27.176 17.922,27.263 L14.160,29.699 C14.060,29.773 13.930,29.804 13.800,29.770 C13.571,29.710 13.432,29.470 13.490,29.233 L14.647,24.580 L14.649,24.581 C14.669,24.497 14.713,24.419 14.781,24.358 L14.781,24.358 ZM6.820,34.709 C6.656,34.867 6.483,34.995 6.303,35.087 C6.082,35.199 5.863,35.254 5.652,35.254 C5.410,35.254 5.185,35.185 4.981,35.055 L3.364,34.282 C2.960,34.146 2.635,33.798 2.425,33.363 C2.277,33.058 2.179,32.715 2.122,32.353 L0.245,31.411 C0.088,31.336 -0.005,31.177 -0.005,31.010 L-0.005,31.010 L-0.005,26.666 L2.143,18.756 C2.143,18.565 2.262,18.402 2.428,18.341 L7.501,14.189 L7.501,7.917 C7.501,7.726 7.620,7.563 7.786,7.502 L22.689,0.504 C22.802,0.442 22.942,0.434 23.068,0.494 L37.728,7.505 C37.889,7.569 38.003,7.729 38.003,7.917 L38.003,23.262 L38.003,23.262 C38.003,23.429 37.909,23.588 37.753,23.663 L34.117,25.401 C34.152,25.646 34.171,25.912 34.171,26.192 C34.171,27.120 33.965,28.068 33.631,28.849 C33.281,29.669 32.781,30.320 32.213,30.609 C31.991,30.723 31.772,30.777 31.561,30.777 C31.320,30.777 31.095,30.709 30.891,30.579 L29.274,29.806 C28.869,29.669 28.545,29.322 28.334,28.887 C28.241,28.695 28.168,28.488 28.112,28.271 L23.173,30.632 C23.112,30.667 23.041,30.686 22.966,30.686 C22.888,30.686 22.815,30.664 22.752,30.627 C22.689,30.664 22.615,30.686 22.537,30.686 C22.462,30.686 22.393,30.667 22.331,30.632 L19.670,29.360 L19.632,31.512 L19.631,31.512 C19.631,31.679 19.539,31.839 19.382,31.913 L18.574,32.362 C18.639,32.680 18.675,33.035 18.675,33.418 C18.675,34.347 18.468,35.295 18.134,36.076 C17.785,36.894 17.284,37.547 16.716,37.836 C16.495,37.949 16.276,38.004 16.065,38.004 C15.823,38.004 15.599,37.935 15.394,37.805 L13.777,37.032 C13.373,36.896 13.048,36.548 12.837,36.113 C12.768,35.967 12.708,35.814 12.659,35.653 L11.182,36.475 C11.121,36.510 11.050,36.529 10.976,36.529 C10.897,36.529 10.824,36.508 10.761,36.470 C10.698,36.508 10.625,36.529 10.546,36.529 C10.472,36.529 10.402,36.510 10.340,36.475 L6.820,34.709 L6.820,34.709 ZM8.360,13.485 L9.035,12.933 C9.149,12.872 9.288,12.863 9.414,12.923 L19.590,18.030 C19.751,18.094 19.865,18.254 19.865,18.442 L19.687,28.396 L22.107,29.553 L22.107,15.184 L8.360,8.609 L8.360,13.485 L8.360,13.485 ZM3.144,32.866 C3.160,32.902 3.175,32.938 3.193,32.973 C3.258,33.109 3.357,33.266 3.486,33.364 L3.665,33.450 L3.689,33.455 L3.691,33.463 L4.109,33.663 C4.081,33.551 4.056,33.435 4.036,33.313 L3.144,32.866 L3.144,32.866 ZM5.072,33.833 L5.096,33.884 C5.178,34.056 5.276,34.187 5.382,34.271 C5.464,34.335 5.556,34.371 5.652,34.371 C5.735,34.371 5.826,34.347 5.924,34.296 L5.959,34.278 L5.072,33.833 L5.072,33.833 ZM14.397,34.686 L13.432,35.224 C13.474,35.402 13.532,35.570 13.606,35.723 C13.672,35.860 13.770,36.016 13.899,36.114 L14.078,36.200 L14.102,36.204 L14.103,36.212 L14.522,36.412 C14.430,36.049 14.379,35.631 14.379,35.172 C14.379,35.010 14.385,34.848 14.397,34.686 L14.397,34.686 ZM16.989,31.469 C16.907,31.469 16.815,31.494 16.716,31.544 C16.335,31.738 15.976,32.230 15.704,32.866 C15.417,33.540 15.238,34.362 15.238,35.172 C15.238,35.781 15.338,36.282 15.509,36.634 C15.592,36.806 15.689,36.937 15.795,37.021 C15.878,37.085 15.970,37.121 16.065,37.121 C16.147,37.121 16.239,37.096 16.337,37.046 C16.718,36.852 17.078,36.360 17.350,35.724 C17.638,35.049 17.815,34.228 17.815,33.418 C17.815,32.809 17.716,32.308 17.545,31.956 C17.462,31.784 17.365,31.653 17.259,31.570 C17.176,31.504 17.085,31.469 16.989,31.469 L16.989,31.469 ZM12.780,23.389 L18.412,18.439 L9.232,13.808 L3.596,18.760 L12.780,23.389 L12.780,23.389 ZM12.265,24.119 L3.002,19.448 L0.854,27.687 L0.854,30.730 L10.116,35.396 L10.116,31.136 L12.265,24.119 L12.265,24.119 ZM29.897,27.418 L28.905,27.892 C28.949,28.109 29.015,28.313 29.103,28.497 C29.168,28.633 29.266,28.790 29.395,28.888 L29.575,28.973 L29.599,28.979 L29.600,28.986 L30.019,29.186 C29.926,28.823 29.875,28.405 29.875,27.945 C29.875,27.770 29.883,27.594 29.897,27.418 L29.897,27.418 ZM32.486,24.243 C32.403,24.243 32.311,24.267 32.213,24.317 C31.832,24.512 31.473,25.003 31.201,25.640 C30.913,26.314 30.734,27.136 30.734,27.945 C30.734,28.554 30.835,29.055 31.006,29.407 C31.089,29.579 31.186,29.710 31.292,29.794 C31.375,29.859 31.465,29.894 31.561,29.894 C31.644,29.894 31.736,29.870 31.834,29.820 C32.215,29.625 32.575,29.134 32.846,28.497 C33.133,27.823 33.312,27.001 33.312,26.192 C33.312,25.583 33.212,25.082 33.041,24.729 C32.959,24.557 32.862,24.427 32.755,24.343 C32.673,24.278 32.581,24.243 32.486,24.243 L32.486,24.243 ZM22.623,14.455 L36.550,7.914 L22.886,1.379 L8.954,7.921 L22.623,14.455 L22.623,14.455 Z"/>
  </symbol>

  <symbol id="manufacturer" viewBox="0 0 20 21">
    <path fill-rule="evenodd" fill="currentColor" d="M14.608,5.494 C16.067,6.364 17.737,6.927 19.435,7.021 C19.766,7.039 20.020,7.325 20.002,7.658 C20.002,9.278 19.498,11.801 18.861,13.287 C18.136,14.976 16.489,16.985 14.608,17.353 L14.607,17.353 C12.726,16.985 11.079,14.976 10.355,13.287 C9.718,11.801 9.213,9.278 9.213,7.658 C9.195,7.325 9.449,7.039 9.780,7.021 C11.479,6.927 13.148,6.364 14.607,5.494 L14.608,5.494 L14.608,5.494 ZM5.315,6.310 C4.523,6.310 4.523,5.098 5.315,5.098 L10.372,5.098 C11.163,5.098 11.163,6.310 10.372,6.310 L5.315,6.310 L5.315,6.310 ZM15.962,19.792 C16.483,19.792 16.906,19.365 16.906,18.841 L16.906,17.940 C16.906,17.143 18.109,17.143 18.109,17.940 L18.109,18.841 C18.109,20.029 17.142,21.005 15.962,21.005 C11.354,21.005 6.747,21.005 2.139,21.005 C0.960,21.005 -0.009,20.029 -0.009,18.841 L-0.009,2.161 C-0.009,0.972 0.960,-0.003 2.139,-0.003 L15.962,-0.003 C17.141,-0.003 18.109,0.972 18.109,2.161 L18.109,4.651 C18.109,5.448 16.906,5.448 16.906,4.651 L16.906,2.161 C16.906,1.636 16.483,1.209 15.962,1.209 L2.139,1.209 C1.619,1.209 1.195,1.636 1.195,2.161 L1.195,18.841 C1.195,19.365 1.619,19.792 2.139,19.792 C6.747,19.792 11.354,19.792 15.962,19.792 L15.962,19.792 ZM5.315,9.342 C4.523,9.342 4.523,8.130 5.315,8.130 L7.935,8.130 C8.726,8.130 8.726,9.342 7.935,9.342 L5.315,9.342 L5.315,9.342 ZM5.315,12.410 C4.523,12.410 4.523,11.198 5.315,11.198 L8.476,11.198 C9.268,11.198 9.268,12.410 8.476,12.410 L5.315,12.410 L5.315,12.410 ZM14.607,14.683 L14.620,14.677 L14.620,11.406 L12.245,11.406 C12.663,12.746 13.343,13.999 14.607,14.683 L14.607,14.683 ZM16.969,11.406 C17.201,10.665 17.347,9.897 17.448,9.128 C16.472,8.919 15.524,8.594 14.620,8.170 L14.620,11.406 L16.969,11.406 L16.969,11.406 ZM14.608,16.073 C16.162,15.455 17.139,14.247 17.756,12.808 C18.365,11.387 18.634,9.736 18.761,8.177 C17.314,8.013 15.897,7.551 14.608,6.874 C13.318,7.551 11.901,8.013 10.454,8.177 C10.581,9.736 10.851,11.387 11.460,12.808 C12.077,14.247 13.053,15.455 14.608,16.073 L14.608,16.073 Z"/>
  </symbol>
  
  <symbol id="certificate" viewBox="0 0 21 23">
    <path fill-rule="evenodd" fill="currentColor" d="M14.189,20.845 L13.509,22.580 C13.456,22.742 13.336,22.880 13.169,22.949 C12.311,23.306 12.180,21.777 12.030,21.707 C12.007,21.697 11.109,21.923 10.948,21.961 C10.395,22.103 9.970,21.426 10.350,20.971 L11.983,19.004 L12.400,18.448 L12.260,18.408 C11.927,18.330 11.715,18.003 11.800,17.657 C11.836,17.516 11.981,16.982 11.961,16.903 C11.942,16.832 11.555,16.442 11.455,16.335 C11.231,16.099 11.230,15.721 11.455,15.483 C11.988,14.921 11.987,14.913 11.819,14.235 C11.723,13.821 11.860,13.526 12.277,13.405 C12.691,13.285 12.892,13.227 12.938,13.180 C12.991,13.124 13.113,12.627 13.150,12.488 C13.228,12.153 13.551,11.942 13.880,12.027 C14.017,12.063 14.538,12.213 14.615,12.192 C14.917,12.109 15.104,11.481 15.607,11.500 C16.150,11.500 16.268,12.102 16.598,12.192 C16.675,12.213 17.196,12.063 17.333,12.027 C17.663,11.942 17.985,12.153 18.063,12.488 C18.101,12.627 18.222,13.124 18.276,13.180 C18.322,13.227 18.523,13.285 18.937,13.405 C19.354,13.526 19.491,13.821 19.395,14.235 C19.227,14.913 19.225,14.921 19.758,15.483 C19.984,15.721 19.983,16.099 19.758,16.335 C19.659,16.442 19.271,16.832 19.253,16.903 C19.232,16.982 19.378,17.516 19.413,17.657 C19.532,18.137 19.189,18.341 18.814,18.448 L19.231,19.004 L20.864,20.971 C21.244,21.426 20.819,22.103 20.266,21.961 C20.105,21.923 19.206,21.697 19.183,21.707 C19.033,21.777 18.902,23.306 18.045,22.949 C17.878,22.880 17.758,22.742 17.704,22.580 L17.024,20.845 C16.763,20.176 16.655,20.023 16.461,19.739 C16.206,19.971 15.973,20.334 15.607,20.319 C15.220,20.319 15.014,19.976 14.753,19.739 C14.559,20.023 14.450,20.176 14.189,20.845 L14.189,20.845 ZM5.278,6.377 C4.493,6.377 4.493,5.151 5.278,5.151 L12.690,5.151 C13.474,5.151 13.474,6.377 12.690,6.377 L5.278,6.377 L5.278,6.377 ZM5.278,9.440 C4.493,9.440 4.493,8.215 5.278,8.215 L12.690,8.215 C13.474,8.215 13.474,9.440 12.690,9.440 L5.278,9.440 L5.278,9.440 ZM5.278,12.541 C4.493,12.541 4.493,11.315 5.278,11.315 L9.780,11.315 C10.564,11.315 10.564,12.541 9.780,12.541 L5.278,12.541 L5.278,12.541 ZM2.129,-0.002 L15.839,-0.002 C17.009,-0.002 17.969,0.983 17.969,2.184 L17.969,9.891 C17.969,10.229 17.702,10.504 17.372,10.504 C17.043,10.504 16.776,10.229 16.776,9.891 L16.776,2.184 C16.776,1.653 16.356,1.223 15.839,1.223 L2.129,1.223 C1.880,1.223 1.642,1.324 1.465,1.505 C1.297,1.679 1.192,1.920 1.192,2.184 L1.192,19.038 C1.192,19.294 1.291,19.538 1.467,19.719 C1.637,19.892 1.871,20.000 2.129,20.000 L8.568,20.000 C9.353,20.000 9.353,21.225 8.568,21.225 L2.129,21.225 C0.959,21.225 -0.002,20.239 -0.002,19.038 L-0.002,2.184 C-0.002,0.983 0.959,-0.002 2.129,-0.002 L2.129,-0.002 ZM15.607,12.940 C15.128,13.394 14.787,13.500 14.147,13.357 C13.957,13.982 13.701,14.231 13.095,14.432 C13.251,15.134 13.199,15.356 12.708,15.906 C13.140,16.388 13.233,16.743 13.096,17.383 C13.702,17.577 13.950,17.847 14.144,18.460 C14.769,18.312 15.107,18.425 15.581,18.862 L15.607,18.838 L15.607,18.837 L15.607,18.837 L15.607,18.837 L15.607,18.838 L15.632,18.862 C16.106,18.425 16.444,18.312 17.070,18.460 C17.264,17.847 17.511,17.577 18.118,17.383 C17.981,16.743 18.074,16.388 18.505,15.906 C18.014,15.356 17.962,15.134 18.119,14.432 C17.513,14.231 17.257,13.982 17.066,13.357 C16.427,13.500 16.085,13.394 15.607,12.940 L15.607,12.940 Z"/>
  </symbol>

  <symbol id="refund" viewBox="0 0 21 23">
    <path fill-rule="evenodd" fill="currentColor" d="M16.009,21.809 C16.531,21.809 16.956,21.393 16.956,20.880 L16.956,18.514 C16.956,17.735 18.162,17.735 18.162,18.514 L18.162,20.880 C18.162,22.041 17.192,22.994 16.009,22.994 C11.391,22.994 6.773,22.994 2.155,22.994 C0.973,22.994 0.002,22.041 0.002,20.880 L0.002,12.091 C0.002,10.930 0.973,9.977 2.155,9.977 C6.456,9.977 10.758,9.977 15.059,9.977 C15.852,9.977 15.852,11.162 15.059,11.162 L11.731,11.162 L11.731,12.109 C11.731,13.269 10.760,14.222 9.578,14.222 L8.586,14.222 C7.404,14.222 6.433,13.269 6.433,12.109 L6.433,11.162 L2.155,11.162 C1.633,11.162 1.208,11.578 1.208,12.091 L1.208,20.880 C1.208,21.393 1.633,21.809 2.155,21.809 C6.773,21.809 11.391,21.809 16.009,21.809 L16.009,21.809 ZM12.883,14.699 C12.092,14.726 12.051,13.546 12.841,13.519 C14.135,13.474 15.288,12.918 16.106,12.055 C17.868,10.198 17.764,7.280 15.871,5.550 C14.561,4.351 12.672,3.995 11.005,4.614 L12.543,6.669 C12.847,7.075 12.526,7.636 12.025,7.609 L5.506,7.622 C5.141,7.622 4.854,7.297 4.912,6.942 L5.946,0.498 C6.027,-0.019 6.699,-0.177 7.016,0.229 L8.346,1.778 C8.913,1.435 9.525,1.156 10.171,0.954 C13.017,0.064 16.154,0.760 18.362,2.821 C21.729,5.962 21.920,11.237 18.789,14.603 C17.334,16.168 15.282,17.175 12.977,17.255 C12.225,17.336 12.106,16.074 12.955,16.074 L12.956,16.075 C14.914,16.001 16.659,15.140 17.898,13.808 C20.589,10.915 20.424,6.374 17.533,3.676 C15.651,1.921 12.966,1.318 10.534,2.078 C9.928,2.268 9.358,2.536 8.835,2.870 C8.748,2.927 8.657,2.982 8.571,3.041 C8.571,3.040 7.939,3.134 7.768,2.934 L6.929,1.956 L6.209,6.441 L10.872,6.431 C10.449,5.866 10.025,5.300 9.602,4.735 C9.602,4.734 9.565,4.678 9.562,4.672 C9.401,4.388 9.505,4.028 9.795,3.870 L9.934,3.796 C12.091,2.626 14.905,3.051 16.691,4.684 C19.068,6.857 19.200,10.528 16.987,12.860 C15.959,13.943 14.510,14.642 12.883,14.699 L12.883,14.699 ZM10.524,11.162 L7.640,11.162 L7.640,12.109 C7.640,12.621 8.065,13.038 8.586,13.038 L9.578,13.038 C10.100,13.038 10.524,12.621 10.524,12.109 L10.524,11.162 L10.524,11.162 Z"/>
  </symbol>

  <symbol id="office-orders" viewBox="0 0 18 22">
    <path fill-rule="evenodd"  fill="currentColor" d="M6.174,15.949 C5.396,15.949 5.396,17.109 6.174,17.109 C8.338,17.109 10.500,17.108 12.664,17.108 C13.442,17.108 13.442,15.948 12.664,15.948 C10.500,15.948 8.338,15.949 6.174,15.949 L6.174,15.949 ZM12.935,4.743 C13.713,4.743 13.713,5.903 12.935,5.903 L9.429,5.903 L9.429,5.903 L5.903,5.903 C5.125,5.903 5.125,4.744 5.903,4.744 L7.359,4.744 L7.395,2.436 C7.863,0.004 10.974,-0.003 11.443,2.436 L11.480,4.743 L12.935,4.743 L12.935,4.743 ZM10.597,2.603 C10.597,1.084 8.242,1.086 8.242,2.604 C8.242,4.126 10.597,4.119 10.597,2.603 L10.597,2.603 ZM12.664,13.048 C13.442,13.048 13.442,14.209 12.664,14.209 C10.500,14.209 8.338,14.209 6.174,14.209 C5.396,14.209 5.396,13.049 6.174,13.049 C8.338,13.049 10.500,13.048 12.664,13.048 L12.664,13.048 ZM12.664,10.113 C13.442,10.113 13.442,11.273 12.664,11.273 C10.500,11.273 8.338,11.273 6.174,11.273 C5.396,11.273 5.396,10.114 6.174,10.114 C8.338,10.114 10.500,10.113 12.664,10.113 L12.664,10.113 ZM15.785,21.988 C11.540,21.988 7.298,21.988 3.053,21.988 C1.894,21.988 0.943,21.056 0.943,19.919 L0.943,3.962 C0.943,2.825 1.894,1.893 3.053,1.893 L5.976,1.893 C6.754,1.893 6.754,3.052 5.976,3.052 L3.053,3.052 C2.542,3.052 2.126,3.460 2.126,3.962 L2.126,19.919 C2.126,20.421 2.542,20.828 3.053,20.828 C7.298,20.828 11.540,20.828 15.785,20.828 C16.297,20.828 16.713,20.420 16.713,19.918 L16.713,3.962 C16.713,3.460 16.297,3.052 15.785,3.052 L12.862,3.052 C12.085,3.052 12.085,1.892 12.862,1.892 L15.785,1.892 C16.944,1.892 17.895,2.824 17.895,3.962 L17.895,19.918 C17.895,21.055 16.944,21.988 15.785,21.988 L15.785,21.988 Z" />
  </symbol>

  <symbol id="office-favourites" viewBox="0 0 24 23">
    <path fill-rule="evenodd" stroke-width="1px" stroke="currentColor" fill="currentColor" d="M11.761,19.420 C11.385,19.153 5.983,15.294 4.491,12.366 C3.563,10.546 3.116,8.225 3.896,6.257 C4.519,4.686 5.776,3.765 7.340,3.557 C9.112,3.322 10.858,3.824 12.000,5.349 C13.143,3.824 14.889,3.322 16.661,3.557 C18.212,3.763 19.477,4.675 20.104,6.257 C20.885,8.225 20.437,10.546 19.509,12.366 C18.514,14.169 16.815,15.737 15.291,17.033 C13.671,18.411 12.250,19.413 12.219,19.435 C12.151,19.482 12.076,19.504 12.001,19.504 L12.001,19.505 C11.914,19.505 11.831,19.476 11.761,19.420 L11.761,19.420 ZM5.184,11.966 C6.466,14.482 10.959,17.828 12.001,18.582 C12.458,18.251 13.582,17.419 14.801,16.381 C16.358,15.056 18.086,13.388 18.807,11.986 C19.593,10.315 20.099,8.391 19.380,6.581 C18.866,5.283 17.837,4.558 16.565,4.389 C15.014,4.184 13.116,4.687 12.355,6.278 C12.216,6.588 11.794,6.598 11.648,6.282 C10.922,4.693 8.962,4.187 7.436,4.389 C6.156,4.559 5.131,5.293 4.620,6.581 C3.937,8.303 4.375,10.380 5.184,11.966 L5.184,11.966 Z" />
  </symbol>

  <symbol id="office-comparison" viewBox="0 0 17 15">
    <path fill-rule="evenodd"  fill="currentColor" d="M16.201,11.501 L8.463,11.501 C8.022,11.501 7.664,11.143 7.664,10.702 L7.664,10.499 C7.664,10.057 8.022,9.700 8.463,9.700 L16.201,9.700 C16.642,9.700 17.000,10.057 17.000,10.499 L17.000,10.702 C17.000,11.143 16.642,11.501 16.201,11.501 ZM16.203,2.667 L8.461,2.667 C8.021,2.667 7.664,2.311 7.664,1.870 L7.664,1.697 C7.664,1.257 8.021,0.900 8.461,0.900 L16.203,0.900 C16.643,0.900 17.000,1.257 17.000,1.697 L17.000,1.870 C17.000,2.311 16.643,2.667 16.203,2.667 ZM3.957,15.000 L2.000,15.000 C0.895,15.000 -0.000,14.104 -0.000,13.000 L-0.000,10.799 C-0.000,9.694 0.895,8.799 2.000,8.799 L3.957,8.799 C5.061,8.799 5.957,9.694 5.957,10.799 L5.957,13.000 C5.957,14.104 5.061,15.000 3.957,15.000 ZM4.285,11.753 C4.285,11.116 3.769,10.600 3.132,10.600 L2.860,10.600 C2.223,10.600 1.707,11.116 1.707,11.753 L1.707,12.080 C1.707,12.717 2.223,13.233 2.860,13.233 L3.132,13.233 C3.769,13.233 4.285,12.717 4.285,12.080 L4.285,11.753 ZM3.957,6.166 L2.000,6.166 C0.895,6.166 -0.000,5.271 -0.000,4.166 L-0.000,2.000 C-0.000,0.895 0.895,-0.000 2.000,-0.000 L3.957,-0.000 C5.061,-0.000 5.957,0.895 5.957,2.000 L5.957,4.166 C5.957,5.271 5.061,6.166 3.957,6.166 ZM4.285,2.954 C4.285,2.317 3.769,1.801 3.132,1.801 L2.860,1.801 C2.223,1.801 1.707,2.317 1.707,2.954 L1.707,3.281 C1.707,3.918 2.223,4.434 2.860,4.434 L3.132,4.434 C3.769,4.434 4.285,3.918 4.285,3.281 L4.285,2.954 ZM8.445,4.434 L11.969,4.434 C12.400,4.434 12.750,4.784 12.750,5.215 L12.750,5.385 C12.750,5.816 12.400,6.166 11.969,6.166 L8.445,6.166 C8.014,6.166 7.664,5.816 7.664,5.385 L7.664,5.215 C7.664,4.784 8.014,4.434 8.445,4.434 ZM8.461,13.233 L11.953,13.233 C12.393,13.233 12.750,13.590 12.750,14.030 L12.750,14.203 C12.750,14.643 12.393,15.000 11.953,15.000 L8.461,15.000 C8.021,15.000 7.664,14.643 7.664,14.203 L7.664,14.030 C7.664,13.590 8.021,13.233 8.461,13.233 Z" />
  </symbol>

  <symbol id="office-profile" viewBox="0 0 21 23">
    <path fill-rule="evenodd" fill="currentColor" d="M12.923,14.786 C12.923,14.786 14.595,14.113 15.486,13.120 L12.436,14.634 C12.210,14.745 10.672,15.283 10.504,15.283 C9.695,15.283 9.038,14.647 9.038,13.862 C9.038,13.076 9.695,12.440 10.504,12.440 C11.093,12.440 10.730,12.560 11.299,12.284 C12.148,11.874 13.731,10.678 13.731,10.678 L12.115,10.678 C12.013,10.951 11.147,12.006 10.859,12.006 L10.150,12.006 C9.862,12.006 8.986,10.951 8.885,10.678 C7.822,10.710 5.380,11.283 5.380,11.283 C5.380,11.283 6.098,14.110 8.077,14.786 C8.077,14.786 9.170,15.548 10.500,15.607 C11.284,15.642 12.152,15.274 12.923,14.786 ZM16.961,6.571 C17.229,6.585 18.619,7.199 18.674,8.312 C18.736,9.543 17.635,10.959 16.649,11.715 C16.275,12.675 15.751,14.505 13.158,15.937 C13.128,16.357 13.731,17.250 13.731,17.250 C13.731,17.250 21.247,18.076 21.000,22.178 C21.000,22.178 20.112,22.955 17.769,23.000 C17.509,21.994 17.028,21.338 15.346,19.714 C15.149,19.524 12.115,18.071 12.115,18.071 L12.115,16.428 C12.115,16.428 11.308,17.250 10.500,17.250 C9.692,17.250 8.885,16.428 8.885,16.428 L8.885,18.071 C8.885,18.071 7.229,18.194 5.654,19.714 C3.971,21.337 3.491,21.994 3.231,23.000 C1.012,22.957 -0.000,22.178 -0.000,22.178 C0.005,18.102 7.269,17.250 7.269,17.250 C7.269,17.250 7.881,16.357 7.851,15.937 C5.098,14.416 4.816,12.709 4.594,11.877 C4.231,11.659 3.482,10.998 2.954,10.192 C2.577,9.616 2.303,8.958 2.334,8.312 C2.405,6.904 4.038,6.571 4.038,6.571 C4.038,6.571 3.789,1.106 10.197,0.874 C11.704,0.820 13.236,1.168 14.412,1.918 L14.411,1.611 C14.399,-0.548 17.021,-0.557 17.021,1.610 L16.961,6.571 ZM11.308,23.000 L11.308,19.714 L12.115,18.892 C12.115,18.892 13.670,19.652 14.538,20.535 C15.657,21.673 16.154,23.000 16.154,23.000 C16.154,23.000 13.872,22.998 11.308,23.000 ZM9.692,19.714 L9.692,23.000 C9.005,22.998 4.846,23.000 4.846,23.000 C4.846,23.000 5.349,21.677 6.461,20.535 C7.307,19.667 8.836,18.903 8.836,18.903 L9.692,19.714 ZM14.538,3.285 C9.885,0.844 6.920,2.907 6.461,3.285 C5.707,3.908 5.654,4.928 5.654,4.928 C5.654,4.928 6.642,3.244 10.500,3.285 C12.454,3.306 13.651,3.325 14.538,4.107 L14.538,3.285 ZM14.538,5.750 C14.538,5.750 12.601,4.951 10.500,4.928 C5.558,4.873 4.038,8.214 4.038,8.214 C4.038,8.214 4.326,9.725 4.846,10.678 C5.725,10.289 7.174,9.788 9.018,9.733 C9.199,9.292 9.761,8.213 9.989,7.852 C10.112,7.375 10.897,7.375 11.020,7.852 C11.248,8.213 11.810,9.292 11.991,9.733 L14.538,9.857 L14.538,5.750 ZM11.413,12.746 C11.916,13.131 11.967,13.958 11.967,13.958 C11.967,13.958 13.299,13.292 14.538,12.321 C15.196,11.806 16.154,10.678 16.154,10.678 C16.154,10.678 16.154,7.968 16.154,7.392 L16.154,1.643 C16.163,0.599 15.345,0.472 15.346,1.643 L15.346,8.214 C15.356,9.960 14.761,10.798 13.965,11.393 L13.921,11.424 C12.358,12.522 10.576,13.209 11.413,12.746 L11.413,12.746 ZM10.460,11.524 C10.460,11.527 10.488,11.526 10.502,11.526 C10.800,11.526 11.296,11.055 11.588,10.240 C11.069,8.969 10.495,8.002 10.495,8.002 L10.460,11.524 L10.460,11.524 Z" />
  </symbol>

  <symbol id="office-logout" viewBox="0 0 17 20">
    <path fill-rule="evenodd" fill="currentColor" d="M12.000,20.000 L12.000,18.000 L15.000,18.031 L15.000,1.969 L12.000,2.000 L12.000,-0.000 L17.000,-0.000 L17.000,20.000 L12.000,20.000 ZM5.000,12.999 L3.999,13.999 L-0.000,9.936 L3.999,5.998 L5.000,6.999 L3.000,8.998 L12.000,8.998 L12.000,10.999 L3.000,10.999 L5.000,12.999 Z" />
  </symbol>
</svg>
