<svg xmlns="http://www.w3.org/2000/svg">
  <symbol id="cart" viewBox="0 0 19 17">
    <path fill-rule="evenodd"  d="M10.681,16.999 C11.489,16.999 12.145,16.297 12.145,15.433 C12.145,14.569 11.489,13.867 10.681,13.867 C9.872,13.867 9.216,14.569 9.216,15.433 C9.216,16.297 9.872,16.999 10.681,16.999 ZM5.394,16.999 C6.202,16.999 6.858,16.297 6.858,15.433 C6.858,14.569 6.202,13.867 5.394,13.867 C4.585,13.867 3.929,14.569 3.929,15.433 C3.929,16.297 4.585,16.999 5.394,16.999 ZM17.157,0.013 C17.157,0.013 14.690,0.139 15.381,0.026 C14.977,0.036 14.601,0.306 14.453,0.735 L13.427,3.710 L0.866,3.710 C-0.290,3.710 -0.290,5.880 0.866,5.880 L12.678,5.880 L12.239,7.152 L1.855,7.152 C0.699,7.152 0.699,9.324 1.855,9.324 L11.491,9.324 L11.031,10.657 L3.394,10.657 C2.238,10.657 2.238,12.828 3.394,12.828 L11.718,12.828 C12.019,12.828 12.290,12.687 12.476,12.466 C12.574,12.359 12.654,12.228 12.705,12.079 L16.118,2.184 L17.157,2.184 C18.312,2.184 18.312,0.013 17.157,0.013 Z"/>
  </symbol>

  <symbol id="one-click" viewBox="0 0 18 22">
    <path fill-rule="evenodd" d="M7.618,20.651 C7.879,20.868 8.252,20.912 8.573,20.784 L8.573,20.785 C9.061,20.264 9.803,21.058 9.316,21.582 L9.205,21.702 C8.634,22.255 7.368,21.927 6.828,21.398 C6.823,21.394 6.819,21.387 6.815,21.381 L0.624,14.739 C-1.293,12.682 1.624,9.552 3.542,11.610 L4.650,12.798 L4.650,4.569 C4.650,1.660 8.776,1.660 8.776,4.569 L8.776,6.732 C9.930,6.033 11.413,6.681 11.773,8.070 C12.880,7.327 14.360,7.872 14.805,9.206 C16.153,8.252 17.999,9.281 17.999,11.055 L17.999,18.942 C17.999,19.816 17.161,20.902 16.300,20.905 C15.609,20.905 15.609,19.778 16.300,19.778 C16.436,19.776 16.894,19.353 16.949,18.969 C16.852,16.421 16.948,13.630 16.948,11.055 C16.948,9.658 14.982,9.613 14.926,11.008 L14.925,13.533 C14.925,14.275 13.874,14.275 13.874,13.533 L13.874,9.948 C13.874,8.638 12.084,8.468 11.867,9.755 L11.847,12.709 C11.847,13.451 10.796,13.451 10.796,12.709 L10.796,8.660 C10.796,7.280 8.863,7.211 8.776,8.587 L8.776,10.911 C8.776,11.654 7.725,11.654 7.725,10.911 L7.722,8.665 C7.722,7.299 7.725,5.935 7.725,4.569 C7.725,3.144 5.701,3.144 5.701,4.569 C5.701,8.222 5.705,11.874 5.705,15.524 L2.798,12.406 C1.859,11.399 0.428,12.934 1.368,13.941 L7.379,20.391 C7.456,20.474 7.549,20.563 7.618,20.651 L7.618,20.651 ZM9.905,5.174 C10.223,3.099 8.737,1.197 6.761,1.197 C5.002,1.197 3.575,2.728 3.575,4.616 C3.576,5.145 3.691,5.606 3.896,6.093 L3.966,6.257 L3.987,8.146 C3.987,8.168 3.956,8.119 3.941,8.104 C3.005,7.233 2.457,5.968 2.457,4.616 C2.457,2.065 4.384,-0.001 6.761,-0.001 C9.138,-0.001 11.066,2.065 11.066,4.616 C11.066,4.994 11.023,5.361 10.943,5.712 C10.843,5.588 10.289,5.174 9.905,5.174 L9.905,5.174 Z"/>
  </symbol>

  <symbol id="self-pickup" viewBox="0 0 32 36">
    <path fill-rule="evenodd" d="M16.690,34.428 L24.071,30.903 L24.071,11.187 L16.690,14.712 L16.690,34.428 L16.690,34.428 ZM24.947,30.492 L30.705,27.858 L30.705,8.142 L24.947,10.776 L24.947,30.492 L24.947,30.492 ZM23.498,10.487 L9.554,3.960 L1.967,7.454 L15.901,13.986 L23.498,10.487 L23.498,10.487 ZM10.600,3.478 L24.549,10.004 L30.099,7.448 L16.170,0.914 L10.600,3.478 L10.600,3.478 ZM31.326,28.539 L16.462,35.507 C16.400,35.541 16.328,35.561 16.252,35.561 C16.172,35.561 16.098,35.540 16.033,35.502 C15.969,35.540 15.894,35.561 15.814,35.561 C15.739,35.561 15.667,35.541 15.604,35.507 L0.741,28.539 C0.581,28.464 0.487,28.306 0.487,28.139 L0.486,28.139 L0.486,7.451 C0.486,7.259 0.607,7.096 0.777,7.035 L15.969,0.039 C16.085,-0.023 16.227,-0.031 16.355,0.029 L31.300,7.039 C31.464,7.102 31.581,7.263 31.581,7.451 L31.581,28.139 L31.580,28.139 C31.580,28.306 31.485,28.464 31.326,28.539 L31.326,28.539 ZM15.376,14.716 L1.362,8.143 L1.362,27.858 L15.376,34.428 L15.376,14.716 L15.376,14.716 Z"/>
  </symbol>

  <symbol id="delivery" viewBox="0 0 38 38">
    <path fill-rule="evenodd" d="M30.807,27.878 L30.821,27.851 L30.807,27.878 L30.807,27.878 ZM15.310,35.105 L15.324,35.077 L15.310,35.105 L15.310,35.105 ZM23.396,29.553 L30.064,26.366 C30.154,25.986 30.273,25.622 30.416,25.288 C30.632,24.781 30.907,24.339 31.218,24.007 C31.856,23.282 32.466,23.345 32.641,23.370 C32.870,23.402 33.084,23.492 33.275,23.643 C33.487,23.809 33.668,24.046 33.811,24.340 C33.840,24.402 33.869,24.467 33.895,24.535 L37.144,22.982 L37.144,8.609 L23.396,15.180 L23.396,29.553 L23.396,29.553 ZM3.053,25.827 C2.432,25.547 2.471,25.439 2.626,24.854 C2.853,23.995 3.092,23.139 3.325,22.281 C3.573,21.630 3.653,21.201 4.636,21.670 C6.586,22.601 8.537,23.531 10.487,24.461 C10.646,24.633 10.892,24.954 10.593,25.844 L9.751,28.350 C9.572,28.898 9.299,28.799 8.807,28.584 C8.718,28.546 8.629,28.505 8.541,28.465 C6.708,27.639 4.858,26.683 3.053,25.827 L3.053,25.827 ZM9.092,27.738 C9.385,26.890 9.679,26.043 9.972,25.195 C8.026,24.265 6.080,23.334 4.134,22.403 L3.447,25.040 L9.092,27.738 L9.092,27.738 ZM11.406,35.396 L14.563,33.611 C14.654,33.225 14.775,32.854 14.919,32.515 C15.135,32.008 15.410,31.565 15.721,31.232 C16.359,30.509 16.969,30.572 17.144,30.596 C17.373,30.628 17.587,30.718 17.779,30.869 C17.976,31.025 18.147,31.240 18.285,31.507 L18.773,31.232 L19.006,19.134 L13.554,24.115 L11.406,31.413 L11.406,35.396 L11.406,35.396 ZM17.261,23.299 L15.448,24.929 L14.588,28.380 L17.266,26.648 L17.261,23.299 L17.261,23.299 ZM14.781,24.358 L17.405,22.000 L17.406,22.000 C17.481,21.932 17.580,21.891 17.687,21.891 C17.924,21.891 18.115,22.088 18.115,22.331 L18.122,26.872 C18.128,27.024 18.057,27.176 17.922,27.263 L14.160,29.699 C14.060,29.773 13.930,29.804 13.800,29.770 C13.571,29.710 13.432,29.470 13.490,29.233 L14.647,24.580 L14.649,24.581 C14.669,24.497 14.713,24.419 14.781,24.358 L14.781,24.358 ZM6.820,34.709 C6.656,34.867 6.483,34.995 6.303,35.087 C6.082,35.199 5.863,35.254 5.652,35.254 C5.410,35.254 5.185,35.185 4.981,35.055 L3.364,34.282 C2.960,34.146 2.635,33.798 2.425,33.363 C2.277,33.058 2.179,32.715 2.122,32.353 L0.245,31.411 C0.088,31.336 -0.005,31.177 -0.005,31.010 L-0.005,31.010 L-0.005,26.666 L2.143,18.756 C2.143,18.565 2.262,18.402 2.428,18.341 L7.501,14.189 L7.501,7.917 C7.501,7.726 7.620,7.563 7.786,7.502 L22.689,0.504 C22.802,0.442 22.942,0.434 23.068,0.494 L37.728,7.505 C37.889,7.569 38.003,7.729 38.003,7.917 L38.003,23.262 L38.003,23.262 C38.003,23.429 37.909,23.588 37.753,23.663 L34.117,25.401 C34.152,25.646 34.171,25.912 34.171,26.192 C34.171,27.120 33.965,28.068 33.631,28.849 C33.281,29.669 32.781,30.320 32.213,30.609 C31.991,30.723 31.772,30.777 31.561,30.777 C31.320,30.777 31.095,30.709 30.891,30.579 L29.274,29.806 C28.869,29.669 28.545,29.322 28.334,28.887 C28.241,28.695 28.168,28.488 28.112,28.271 L23.173,30.632 C23.112,30.667 23.041,30.686 22.966,30.686 C22.888,30.686 22.815,30.664 22.752,30.627 C22.689,30.664 22.615,30.686 22.537,30.686 C22.462,30.686 22.393,30.667 22.331,30.632 L19.670,29.360 L19.632,31.512 L19.631,31.512 C19.631,31.679 19.539,31.839 19.382,31.913 L18.574,32.362 C18.639,32.680 18.675,33.035 18.675,33.418 C18.675,34.347 18.468,35.295 18.134,36.076 C17.785,36.894 17.284,37.547 16.716,37.836 C16.495,37.949 16.276,38.004 16.065,38.004 C15.823,38.004 15.599,37.935 15.394,37.805 L13.777,37.032 C13.373,36.896 13.048,36.548 12.837,36.113 C12.768,35.967 12.708,35.814 12.659,35.653 L11.182,36.475 C11.121,36.510 11.050,36.529 10.976,36.529 C10.897,36.529 10.824,36.508 10.761,36.470 C10.698,36.508 10.625,36.529 10.546,36.529 C10.472,36.529 10.402,36.510 10.340,36.475 L6.820,34.709 L6.820,34.709 ZM8.360,13.485 L9.035,12.933 C9.149,12.872 9.288,12.863 9.414,12.923 L19.590,18.030 C19.751,18.094 19.865,18.254 19.865,18.442 L19.687,28.396 L22.107,29.553 L22.107,15.184 L8.360,8.609 L8.360,13.485 L8.360,13.485 ZM3.144,32.866 C3.160,32.902 3.175,32.938 3.193,32.973 C3.258,33.109 3.357,33.266 3.486,33.364 L3.665,33.450 L3.689,33.455 L3.691,33.463 L4.109,33.663 C4.081,33.551 4.056,33.435 4.036,33.313 L3.144,32.866 L3.144,32.866 ZM5.072,33.833 L5.096,33.884 C5.178,34.056 5.276,34.187 5.382,34.271 C5.464,34.335 5.556,34.371 5.652,34.371 C5.735,34.371 5.826,34.347 5.924,34.296 L5.959,34.278 L5.072,33.833 L5.072,33.833 ZM14.397,34.686 L13.432,35.224 C13.474,35.402 13.532,35.570 13.606,35.723 C13.672,35.860 13.770,36.016 13.899,36.114 L14.078,36.200 L14.102,36.204 L14.103,36.212 L14.522,36.412 C14.430,36.049 14.379,35.631 14.379,35.172 C14.379,35.010 14.385,34.848 14.397,34.686 L14.397,34.686 ZM16.989,31.469 C16.907,31.469 16.815,31.494 16.716,31.544 C16.335,31.738 15.976,32.230 15.704,32.866 C15.417,33.540 15.238,34.362 15.238,35.172 C15.238,35.781 15.338,36.282 15.509,36.634 C15.592,36.806 15.689,36.937 15.795,37.021 C15.878,37.085 15.970,37.121 16.065,37.121 C16.147,37.121 16.239,37.096 16.337,37.046 C16.718,36.852 17.078,36.360 17.350,35.724 C17.638,35.049 17.815,34.228 17.815,33.418 C17.815,32.809 17.716,32.308 17.545,31.956 C17.462,31.784 17.365,31.653 17.259,31.570 C17.176,31.504 17.085,31.469 16.989,31.469 L16.989,31.469 ZM12.780,23.389 L18.412,18.439 L9.232,13.808 L3.596,18.760 L12.780,23.389 L12.780,23.389 ZM12.265,24.119 L3.002,19.448 L0.854,27.687 L0.854,30.730 L10.116,35.396 L10.116,31.136 L12.265,24.119 L12.265,24.119 ZM29.897,27.418 L28.905,27.892 C28.949,28.109 29.015,28.313 29.103,28.497 C29.168,28.633 29.266,28.790 29.395,28.888 L29.575,28.973 L29.599,28.979 L29.600,28.986 L30.019,29.186 C29.926,28.823 29.875,28.405 29.875,27.945 C29.875,27.770 29.883,27.594 29.897,27.418 L29.897,27.418 ZM32.486,24.243 C32.403,24.243 32.311,24.267 32.213,24.317 C31.832,24.512 31.473,25.003 31.201,25.640 C30.913,26.314 30.734,27.136 30.734,27.945 C30.734,28.554 30.835,29.055 31.006,29.407 C31.089,29.579 31.186,29.710 31.292,29.794 C31.375,29.859 31.465,29.894 31.561,29.894 C31.644,29.894 31.736,29.870 31.834,29.820 C32.215,29.625 32.575,29.134 32.846,28.497 C33.133,27.823 33.312,27.001 33.312,26.192 C33.312,25.583 33.212,25.082 33.041,24.729 C32.959,24.557 32.862,24.427 32.755,24.343 C32.673,24.278 32.581,24.243 32.486,24.243 L32.486,24.243 ZM22.623,14.455 L36.550,7.914 L22.886,1.379 L8.954,7.921 L22.623,14.455 L22.623,14.455 Z"/>
  </symbol>
</svg>
