<svg xmlns="http://www.w3.org/2000/svg">
  <symbol id="cart" viewBox="0 0 19 17">
    <path fill-rule="evenodd" fill="currentColor" d="M10.681,16.999 C11.489,16.999 12.145,16.297 12.145,15.433 C12.145,14.569 11.489,13.867 10.681,13.867 C9.872,13.867 9.216,14.569 9.216,15.433 C9.216,16.297 9.872,16.999 10.681,16.999 ZM5.394,16.999 C6.202,16.999 6.858,16.297 6.858,15.433 C6.858,14.569 6.202,13.867 5.394,13.867 C4.585,13.867 3.929,14.569 3.929,15.433 C3.929,16.297 4.585,16.999 5.394,16.999 ZM17.157,0.013 C17.157,0.013 14.690,0.139 15.381,0.026 C14.977,0.036 14.601,0.306 14.453,0.735 L13.427,3.710 L0.866,3.710 C-0.290,3.710 -0.290,5.880 0.866,5.880 L12.678,5.880 L12.239,7.152 L1.855,7.152 C0.699,7.152 0.699,9.324 1.855,9.324 L11.491,9.324 L11.031,10.657 L3.394,10.657 C2.238,10.657 2.238,12.828 3.394,12.828 L11.718,12.828 C12.019,12.828 12.290,12.687 12.476,12.466 C12.574,12.359 12.654,12.228 12.705,12.079 L16.118,2.184 L17.157,2.184 C18.312,2.184 18.312,0.013 17.157,0.013 Z"/>
  </symbol>

  <symbol id="one-click" viewBox="0 0 18 22">
    <path fill-rule="evenodd" d="M7.618,20.651 C7.879,20.868 8.252,20.912 8.573,20.784 L8.573,20.785 C9.061,20.264 9.803,21.058 9.316,21.582 L9.205,21.702 C8.634,22.255 7.368,21.927 6.828,21.398 C6.823,21.394 6.819,21.387 6.815,21.381 L0.624,14.739 C-1.293,12.682 1.624,9.552 3.542,11.610 L4.650,12.798 L4.650,4.569 C4.650,1.660 8.776,1.660 8.776,4.569 L8.776,6.732 C9.930,6.033 11.413,6.681 11.773,8.070 C12.880,7.327 14.360,7.872 14.805,9.206 C16.153,8.252 17.999,9.281 17.999,11.055 L17.999,18.942 C17.999,19.816 17.161,20.902 16.300,20.905 C15.609,20.905 15.609,19.778 16.300,19.778 C16.436,19.776 16.894,19.353 16.949,18.969 C16.852,16.421 16.948,13.630 16.948,11.055 C16.948,9.658 14.982,9.613 14.926,11.008 L14.925,13.533 C14.925,14.275 13.874,14.275 13.874,13.533 L13.874,9.948 C13.874,8.638 12.084,8.468 11.867,9.755 L11.847,12.709 C11.847,13.451 10.796,13.451 10.796,12.709 L10.796,8.660 C10.796,7.280 8.863,7.211 8.776,8.587 L8.776,10.911 C8.776,11.654 7.725,11.654 7.725,10.911 L7.722,8.665 C7.722,7.299 7.725,5.935 7.725,4.569 C7.725,3.144 5.701,3.144 5.701,4.569 C5.701,8.222 5.705,11.874 5.705,15.524 L2.798,12.406 C1.859,11.399 0.428,12.934 1.368,13.941 L7.379,20.391 C7.456,20.474 7.549,20.563 7.618,20.651 L7.618,20.651 ZM9.905,5.174 C10.223,3.099 8.737,1.197 6.761,1.197 C5.002,1.197 3.575,2.728 3.575,4.616 C3.576,5.145 3.691,5.606 3.896,6.093 L3.966,6.257 L3.987,8.146 C3.987,8.168 3.956,8.119 3.941,8.104 C3.005,7.233 2.457,5.968 2.457,4.616 C2.457,2.065 4.384,-0.001 6.761,-0.001 C9.138,-0.001 11.066,2.065 11.066,4.616 C11.066,4.994 11.023,5.361 10.943,5.712 C10.843,5.588 10.289,5.174 9.905,5.174 L9.905,5.174 Z"/>
  </symbol>

  <symbol id="self-pickup" viewBox="0 0 32 36">
    <path fill-rule="evenodd" fill="currentColor" d="M16.690,34.428 L24.071,30.903 L24.071,11.187 L16.690,14.712 L16.690,34.428 L16.690,34.428 ZM24.947,30.492 L30.705,27.858 L30.705,8.142 L24.947,10.776 L24.947,30.492 L24.947,30.492 ZM23.498,10.487 L9.554,3.960 L1.967,7.454 L15.901,13.986 L23.498,10.487 L23.498,10.487 ZM10.600,3.478 L24.549,10.004 L30.099,7.448 L16.170,0.914 L10.600,3.478 L10.600,3.478 ZM31.326,28.539 L16.462,35.507 C16.400,35.541 16.328,35.561 16.252,35.561 C16.172,35.561 16.098,35.540 16.033,35.502 C15.969,35.540 15.894,35.561 15.814,35.561 C15.739,35.561 15.667,35.541 15.604,35.507 L0.741,28.539 C0.581,28.464 0.487,28.306 0.487,28.139 L0.486,28.139 L0.486,7.451 C0.486,7.259 0.607,7.096 0.777,7.035 L15.969,0.039 C16.085,-0.023 16.227,-0.031 16.355,0.029 L31.300,7.039 C31.464,7.102 31.581,7.263 31.581,7.451 L31.581,28.139 L31.580,28.139 C31.580,28.306 31.485,28.464 31.326,28.539 L31.326,28.539 ZM15.376,14.716 L1.362,8.143 L1.362,27.858 L15.376,34.428 L15.376,14.716 L15.376,14.716 Z"/>
  </symbol>

  <symbol id="delivery" viewBox="0 0 38 38">
    <path fill-rule="evenodd" fill="currentColor" d="M30.807,27.878 L30.821,27.851 L30.807,27.878 L30.807,27.878 ZM15.310,35.105 L15.324,35.077 L15.310,35.105 L15.310,35.105 ZM23.396,29.553 L30.064,26.366 C30.154,25.986 30.273,25.622 30.416,25.288 C30.632,24.781 30.907,24.339 31.218,24.007 C31.856,23.282 32.466,23.345 32.641,23.370 C32.870,23.402 33.084,23.492 33.275,23.643 C33.487,23.809 33.668,24.046 33.811,24.340 C33.840,24.402 33.869,24.467 33.895,24.535 L37.144,22.982 L37.144,8.609 L23.396,15.180 L23.396,29.553 L23.396,29.553 ZM3.053,25.827 C2.432,25.547 2.471,25.439 2.626,24.854 C2.853,23.995 3.092,23.139 3.325,22.281 C3.573,21.630 3.653,21.201 4.636,21.670 C6.586,22.601 8.537,23.531 10.487,24.461 C10.646,24.633 10.892,24.954 10.593,25.844 L9.751,28.350 C9.572,28.898 9.299,28.799 8.807,28.584 C8.718,28.546 8.629,28.505 8.541,28.465 C6.708,27.639 4.858,26.683 3.053,25.827 L3.053,25.827 ZM9.092,27.738 C9.385,26.890 9.679,26.043 9.972,25.195 C8.026,24.265 6.080,23.334 4.134,22.403 L3.447,25.040 L9.092,27.738 L9.092,27.738 ZM11.406,35.396 L14.563,33.611 C14.654,33.225 14.775,32.854 14.919,32.515 C15.135,32.008 15.410,31.565 15.721,31.232 C16.359,30.509 16.969,30.572 17.144,30.596 C17.373,30.628 17.587,30.718 17.779,30.869 C17.976,31.025 18.147,31.240 18.285,31.507 L18.773,31.232 L19.006,19.134 L13.554,24.115 L11.406,31.413 L11.406,35.396 L11.406,35.396 ZM17.261,23.299 L15.448,24.929 L14.588,28.380 L17.266,26.648 L17.261,23.299 L17.261,23.299 ZM14.781,24.358 L17.405,22.000 L17.406,22.000 C17.481,21.932 17.580,21.891 17.687,21.891 C17.924,21.891 18.115,22.088 18.115,22.331 L18.122,26.872 C18.128,27.024 18.057,27.176 17.922,27.263 L14.160,29.699 C14.060,29.773 13.930,29.804 13.800,29.770 C13.571,29.710 13.432,29.470 13.490,29.233 L14.647,24.580 L14.649,24.581 C14.669,24.497 14.713,24.419 14.781,24.358 L14.781,24.358 ZM6.820,34.709 C6.656,34.867 6.483,34.995 6.303,35.087 C6.082,35.199 5.863,35.254 5.652,35.254 C5.410,35.254 5.185,35.185 4.981,35.055 L3.364,34.282 C2.960,34.146 2.635,33.798 2.425,33.363 C2.277,33.058 2.179,32.715 2.122,32.353 L0.245,31.411 C0.088,31.336 -0.005,31.177 -0.005,31.010 L-0.005,31.010 L-0.005,26.666 L2.143,18.756 C2.143,18.565 2.262,18.402 2.428,18.341 L7.501,14.189 L7.501,7.917 C7.501,7.726 7.620,7.563 7.786,7.502 L22.689,0.504 C22.802,0.442 22.942,0.434 23.068,0.494 L37.728,7.505 C37.889,7.569 38.003,7.729 38.003,7.917 L38.003,23.262 L38.003,23.262 C38.003,23.429 37.909,23.588 37.753,23.663 L34.117,25.401 C34.152,25.646 34.171,25.912 34.171,26.192 C34.171,27.120 33.965,28.068 33.631,28.849 C33.281,29.669 32.781,30.320 32.213,30.609 C31.991,30.723 31.772,30.777 31.561,30.777 C31.320,30.777 31.095,30.709 30.891,30.579 L29.274,29.806 C28.869,29.669 28.545,29.322 28.334,28.887 C28.241,28.695 28.168,28.488 28.112,28.271 L23.173,30.632 C23.112,30.667 23.041,30.686 22.966,30.686 C22.888,30.686 22.815,30.664 22.752,30.627 C22.689,30.664 22.615,30.686 22.537,30.686 C22.462,30.686 22.393,30.667 22.331,30.632 L19.670,29.360 L19.632,31.512 L19.631,31.512 C19.631,31.679 19.539,31.839 19.382,31.913 L18.574,32.362 C18.639,32.680 18.675,33.035 18.675,33.418 C18.675,34.347 18.468,35.295 18.134,36.076 C17.785,36.894 17.284,37.547 16.716,37.836 C16.495,37.949 16.276,38.004 16.065,38.004 C15.823,38.004 15.599,37.935 15.394,37.805 L13.777,37.032 C13.373,36.896 13.048,36.548 12.837,36.113 C12.768,35.967 12.708,35.814 12.659,35.653 L11.182,36.475 C11.121,36.510 11.050,36.529 10.976,36.529 C10.897,36.529 10.824,36.508 10.761,36.470 C10.698,36.508 10.625,36.529 10.546,36.529 C10.472,36.529 10.402,36.510 10.340,36.475 L6.820,34.709 L6.820,34.709 ZM8.360,13.485 L9.035,12.933 C9.149,12.872 9.288,12.863 9.414,12.923 L19.590,18.030 C19.751,18.094 19.865,18.254 19.865,18.442 L19.687,28.396 L22.107,29.553 L22.107,15.184 L8.360,8.609 L8.360,13.485 L8.360,13.485 ZM3.144,32.866 C3.160,32.902 3.175,32.938 3.193,32.973 C3.258,33.109 3.357,33.266 3.486,33.364 L3.665,33.450 L3.689,33.455 L3.691,33.463 L4.109,33.663 C4.081,33.551 4.056,33.435 4.036,33.313 L3.144,32.866 L3.144,32.866 ZM5.072,33.833 L5.096,33.884 C5.178,34.056 5.276,34.187 5.382,34.271 C5.464,34.335 5.556,34.371 5.652,34.371 C5.735,34.371 5.826,34.347 5.924,34.296 L5.959,34.278 L5.072,33.833 L5.072,33.833 ZM14.397,34.686 L13.432,35.224 C13.474,35.402 13.532,35.570 13.606,35.723 C13.672,35.860 13.770,36.016 13.899,36.114 L14.078,36.200 L14.102,36.204 L14.103,36.212 L14.522,36.412 C14.430,36.049 14.379,35.631 14.379,35.172 C14.379,35.010 14.385,34.848 14.397,34.686 L14.397,34.686 ZM16.989,31.469 C16.907,31.469 16.815,31.494 16.716,31.544 C16.335,31.738 15.976,32.230 15.704,32.866 C15.417,33.540 15.238,34.362 15.238,35.172 C15.238,35.781 15.338,36.282 15.509,36.634 C15.592,36.806 15.689,36.937 15.795,37.021 C15.878,37.085 15.970,37.121 16.065,37.121 C16.147,37.121 16.239,37.096 16.337,37.046 C16.718,36.852 17.078,36.360 17.350,35.724 C17.638,35.049 17.815,34.228 17.815,33.418 C17.815,32.809 17.716,32.308 17.545,31.956 C17.462,31.784 17.365,31.653 17.259,31.570 C17.176,31.504 17.085,31.469 16.989,31.469 L16.989,31.469 ZM12.780,23.389 L18.412,18.439 L9.232,13.808 L3.596,18.760 L12.780,23.389 L12.780,23.389 ZM12.265,24.119 L3.002,19.448 L0.854,27.687 L0.854,30.730 L10.116,35.396 L10.116,31.136 L12.265,24.119 L12.265,24.119 ZM29.897,27.418 L28.905,27.892 C28.949,28.109 29.015,28.313 29.103,28.497 C29.168,28.633 29.266,28.790 29.395,28.888 L29.575,28.973 L29.599,28.979 L29.600,28.986 L30.019,29.186 C29.926,28.823 29.875,28.405 29.875,27.945 C29.875,27.770 29.883,27.594 29.897,27.418 L29.897,27.418 ZM32.486,24.243 C32.403,24.243 32.311,24.267 32.213,24.317 C31.832,24.512 31.473,25.003 31.201,25.640 C30.913,26.314 30.734,27.136 30.734,27.945 C30.734,28.554 30.835,29.055 31.006,29.407 C31.089,29.579 31.186,29.710 31.292,29.794 C31.375,29.859 31.465,29.894 31.561,29.894 C31.644,29.894 31.736,29.870 31.834,29.820 C32.215,29.625 32.575,29.134 32.846,28.497 C33.133,27.823 33.312,27.001 33.312,26.192 C33.312,25.583 33.212,25.082 33.041,24.729 C32.959,24.557 32.862,24.427 32.755,24.343 C32.673,24.278 32.581,24.243 32.486,24.243 L32.486,24.243 ZM22.623,14.455 L36.550,7.914 L22.886,1.379 L8.954,7.921 L22.623,14.455 L22.623,14.455 Z"/>
  </symbol>

  <symbol id="manufacturer" viewBox="0 0 20 21">
    <path fill-rule="evenodd" fill="currentColor" d="M14.608,5.494 C16.067,6.364 17.737,6.927 19.435,7.021 C19.766,7.039 20.020,7.325 20.002,7.658 C20.002,9.278 19.498,11.801 18.861,13.287 C18.136,14.976 16.489,16.985 14.608,17.353 L14.607,17.353 C12.726,16.985 11.079,14.976 10.355,13.287 C9.718,11.801 9.213,9.278 9.213,7.658 C9.195,7.325 9.449,7.039 9.780,7.021 C11.479,6.927 13.148,6.364 14.607,5.494 L14.608,5.494 L14.608,5.494 ZM5.315,6.310 C4.523,6.310 4.523,5.098 5.315,5.098 L10.372,5.098 C11.163,5.098 11.163,6.310 10.372,6.310 L5.315,6.310 L5.315,6.310 ZM15.962,19.792 C16.483,19.792 16.906,19.365 16.906,18.841 L16.906,17.940 C16.906,17.143 18.109,17.143 18.109,17.940 L18.109,18.841 C18.109,20.029 17.142,21.005 15.962,21.005 C11.354,21.005 6.747,21.005 2.139,21.005 C0.960,21.005 -0.009,20.029 -0.009,18.841 L-0.009,2.161 C-0.009,0.972 0.960,-0.003 2.139,-0.003 L15.962,-0.003 C17.141,-0.003 18.109,0.972 18.109,2.161 L18.109,4.651 C18.109,5.448 16.906,5.448 16.906,4.651 L16.906,2.161 C16.906,1.636 16.483,1.209 15.962,1.209 L2.139,1.209 C1.619,1.209 1.195,1.636 1.195,2.161 L1.195,18.841 C1.195,19.365 1.619,19.792 2.139,19.792 C6.747,19.792 11.354,19.792 15.962,19.792 L15.962,19.792 ZM5.315,9.342 C4.523,9.342 4.523,8.130 5.315,8.130 L7.935,8.130 C8.726,8.130 8.726,9.342 7.935,9.342 L5.315,9.342 L5.315,9.342 ZM5.315,12.410 C4.523,12.410 4.523,11.198 5.315,11.198 L8.476,11.198 C9.268,11.198 9.268,12.410 8.476,12.410 L5.315,12.410 L5.315,12.410 ZM14.607,14.683 L14.620,14.677 L14.620,11.406 L12.245,11.406 C12.663,12.746 13.343,13.999 14.607,14.683 L14.607,14.683 ZM16.969,11.406 C17.201,10.665 17.347,9.897 17.448,9.128 C16.472,8.919 15.524,8.594 14.620,8.170 L14.620,11.406 L16.969,11.406 L16.969,11.406 ZM14.608,16.073 C16.162,15.455 17.139,14.247 17.756,12.808 C18.365,11.387 18.634,9.736 18.761,8.177 C17.314,8.013 15.897,7.551 14.608,6.874 C13.318,7.551 11.901,8.013 10.454,8.177 C10.581,9.736 10.851,11.387 11.460,12.808 C12.077,14.247 13.053,15.455 14.608,16.073 L14.608,16.073 Z"/>
  </symbol>
  
  <symbol id="certificate" viewBox="0 0 21 23">
    <path fill-rule="evenodd" fill="currentColor" d="M14.189,20.845 L13.509,22.580 C13.456,22.742 13.336,22.880 13.169,22.949 C12.311,23.306 12.180,21.777 12.030,21.707 C12.007,21.697 11.109,21.923 10.948,21.961 C10.395,22.103 9.970,21.426 10.350,20.971 L11.983,19.004 L12.400,18.448 L12.260,18.408 C11.927,18.330 11.715,18.003 11.800,17.657 C11.836,17.516 11.981,16.982 11.961,16.903 C11.942,16.832 11.555,16.442 11.455,16.335 C11.231,16.099 11.230,15.721 11.455,15.483 C11.988,14.921 11.987,14.913 11.819,14.235 C11.723,13.821 11.860,13.526 12.277,13.405 C12.691,13.285 12.892,13.227 12.938,13.180 C12.991,13.124 13.113,12.627 13.150,12.488 C13.228,12.153 13.551,11.942 13.880,12.027 C14.017,12.063 14.538,12.213 14.615,12.192 C14.917,12.109 15.104,11.481 15.607,11.500 C16.150,11.500 16.268,12.102 16.598,12.192 C16.675,12.213 17.196,12.063 17.333,12.027 C17.663,11.942 17.985,12.153 18.063,12.488 C18.101,12.627 18.222,13.124 18.276,13.180 C18.322,13.227 18.523,13.285 18.937,13.405 C19.354,13.526 19.491,13.821 19.395,14.235 C19.227,14.913 19.225,14.921 19.758,15.483 C19.984,15.721 19.983,16.099 19.758,16.335 C19.659,16.442 19.271,16.832 19.253,16.903 C19.232,16.982 19.378,17.516 19.413,17.657 C19.532,18.137 19.189,18.341 18.814,18.448 L19.231,19.004 L20.864,20.971 C21.244,21.426 20.819,22.103 20.266,21.961 C20.105,21.923 19.206,21.697 19.183,21.707 C19.033,21.777 18.902,23.306 18.045,22.949 C17.878,22.880 17.758,22.742 17.704,22.580 L17.024,20.845 C16.763,20.176 16.655,20.023 16.461,19.739 C16.206,19.971 15.973,20.334 15.607,20.319 C15.220,20.319 15.014,19.976 14.753,19.739 C14.559,20.023 14.450,20.176 14.189,20.845 L14.189,20.845 ZM5.278,6.377 C4.493,6.377 4.493,5.151 5.278,5.151 L12.690,5.151 C13.474,5.151 13.474,6.377 12.690,6.377 L5.278,6.377 L5.278,6.377 ZM5.278,9.440 C4.493,9.440 4.493,8.215 5.278,8.215 L12.690,8.215 C13.474,8.215 13.474,9.440 12.690,9.440 L5.278,9.440 L5.278,9.440 ZM5.278,12.541 C4.493,12.541 4.493,11.315 5.278,11.315 L9.780,11.315 C10.564,11.315 10.564,12.541 9.780,12.541 L5.278,12.541 L5.278,12.541 ZM2.129,-0.002 L15.839,-0.002 C17.009,-0.002 17.969,0.983 17.969,2.184 L17.969,9.891 C17.969,10.229 17.702,10.504 17.372,10.504 C17.043,10.504 16.776,10.229 16.776,9.891 L16.776,2.184 C16.776,1.653 16.356,1.223 15.839,1.223 L2.129,1.223 C1.880,1.223 1.642,1.324 1.465,1.505 C1.297,1.679 1.192,1.920 1.192,2.184 L1.192,19.038 C1.192,19.294 1.291,19.538 1.467,19.719 C1.637,19.892 1.871,20.000 2.129,20.000 L8.568,20.000 C9.353,20.000 9.353,21.225 8.568,21.225 L2.129,21.225 C0.959,21.225 -0.002,20.239 -0.002,19.038 L-0.002,2.184 C-0.002,0.983 0.959,-0.002 2.129,-0.002 L2.129,-0.002 ZM15.607,12.940 C15.128,13.394 14.787,13.500 14.147,13.357 C13.957,13.982 13.701,14.231 13.095,14.432 C13.251,15.134 13.199,15.356 12.708,15.906 C13.140,16.388 13.233,16.743 13.096,17.383 C13.702,17.577 13.950,17.847 14.144,18.460 C14.769,18.312 15.107,18.425 15.581,18.862 L15.607,18.838 L15.607,18.837 L15.607,18.837 L15.607,18.837 L15.607,18.838 L15.632,18.862 C16.106,18.425 16.444,18.312 17.070,18.460 C17.264,17.847 17.511,17.577 18.118,17.383 C17.981,16.743 18.074,16.388 18.505,15.906 C18.014,15.356 17.962,15.134 18.119,14.432 C17.513,14.231 17.257,13.982 17.066,13.357 C16.427,13.500 16.085,13.394 15.607,12.940 L15.607,12.940 Z"/>
  </symbol>

  <symbol id="refund" viewBox="0 0 21 23">
    <path fill-rule="evenodd" fill="currentColor" d="M16.009,21.809 C16.531,21.809 16.956,21.393 16.956,20.880 L16.956,18.514 C16.956,17.735 18.162,17.735 18.162,18.514 L18.162,20.880 C18.162,22.041 17.192,22.994 16.009,22.994 C11.391,22.994 6.773,22.994 2.155,22.994 C0.973,22.994 0.002,22.041 0.002,20.880 L0.002,12.091 C0.002,10.930 0.973,9.977 2.155,9.977 C6.456,9.977 10.758,9.977 15.059,9.977 C15.852,9.977 15.852,11.162 15.059,11.162 L11.731,11.162 L11.731,12.109 C11.731,13.269 10.760,14.222 9.578,14.222 L8.586,14.222 C7.404,14.222 6.433,13.269 6.433,12.109 L6.433,11.162 L2.155,11.162 C1.633,11.162 1.208,11.578 1.208,12.091 L1.208,20.880 C1.208,21.393 1.633,21.809 2.155,21.809 C6.773,21.809 11.391,21.809 16.009,21.809 L16.009,21.809 ZM12.883,14.699 C12.092,14.726 12.051,13.546 12.841,13.519 C14.135,13.474 15.288,12.918 16.106,12.055 C17.868,10.198 17.764,7.280 15.871,5.550 C14.561,4.351 12.672,3.995 11.005,4.614 L12.543,6.669 C12.847,7.075 12.526,7.636 12.025,7.609 L5.506,7.622 C5.141,7.622 4.854,7.297 4.912,6.942 L5.946,0.498 C6.027,-0.019 6.699,-0.177 7.016,0.229 L8.346,1.778 C8.913,1.435 9.525,1.156 10.171,0.954 C13.017,0.064 16.154,0.760 18.362,2.821 C21.729,5.962 21.920,11.237 18.789,14.603 C17.334,16.168 15.282,17.175 12.977,17.255 C12.225,17.336 12.106,16.074 12.955,16.074 L12.956,16.075 C14.914,16.001 16.659,15.140 17.898,13.808 C20.589,10.915 20.424,6.374 17.533,3.676 C15.651,1.921 12.966,1.318 10.534,2.078 C9.928,2.268 9.358,2.536 8.835,2.870 C8.748,2.927 8.657,2.982 8.571,3.041 C8.571,3.040 7.939,3.134 7.768,2.934 L6.929,1.956 L6.209,6.441 L10.872,6.431 C10.449,5.866 10.025,5.300 9.602,4.735 C9.602,4.734 9.565,4.678 9.562,4.672 C9.401,4.388 9.505,4.028 9.795,3.870 L9.934,3.796 C12.091,2.626 14.905,3.051 16.691,4.684 C19.068,6.857 19.200,10.528 16.987,12.860 C15.959,13.943 14.510,14.642 12.883,14.699 L12.883,14.699 ZM10.524,11.162 L7.640,11.162 L7.640,12.109 C7.640,12.621 8.065,13.038 8.586,13.038 L9.578,13.038 C10.100,13.038 10.524,12.621 10.524,12.109 L10.524,11.162 L10.524,11.162 Z"/>
  </symbol>

  <symbol id="office-orders" viewBox="0 0 18 22">
    <path fill-rule="evenodd"  fill="currentColor" d="M6.174,15.949 C5.396,15.949 5.396,17.109 6.174,17.109 C8.338,17.109 10.500,17.108 12.664,17.108 C13.442,17.108 13.442,15.948 12.664,15.948 C10.500,15.948 8.338,15.949 6.174,15.949 L6.174,15.949 ZM12.935,4.743 C13.713,4.743 13.713,5.903 12.935,5.903 L9.429,5.903 L9.429,5.903 L5.903,5.903 C5.125,5.903 5.125,4.744 5.903,4.744 L7.359,4.744 L7.395,2.436 C7.863,0.004 10.974,-0.003 11.443,2.436 L11.480,4.743 L12.935,4.743 L12.935,4.743 ZM10.597,2.603 C10.597,1.084 8.242,1.086 8.242,2.604 C8.242,4.126 10.597,4.119 10.597,2.603 L10.597,2.603 ZM12.664,13.048 C13.442,13.048 13.442,14.209 12.664,14.209 C10.500,14.209 8.338,14.209 6.174,14.209 C5.396,14.209 5.396,13.049 6.174,13.049 C8.338,13.049 10.500,13.048 12.664,13.048 L12.664,13.048 ZM12.664,10.113 C13.442,10.113 13.442,11.273 12.664,11.273 C10.500,11.273 8.338,11.273 6.174,11.273 C5.396,11.273 5.396,10.114 6.174,10.114 C8.338,10.114 10.500,10.113 12.664,10.113 L12.664,10.113 ZM15.785,21.988 C11.540,21.988 7.298,21.988 3.053,21.988 C1.894,21.988 0.943,21.056 0.943,19.919 L0.943,3.962 C0.943,2.825 1.894,1.893 3.053,1.893 L5.976,1.893 C6.754,1.893 6.754,3.052 5.976,3.052 L3.053,3.052 C2.542,3.052 2.126,3.460 2.126,3.962 L2.126,19.919 C2.126,20.421 2.542,20.828 3.053,20.828 C7.298,20.828 11.540,20.828 15.785,20.828 C16.297,20.828 16.713,20.420 16.713,19.918 L16.713,3.962 C16.713,3.460 16.297,3.052 15.785,3.052 L12.862,3.052 C12.085,3.052 12.085,1.892 12.862,1.892 L15.785,1.892 C16.944,1.892 17.895,2.824 17.895,3.962 L17.895,19.918 C17.895,21.055 16.944,21.988 15.785,21.988 L15.785,21.988 Z" />
  </symbol>

  <symbol id="office-favourites" viewBox="0 0 24 23">
    <path fill-rule="evenodd" stroke-width="1px" stroke="currentColor" fill="currentColor" d="M11.761,19.420 C11.385,19.153 5.983,15.294 4.491,12.366 C3.563,10.546 3.116,8.225 3.896,6.257 C4.519,4.686 5.776,3.765 7.340,3.557 C9.112,3.322 10.858,3.824 12.000,5.349 C13.143,3.824 14.889,3.322 16.661,3.557 C18.212,3.763 19.477,4.675 20.104,6.257 C20.885,8.225 20.437,10.546 19.509,12.366 C18.514,14.169 16.815,15.737 15.291,17.033 C13.671,18.411 12.250,19.413 12.219,19.435 C12.151,19.482 12.076,19.504 12.001,19.504 L12.001,19.505 C11.914,19.505 11.831,19.476 11.761,19.420 L11.761,19.420 ZM5.184,11.966 C6.466,14.482 10.959,17.828 12.001,18.582 C12.458,18.251 13.582,17.419 14.801,16.381 C16.358,15.056 18.086,13.388 18.807,11.986 C19.593,10.315 20.099,8.391 19.380,6.581 C18.866,5.283 17.837,4.558 16.565,4.389 C15.014,4.184 13.116,4.687 12.355,6.278 C12.216,6.588 11.794,6.598 11.648,6.282 C10.922,4.693 8.962,4.187 7.436,4.389 C6.156,4.559 5.131,5.293 4.620,6.581 C3.937,8.303 4.375,10.380 5.184,11.966 L5.184,11.966 Z" />
  </symbol>

  <symbol id="office-comparison" viewBox="0 0 17 15">
    <path fill-rule="evenodd"  fill="currentColor" d="M16.201,11.501 L8.463,11.501 C8.022,11.501 7.664,11.143 7.664,10.702 L7.664,10.499 C7.664,10.057 8.022,9.700 8.463,9.700 L16.201,9.700 C16.642,9.700 17.000,10.057 17.000,10.499 L17.000,10.702 C17.000,11.143 16.642,11.501 16.201,11.501 ZM16.203,2.667 L8.461,2.667 C8.021,2.667 7.664,2.311 7.664,1.870 L7.664,1.697 C7.664,1.257 8.021,0.900 8.461,0.900 L16.203,0.900 C16.643,0.900 17.000,1.257 17.000,1.697 L17.000,1.870 C17.000,2.311 16.643,2.667 16.203,2.667 ZM3.957,15.000 L2.000,15.000 C0.895,15.000 -0.000,14.104 -0.000,13.000 L-0.000,10.799 C-0.000,9.694 0.895,8.799 2.000,8.799 L3.957,8.799 C5.061,8.799 5.957,9.694 5.957,10.799 L5.957,13.000 C5.957,14.104 5.061,15.000 3.957,15.000 ZM4.285,11.753 C4.285,11.116 3.769,10.600 3.132,10.600 L2.860,10.600 C2.223,10.600 1.707,11.116 1.707,11.753 L1.707,12.080 C1.707,12.717 2.223,13.233 2.860,13.233 L3.132,13.233 C3.769,13.233 4.285,12.717 4.285,12.080 L4.285,11.753 ZM3.957,6.166 L2.000,6.166 C0.895,6.166 -0.000,5.271 -0.000,4.166 L-0.000,2.000 C-0.000,0.895 0.895,-0.000 2.000,-0.000 L3.957,-0.000 C5.061,-0.000 5.957,0.895 5.957,2.000 L5.957,4.166 C5.957,5.271 5.061,6.166 3.957,6.166 ZM4.285,2.954 C4.285,2.317 3.769,1.801 3.132,1.801 L2.860,1.801 C2.223,1.801 1.707,2.317 1.707,2.954 L1.707,3.281 C1.707,3.918 2.223,4.434 2.860,4.434 L3.132,4.434 C3.769,4.434 4.285,3.918 4.285,3.281 L4.285,2.954 ZM8.445,4.434 L11.969,4.434 C12.400,4.434 12.750,4.784 12.750,5.215 L12.750,5.385 C12.750,5.816 12.400,6.166 11.969,6.166 L8.445,6.166 C8.014,6.166 7.664,5.816 7.664,5.385 L7.664,5.215 C7.664,4.784 8.014,4.434 8.445,4.434 ZM8.461,13.233 L11.953,13.233 C12.393,13.233 12.750,13.590 12.750,14.030 L12.750,14.203 C12.750,14.643 12.393,15.000 11.953,15.000 L8.461,15.000 C8.021,15.000 7.664,14.643 7.664,14.203 L7.664,14.030 C7.664,13.590 8.021,13.233 8.461,13.233 Z" />
  </symbol>

  <symbol id="office-profile" viewBox="0 0 21 23">
    <path fill-rule="evenodd" fill="currentColor" d="M12.923,14.786 C12.923,14.786 14.595,14.113 15.486,13.120 L12.436,14.634 C12.210,14.745 10.672,15.283 10.504,15.283 C9.695,15.283 9.038,14.647 9.038,13.862 C9.038,13.076 9.695,12.440 10.504,12.440 C11.093,12.440 10.730,12.560 11.299,12.284 C12.148,11.874 13.731,10.678 13.731,10.678 L12.115,10.678 C12.013,10.951 11.147,12.006 10.859,12.006 L10.150,12.006 C9.862,12.006 8.986,10.951 8.885,10.678 C7.822,10.710 5.380,11.283 5.380,11.283 C5.380,11.283 6.098,14.110 8.077,14.786 C8.077,14.786 9.170,15.548 10.500,15.607 C11.284,15.642 12.152,15.274 12.923,14.786 ZM16.961,6.571 C17.229,6.585 18.619,7.199 18.674,8.312 C18.736,9.543 17.635,10.959 16.649,11.715 C16.275,12.675 15.751,14.505 13.158,15.937 C13.128,16.357 13.731,17.250 13.731,17.250 C13.731,17.250 21.247,18.076 21.000,22.178 C21.000,22.178 20.112,22.955 17.769,23.000 C17.509,21.994 17.028,21.338 15.346,19.714 C15.149,19.524 12.115,18.071 12.115,18.071 L12.115,16.428 C12.115,16.428 11.308,17.250 10.500,17.250 C9.692,17.250 8.885,16.428 8.885,16.428 L8.885,18.071 C8.885,18.071 7.229,18.194 5.654,19.714 C3.971,21.337 3.491,21.994 3.231,23.000 C1.012,22.957 -0.000,22.178 -0.000,22.178 C0.005,18.102 7.269,17.250 7.269,17.250 C7.269,17.250 7.881,16.357 7.851,15.937 C5.098,14.416 4.816,12.709 4.594,11.877 C4.231,11.659 3.482,10.998 2.954,10.192 C2.577,9.616 2.303,8.958 2.334,8.312 C2.405,6.904 4.038,6.571 4.038,6.571 C4.038,6.571 3.789,1.106 10.197,0.874 C11.704,0.820 13.236,1.168 14.412,1.918 L14.411,1.611 C14.399,-0.548 17.021,-0.557 17.021,1.610 L16.961,6.571 ZM11.308,23.000 L11.308,19.714 L12.115,18.892 C12.115,18.892 13.670,19.652 14.538,20.535 C15.657,21.673 16.154,23.000 16.154,23.000 C16.154,23.000 13.872,22.998 11.308,23.000 ZM9.692,19.714 L9.692,23.000 C9.005,22.998 4.846,23.000 4.846,23.000 C4.846,23.000 5.349,21.677 6.461,20.535 C7.307,19.667 8.836,18.903 8.836,18.903 L9.692,19.714 ZM14.538,3.285 C9.885,0.844 6.920,2.907 6.461,3.285 C5.707,3.908 5.654,4.928 5.654,4.928 C5.654,4.928 6.642,3.244 10.500,3.285 C12.454,3.306 13.651,3.325 14.538,4.107 L14.538,3.285 ZM14.538,5.750 C14.538,5.750 12.601,4.951 10.500,4.928 C5.558,4.873 4.038,8.214 4.038,8.214 C4.038,8.214 4.326,9.725 4.846,10.678 C5.725,10.289 7.174,9.788 9.018,9.733 C9.199,9.292 9.761,8.213 9.989,7.852 C10.112,7.375 10.897,7.375 11.020,7.852 C11.248,8.213 11.810,9.292 11.991,9.733 L14.538,9.857 L14.538,5.750 ZM11.413,12.746 C11.916,13.131 11.967,13.958 11.967,13.958 C11.967,13.958 13.299,13.292 14.538,12.321 C15.196,11.806 16.154,10.678 16.154,10.678 C16.154,10.678 16.154,7.968 16.154,7.392 L16.154,1.643 C16.163,0.599 15.345,0.472 15.346,1.643 L15.346,8.214 C15.356,9.960 14.761,10.798 13.965,11.393 L13.921,11.424 C12.358,12.522 10.576,13.209 11.413,12.746 L11.413,12.746 ZM10.460,11.524 C10.460,11.527 10.488,11.526 10.502,11.526 C10.800,11.526 11.296,11.055 11.588,10.240 C11.069,8.969 10.495,8.002 10.495,8.002 L10.460,11.524 L10.460,11.524 Z" />
  </symbol>

  <symbol id="office-logout" viewBox="0 0 17 20">
    <path fill-rule="evenodd" fill="currentColor" d="M12.000,20.000 L12.000,18.000 L15.000,18.031 L15.000,1.969 L12.000,2.000 L12.000,-0.000 L17.000,-0.000 L17.000,20.000 L12.000,20.000 ZM5.000,12.999 L3.999,13.999 L-0.000,9.936 L3.999,5.998 L5.000,6.999 L3.000,8.998 L12.000,8.998 L12.000,10.999 L3.000,10.999 L5.000,12.999 Z" />
  </symbol>

  <symbol id="office-admin" viewBox="0 0 24 24">
    <path fill-rule="evenodd" clip-rule="evenodd" d="M12 8.00002C9.79085 8.00002 7.99999 9.79088 7.99999 12C7.99999 14.2092 9.79085 16 12 16C14.2091 16 16 14.2092 16 12C16 9.79088 14.2091 8.00002 12 8.00002ZM9.99999 12C9.99999 10.8955 10.8954 10 12 10C13.1046 10 14 10.8955 14 12C14 13.1046 13.1046 14 12 14C10.8954 14 9.99999 13.1046 9.99999 12Z" fill="currentColor"/>
    <path fill-rule="evenodd" clip-rule="evenodd" d="M10.7673 1.01709C10.9925 0.999829 11.2454 0.99993 11.4516 1.00001L12.5484 1.00001C12.7546 0.99993 13.0075 0.999829 13.2327 1.01709C13.4989 1.03749 13.8678 1.08936 14.2634 1.26937C14.7635 1.49689 15.1915 1.85736 15.5007 2.31147C15.7454 2.67075 15.8592 3.0255 15.9246 3.2843C15.9799 3.50334 16.0228 3.75249 16.0577 3.9557L16.1993 4.77635L16.2021 4.77788C16.2369 4.79712 16.2715 4.81659 16.306 4.8363L16.3086 4.83774L17.2455 4.49865C17.4356 4.42978 17.6693 4.34509 17.8835 4.28543C18.1371 4.2148 18.4954 4.13889 18.9216 4.17026C19.4614 4.20998 19.9803 4.39497 20.4235 4.70563C20.7734 4.95095 21.0029 5.23636 21.1546 5.4515C21.2829 5.63326 21.4103 5.84671 21.514 6.02029L22.0158 6.86003C22.1256 7.04345 22.2594 7.26713 22.3627 7.47527C22.4843 7.7203 22.6328 8.07474 22.6777 8.52067C22.7341 9.08222 22.6311 9.64831 22.3803 10.1539C22.1811 10.5554 21.9171 10.8347 21.7169 11.0212C21.5469 11.1795 21.3428 11.3417 21.1755 11.4746L20.5 12L21.1755 12.5254C21.3428 12.6584 21.5469 12.8205 21.7169 12.9789C21.9171 13.1653 22.1811 13.4446 22.3802 13.8461C22.631 14.3517 22.7341 14.9178 22.6776 15.4794C22.6328 15.9253 22.4842 16.2797 22.3626 16.5248C22.2593 16.7329 22.1255 16.9566 22.0158 17.14L21.5138 17.9799C21.4102 18.1535 21.2828 18.3668 21.1546 18.5485C21.0028 18.7637 20.7734 19.0491 20.4234 19.2944C19.9803 19.6051 19.4613 19.7901 18.9216 19.8298C18.4954 19.8612 18.1371 19.7852 17.8835 19.7146C17.6692 19.6549 17.4355 19.5703 17.2454 19.5014L16.3085 19.1623L16.306 19.1638C16.2715 19.1835 16.2369 19.2029 16.2021 19.2222L16.1993 19.2237L16.0577 20.0443C16.0228 20.2475 15.9799 20.4967 15.9246 20.7157C15.8592 20.9745 15.7454 21.3293 15.5007 21.6886C15.1915 22.1427 14.7635 22.5032 14.2634 22.7307C13.8678 22.9107 13.4989 22.9626 13.2327 22.983C13.0074 23.0002 12.7546 23.0001 12.5484 23H11.4516C11.2454 23.0001 10.9925 23.0002 10.7673 22.983C10.5011 22.9626 10.1322 22.9107 9.73655 22.7307C9.23648 22.5032 8.80849 22.1427 8.49926 21.6886C8.25461 21.3293 8.14077 20.9745 8.07542 20.7157C8.02011 20.4967 7.97723 20.2475 7.94225 20.0443L7.80068 19.2237L7.79791 19.2222C7.7631 19.2029 7.72845 19.1835 7.69396 19.1637L7.69142 19.1623L6.75458 19.5014C6.5645 19.5702 6.33078 19.6549 6.11651 19.7146C5.86288 19.7852 5.50463 19.8611 5.07841 19.8298C4.53866 19.7901 4.01971 19.6051 3.57654 19.2944C3.2266 19.0491 2.99714 18.7637 2.84539 18.5485C2.71718 18.3668 2.58974 18.1534 2.4861 17.9798L1.98418 17.14C1.87447 16.9566 1.74067 16.7329 1.63737 16.5248C1.51575 16.2797 1.36719 15.9253 1.32235 15.4794C1.26588 14.9178 1.36897 14.3517 1.61976 13.8461C1.81892 13.4446 2.08289 13.1653 2.28308 12.9789C2.45312 12.8205 2.65717 12.6584 2.82449 12.5254L3.47844 12.0054V11.9947L2.82445 11.4746C2.65712 11.3417 2.45308 11.1795 2.28304 11.0212C2.08285 10.8347 1.81888 10.5554 1.61972 10.1539C1.36893 9.64832 1.26584 9.08224 1.3223 8.52069C1.36714 8.07476 1.51571 7.72032 1.63732 7.47528C1.74062 7.26715 1.87443 7.04347 1.98414 6.86005L2.48605 6.02026C2.58969 5.84669 2.71714 5.63326 2.84534 5.45151C2.9971 5.23637 3.22655 4.95096 3.5765 4.70565C4.01966 4.39498 4.53862 4.20999 5.07837 4.17027C5.50458 4.1389 5.86284 4.21481 6.11646 4.28544C6.33072 4.34511 6.56444 4.4298 6.75451 4.49867L7.69141 4.83775L7.69394 4.8363C7.72844 4.8166 7.7631 4.79712 7.79791 4.77788L7.80068 4.77635L7.94225 3.95571C7.97723 3.7525 8.02011 3.50334 8.07542 3.2843C8.14077 3.0255 8.25461 2.67075 8.49926 2.31147C8.80849 1.85736 9.23648 1.49689 9.73655 1.26937C10.1322 1.08936 10.5011 1.03749 10.7673 1.01709ZM14.0938 4.3363C14.011 3.85634 13.9696 3.61637 13.8476 3.43717C13.7445 3.2858 13.6019 3.16564 13.4352 3.0898C13.2378 3.00002 12.9943 3.00002 12.5073 3.00002H11.4927C11.0057 3.00002 10.7621 3.00002 10.5648 3.0898C10.3981 3.16564 10.2555 3.2858 10.1524 3.43717C10.0304 3.61637 9.98895 3.85634 9.90615 4.3363L9.75012 5.24064C9.69445 5.56333 9.66662 5.72467 9.60765 5.84869C9.54975 5.97047 9.50241 6.03703 9.40636 6.13166C9.30853 6.22804 9.12753 6.3281 8.76554 6.52822C8.73884 6.54298 8.71227 6.55791 8.68582 6.57302C8.33956 6.77078 8.16643 6.86966 8.03785 6.90314C7.91158 6.93602 7.83293 6.94279 7.70289 6.93196C7.57049 6.92094 7.42216 6.86726 7.12551 6.7599L6.11194 6.39308C5.66271 6.2305 5.43809 6.14921 5.22515 6.16488C5.04524 6.17811 4.87225 6.23978 4.72453 6.34333C4.5497 6.46589 4.42715 6.67094 4.18206 7.08103L3.72269 7.84965C3.46394 8.2826 3.33456 8.49907 3.31227 8.72078C3.29345 8.90796 3.32781 9.09665 3.41141 9.26519C3.51042 9.4648 3.7078 9.62177 4.10256 9.9357L4.82745 10.5122C5.07927 10.7124 5.20518 10.8126 5.28411 10.9199C5.36944 11.036 5.40583 11.1114 5.44354 11.2504C5.47844 11.379 5.47844 11.586 5.47844 12C5.47844 12.414 5.47844 12.621 5.44354 12.7497C5.40582 12.8887 5.36944 12.9641 5.28413 13.0801C5.20518 13.1875 5.07927 13.2876 4.82743 13.4879L4.10261 14.0643C3.70785 14.3783 3.51047 14.5352 3.41145 14.7349C3.32785 14.9034 3.29349 15.0921 3.31231 15.2793C3.33461 15.501 3.46398 15.7174 3.72273 16.1504L4.1821 16.919C4.4272 17.3291 4.54974 17.5342 4.72457 17.6567C4.8723 17.7603 5.04528 17.8219 5.2252 17.8352C5.43813 17.8508 5.66275 17.7695 6.11199 17.607L7.12553 17.2402C7.42216 17.1328 7.5705 17.0791 7.7029 17.0681C7.83294 17.0573 7.91159 17.064 8.03786 17.0969C8.16644 17.1304 8.33956 17.2293 8.68582 17.427C8.71228 17.4421 8.73885 17.4571 8.76554 17.4718C9.12753 17.6719 9.30853 17.772 9.40635 17.8684C9.50241 17.963 9.54975 18.0296 9.60765 18.1514C9.66662 18.2754 9.69445 18.4367 9.75012 18.7594L9.90615 19.6637C9.98895 20.1437 10.0304 20.3837 10.1524 20.5629C10.2555 20.7142 10.3981 20.8344 10.5648 20.9102C10.7621 21 11.0057 21 11.4927 21H12.5073C12.9943 21 13.2378 21 13.4352 20.9102C13.6019 20.8344 13.7445 20.7142 13.8476 20.5629C13.9696 20.3837 14.011 20.1437 14.0938 19.6637L14.2499 18.7594C14.3055 18.4367 14.3334 18.2754 14.3923 18.1514C14.4502 18.0296 14.4976 17.963 14.5936 17.8684C14.6915 17.772 14.8725 17.6719 15.2344 17.4718C15.2611 17.4571 15.2877 17.4421 15.3141 17.427C15.6604 17.2293 15.8335 17.1304 15.9621 17.0969C16.0884 17.064 16.167 17.0573 16.2971 17.0681C16.4295 17.0791 16.5778 17.1328 16.8744 17.2402L17.888 17.607C18.3372 17.7696 18.5619 17.8509 18.7748 17.8352C18.9547 17.8219 19.1277 17.7603 19.2754 17.6567C19.4502 17.5342 19.5728 17.3291 19.8179 16.919L20.2773 16.1504C20.536 15.7175 20.6654 15.501 20.6877 15.2793C20.7065 15.0921 20.6721 14.9034 20.5885 14.7349C20.4895 14.5353 20.2921 14.3783 19.8974 14.0643L19.1726 13.4879C18.9207 13.2876 18.7948 13.1875 18.7159 13.0801C18.6306 12.9641 18.5942 12.8887 18.5564 12.7497C18.5215 12.6211 18.5215 12.414 18.5215 12C18.5215 11.586 18.5215 11.379 18.5564 11.2504C18.5942 11.1114 18.6306 11.036 18.7159 10.9199C18.7948 10.8126 18.9207 10.7124 19.1725 10.5122L19.8974 9.9357C20.2922 9.62176 20.4896 9.46479 20.5886 9.26517C20.6722 9.09664 20.7065 8.90795 20.6877 8.72076C20.6654 8.49906 20.5361 8.28259 20.2773 7.84964L19.8179 7.08102C19.5728 6.67093 19.4503 6.46588 19.2755 6.34332C19.1277 6.23977 18.9548 6.1781 18.7748 6.16486C18.5619 6.14919 18.3373 6.23048 17.888 6.39307L16.8745 6.75989C16.5778 6.86725 16.4295 6.92093 16.2971 6.93195C16.167 6.94278 16.0884 6.93601 15.9621 6.90313C15.8335 6.86965 15.6604 6.77077 15.3142 6.57302C15.2877 6.55791 15.2611 6.54298 15.2345 6.52822C14.8725 6.3281 14.6915 6.22804 14.5936 6.13166C14.4976 6.03703 14.4502 5.97047 14.3923 5.84869C14.3334 5.72467 14.3055 5.56332 14.2499 5.24064L14.0938 4.3363Z" fill="currentColor"/>
  </symbol>

  <symbol id="equalizer" viewBox="0 0 24 24">
    <path d="M13.1707057,7 C13.5825421,5.83480763 14.6937812,5 16,5 C17.3062188,5 18.4174579,5.83480763 18.8292943,7 L21,7 C21.5522847,7 22,7.44771525 22,8 C22,8.55228475 21.5522847,9 21,9 L18.8292943,9 C18.4174579,10.1651924 17.3062188,11 16,11 C14.6937812,11 13.5825421,10.1651924 13.1707057,9 L3,9 C2.44771525,9 2,8.55228475 2,8 C2,7.44771525 2.44771525,7 3,7 L13.1707057,7 Z M5.17070571,15 C5.58254212,13.8348076 6.69378117,13 8,13 C9.30621883,13 10.4174579,13.8348076 10.8292943,15 L21,15 C21.5522847,15 22,15.4477153 22,16 C22,16.5522847 21.5522847,17 21,17 L10.8292943,17 C10.4174579,18.1651924 9.30621883,19 8,19 C6.69378117,19 5.58254212,18.1651924 5.17070571,17 L3,17 C2.44771525,17 2,16.5522847 2,16 C2,15.4477153 2.44771525,15 3,15 L5.17070571,15 Z M16,9 C16.5522847,9 17,8.55228475 17,8 C17,7.44771525 16.5522847,7 16,7 C15.4477153,7 15,7.44771525 15,8 C15,8.55228475 15.4477153,9 16,9 Z M8,17 C8.55228475,17 9,16.5522847 9,16 C9,15.4477153 8.55228475,15 8,15 C7.44771525,15 7,15.4477153 7,16 C7,16.5522847 7.44771525,17 8,17 Z" />
  </symbol>

  <symbol id="trash" viewBox="0 0 17 23">
    <path d="M7.336,3.815 C7.407,4.085 7.250,4.363 6.987,4.437 C6.722,4.510 6.450,4.350 6.378,4.081 L5.705,2.487 C5.503,1.729 6.330,0.936 7.081,0.936 L9.896,0.934 C10.656,0.934 11.288,1.581 11.288,2.354 C11.288,2.406 11.281,2.456 11.266,2.503 L10.599,4.081 C10.527,4.350 10.254,4.510 9.990,4.437 C9.725,4.363 9.569,4.085 9.641,3.815 L10.292,2.300 C10.267,2.110 10.111,1.962 9.923,1.946 L7.081,1.945 C6.881,1.945 6.710,2.101 6.684,2.300 L7.336,3.815 L7.336,3.815 ZM12.224,21.897 C12.862,21.897 13.157,21.191 13.314,20.662 L14.739,7.876 L13.057,7.876 L12.405,18.063 C12.116,19.061 11.495,20.032 10.365,20.032 C9.114,20.032 7.863,20.032 6.611,20.032 C5.481,20.032 4.860,19.061 4.571,18.063 L3.918,7.876 L2.237,7.876 L3.661,20.662 C3.819,21.191 4.115,21.897 4.752,21.897 C7.242,21.897 9.733,21.897 12.224,21.897 L12.224,21.897 ZM15.715,7.876 L14.260,20.955 C13.963,21.955 13.365,22.909 12.224,22.909 C9.733,22.909 7.242,22.909 4.752,22.909 C3.611,22.909 3.013,21.955 2.716,20.955 L1.261,7.876 L0.633,7.876 C-0.019,7.876 -0.019,6.864 0.633,6.864 L2.560,6.864 C2.594,5.741 3.507,4.831 4.617,4.831 L12.359,4.831 C13.469,4.831 14.382,5.739 14.417,6.864 L16.344,6.864 C16.996,6.864 16.996,7.876 16.344,7.876 L15.715,7.876 L15.715,7.876 ZM3.553,6.864 L13.424,6.864 C13.388,6.295 12.920,5.844 12.359,5.844 L4.617,5.844 C4.055,5.844 3.588,6.293 3.553,6.864 L3.553,6.864 ZM12.078,7.876 C9.685,7.876 7.291,7.876 4.898,7.876 L5.525,17.799 C5.686,18.308 5.982,19.020 6.611,19.020 C7.863,19.020 9.114,19.020 10.365,19.020 C10.995,19.020 11.290,18.308 11.451,17.799 L12.078,7.876 L12.078,7.876 Z"/>
  </symbol>

  <symbol id="favorites" viewBox="0 0 20 19">
    <path fill="currentColor" d="M9.719,18.905 C9.277,18.588 2.921,14.006 1.166,10.529 C0.074,8.367 -0.452,5.612 0.466,3.274 C1.199,1.408 2.678,0.314 4.517,0.067 C6.602,-0.211 8.656,0.384 10.000,2.196 C11.344,0.384 13.399,-0.211 15.483,0.067 C17.308,0.312 18.796,1.395 19.534,3.274 C20.453,5.611 19.926,8.367 18.834,10.529 C17.664,12.670 15.664,14.531 13.872,16.071 C11.965,17.707 10.294,18.897 10.257,18.923 C10.178,18.978 10.089,19.005 10.001,19.005 L10.001,19.007 C9.899,19.007 9.801,18.972 9.719,18.905 L9.719,18.905 ZM1.981,10.054 C3.489,13.041 8.776,17.015 10.001,17.910 C10.539,17.517 11.861,16.529 13.295,15.296 C15.127,13.723 17.159,11.742 18.008,10.077 C18.933,8.093 19.528,5.808 18.683,3.659 C18.078,2.118 16.867,1.256 15.371,1.055 C13.546,0.812 11.313,1.409 10.418,3.298 C10.255,3.667 9.757,3.679 9.585,3.304 C8.731,1.416 6.426,0.815 4.630,1.055 C3.125,1.257 1.919,2.129 1.318,3.659 C0.514,5.703 1.029,8.171 1.981,10.054 L1.981,10.054 Z"/>
  </symbol>

  <symbol id="login" viewBox="0 0 24 24">
    <path d="M20 12C20 7.58172 16.4183 4 12 4M12 20C14.5264 20 16.7792 18.8289 18.2454 17" stroke="currentColor" stroke-width="1.5" stroke-linecap="round"/>
    <path d="M4 12H14M14 12L11 9M14 12L11 15" stroke="currentColor" stroke-width="1.5" stroke-linecap="round" stroke-linejoin="round"/>
  </symbol>

  <symbol id="login" viewBox="0 0 24 24">
    <path d="M20 12C20 7.58172 16.4183 4 12 4M12 20C14.5264 20 16.7792 18.8289 18.2454 17" stroke="currentColor" stroke-width="1.5" stroke-linecap="round"/>
    <path d="M4 12H14M14 12L11 9M14 12L11 15" stroke="currentColor" stroke-width="1.5" stroke-linecap="round" stroke-linejoin="round"/>
  </symbol>

  <symbol id="comparison" viewBox="0 0 48 36">
    <path fill-rule="evenodd" fill="currentColor" d="M47.500,26.008 L20.491,26.008 C20.215,26.008 19.991,25.784 19.991,25.508 L19.991,24.508 C19.991,24.232 20.215,24.008 20.491,24.008 L47.500,24.008 C47.776,24.008 48.000,24.232 48.000,24.508 L48.000,25.508 C48.000,25.784 47.776,26.008 47.500,26.008 ZM47.500,4.001 L20.491,4.001 C20.215,4.001 19.991,3.777 19.991,3.501 L19.991,2.501 C19.991,2.224 20.215,2.001 20.491,2.001 L47.500,2.001 C47.776,2.001 48.000,2.224 48.000,2.501 L48.000,3.501 C48.000,3.777 47.776,4.001 47.500,4.001 ZM11.989,36.011 L1.985,36.011 C0.880,36.011 -0.015,35.116 -0.015,34.011 L-0.015,24.007 C-0.015,22.902 0.880,22.007 1.985,22.007 L11.989,22.007 C13.094,22.007 13.989,22.902 13.989,24.007 L13.989,34.011 C13.989,35.116 13.094,36.011 11.989,36.011 ZM11.989,26.008 C11.989,24.903 11.093,24.008 9.989,24.008 L3.985,24.008 C2.881,24.008 1.985,24.903 1.985,26.008 L1.985,32.011 C1.985,33.115 2.881,34.011 3.985,34.011 L9.989,34.011 C11.093,34.011 11.989,33.115 11.989,32.011 L11.989,26.008 ZM11.989,14.004 L1.985,14.004 C0.880,14.004 -0.015,13.109 -0.015,12.004 L-0.015,1.1000 C-0.015,0.895 0.880,-0.000 1.985,-0.000 L11.989,-0.000 C13.094,-0.000 13.989,0.895 13.989,1.1000 L13.989,12.004 C13.989,13.109 13.094,14.004 11.989,14.004 ZM11.989,4.001 C11.989,2.896 11.093,2.001 9.989,2.001 L3.985,2.001 C2.881,2.001 1.985,2.896 1.985,4.001 L1.985,10.004 C1.985,11.108 2.881,12.004 3.985,12.004 L9.989,12.004 C11.093,12.004 11.989,11.108 11.989,10.004 L11.989,4.001 ZM20.491,10.003 L35.496,10.003 C35.772,10.003 35.996,10.227 35.996,10.503 L35.996,11.504 C35.996,11.780 35.772,12.004 35.496,12.004 L20.491,12.004 C20.215,12.004 19.991,11.780 19.991,11.504 L19.991,10.503 C19.991,10.227 20.215,10.003 20.491,10.003 ZM20.491,32.010 L35.496,32.010 C35.772,32.010 35.996,32.234 35.996,32.510 L35.996,33.511 C35.996,33.787 35.772,34.011 35.496,34.011 L20.491,34.011 C20.215,34.011 19.991,33.787 19.991,33.511 L19.991,32.510 C19.991,32.234 20.215,32.010 20.491,32.010 Z"/>
  </symbol>

  <symbol id="catalog" viewBox="0 0 18 18">
    <path fill-rule="evenodd" fill="currentColor" d="M16.400,17.989 C15.521,17.989 14.808,17.276 14.808,16.397 C14.808,15.518 15.521,14.804 16.400,14.804 C17.279,14.804 17.992,15.518 17.992,16.397 C17.992,17.276 17.279,17.989 16.400,17.989 L16.400,17.989 ZM16.400,3.183 C15.520,3.183 14.807,2.469 14.807,1.590 C14.807,0.710 15.520,-0.002 16.400,-0.002 C17.279,-0.002 17.992,0.710 17.992,1.590 C17.992,2.469 17.279,3.183 16.400,3.183 L16.400,3.183 ZM8.997,3.183 C8.117,3.183 7.405,2.469 7.405,1.590 C7.405,0.710 8.117,-0.002 8.997,-0.002 C9.876,-0.002 10.589,0.710 10.589,1.590 C10.589,2.469 9.876,3.183 8.997,3.183 L8.997,3.183 ZM1.593,3.183 C0.713,3.183 0.001,2.469 0.001,1.590 C0.001,0.710 0.713,-0.002 1.593,-0.002 C2.472,-0.002 3.185,0.710 3.185,1.590 C3.185,2.469 2.472,3.183 1.593,3.183 L1.593,3.183 ZM16.400,10.595 C15.520,10.595 14.807,9.881 14.807,9.002 C14.807,8.123 15.520,7.410 16.400,7.410 C17.279,7.410 17.992,8.123 17.992,9.002 C17.992,9.881 17.279,10.595 16.400,10.595 L16.400,10.595 ZM8.997,10.595 C8.117,10.595 7.405,9.881 7.405,9.002 C7.405,8.123 8.117,7.410 8.997,7.410 C9.876,7.410 10.589,8.123 10.589,9.002 C10.589,9.881 9.876,10.595 8.997,10.595 L8.997,10.595 ZM1.593,10.595 C0.713,10.595 0.001,9.881 0.001,9.002 C0.001,8.123 0.713,7.410 1.593,7.410 C2.472,7.410 3.185,8.123 3.185,9.002 C3.185,9.881 2.472,10.595 1.593,10.595 L1.593,10.595 ZM8.997,17.989 C8.117,17.989 7.405,17.276 7.405,16.397 C7.405,15.518 8.117,14.804 8.997,14.804 C9.876,14.804 10.589,15.518 10.589,16.397 C10.589,17.276 9.876,17.989 8.997,17.989 L8.997,17.989 ZM1.593,17.989 C0.713,17.989 0.001,17.276 0.001,16.397 C0.001,15.518 0.713,14.804 1.593,14.804 C2.472,14.804 3.185,15.518 3.185,16.397 C3.185,17.276 2.472,17.989 1.593,17.989 L1.593,17.989 Z"/>
  </symbol>

  <symbol id="toolbar-cart" viewBox="0 0 48 41">
    <path fill-rule="evenodd" fill="currentColor" d="M22.692,40.292 C21.086,40.292 19.784,39.007 19.784,37.423 C19.784,35.837 21.086,34.553 22.692,34.553 C24.299,34.553 25.601,35.837 25.601,37.423 C25.601,39.007 24.299,40.292 22.692,40.292 L22.692,40.292 ZM26.512,20.883 C26.661,21.421 26.337,21.978 25.791,22.125 C25.245,22.271 24.680,21.953 24.532,21.413 L23.141,16.362 C23.117,16.274 23.105,16.183 23.105,16.096 C23.105,14.532 24.401,13.262 25.984,13.260 L31.808,13.256 C33.379,13.256 34.687,14.550 34.687,16.096 C34.687,16.200 34.671,16.300 34.642,16.394 L33.261,21.413 C33.112,21.953 32.547,22.271 32.001,22.125 C31.455,21.978 31.131,21.421 31.281,20.883 L32.626,15.989 C32.575,15.609 32.253,15.312 31.865,15.281 L25.984,15.277 C25.573,15.277 25.220,15.590 25.165,15.989 L26.512,20.883 L26.512,20.883 ZM1.120,2.015 C-0.230,2.015 -0.230,-0.009 1.120,-0.009 L5.892,-0.009 C8.251,-0.009 9.483,1.901 10.102,3.900 L17.218,26.989 C17.542,28.045 18.156,29.459 19.473,29.459 L38.320,29.459 C39.638,29.459 40.250,28.047 40.574,26.989 L45.735,10.203 C46.123,8.935 48.080,9.518 47.691,10.788 L42.530,27.575 C41.916,29.577 40.678,31.484 38.320,31.484 L19.473,31.484 C17.115,31.484 15.877,29.577 15.262,27.575 L8.146,4.486 C7.819,3.432 7.208,2.015 5.892,2.015 L1.120,2.015 L1.120,2.015 ZM34.475,23.707 C35.777,23.707 36.388,22.282 36.720,21.265 L39.104,12.597 C39.038,11.451 38.066,10.541 36.901,10.541 L20.891,10.541 C19.723,10.541 18.755,11.449 18.688,12.597 L21.075,21.265 C21.339,22.281 22.085,23.707 23.317,23.707 L34.475,23.707 L34.475,23.707 ZM34.475,25.732 L23.317,25.732 C21.047,25.732 19.636,23.777 19.095,21.795 L16.677,13.014 C16.648,12.921 16.632,12.821 16.632,12.719 C16.632,10.410 18.549,8.516 20.891,8.516 L36.901,8.516 C39.236,8.516 41.147,10.391 41.160,12.696 C41.160,12.799 41.151,12.885 41.124,12.983 L38.693,21.792 C38.096,23.788 36.812,25.732 34.475,25.732 L34.475,25.732 ZM35.100,40.292 C33.493,40.292 32.191,39.007 32.191,37.423 C32.191,35.837 33.493,34.553 35.100,34.553 C36.706,34.553 38.009,35.837 38.009,37.423 C38.009,39.007 36.706,40.292 35.100,40.292 L35.100,40.292 Z"/>
  </symbol>

  <symbol id="toolbar-profile" viewBox="0 0 48 57">
    <path fill-rule="evenodd" fill="currentColor" d="M18.143,38.687 C18.161,38.704 18.513,38.875 18.564,38.902 C23.134,41.176 25.015,41.026 29.514,38.689 L29.514,38.687 C32.336,37.212 34.697,35.221 35.691,33.445 C35.824,33.208 35.951,32.961 36.072,32.703 C35.969,32.761 35.863,32.815 35.754,32.866 L28.577,36.362 C28.022,36.629 24.242,37.929 23.829,37.929 C21.839,37.929 20.225,36.393 20.225,34.496 C20.225,32.598 21.839,31.060 23.829,31.060 C25.277,31.060 24.385,31.349 25.782,30.684 C27.869,29.692 29.955,28.889 31.786,27.503 C32.187,27.174 32.502,26.838 32.744,26.452 L27.491,25.632 C27.241,26.293 25.410,30.011 24.700,30.011 L22.958,30.011 C22.250,30.011 20.417,26.293 20.168,25.632 C17.099,25.723 12.664,26.054 9.921,27.319 C10.453,29.372 10.969,31.661 11.969,33.445 C12.963,35.221 15.324,37.212 18.143,38.687 L18.143,38.687 ZM39.843,17.473 C40.173,17.490 40.545,17.533 40.924,17.617 C40.968,17.625 41.828,17.898 41.997,17.986 C42.981,18.469 43.820,19.387 43.906,21.086 C43.986,22.646 43.311,24.237 42.384,25.627 C41.323,27.222 39.899,28.578 38.929,29.309 C38.669,29.966 38.340,30.576 37.923,31.119 C37.544,32.244 37.117,33.208 36.685,33.981 C35.628,35.869 33.222,37.950 30.350,39.510 C30.277,40.525 29.853,42.528 29.266,44.495 C37.777,44.382 48.940,45.806 47.525,55.593 L47.524,55.593 C47.559,56.226 44.336,56.447 40.310,56.522 C39.670,54.093 38.043,54.072 33.909,50.148 C33.423,49.688 30.444,47.105 27.871,45.159 C27.890,45.097 27.902,45.032 27.918,44.969 C27.935,44.907 27.955,44.843 27.990,44.788 C28.532,43.080 28.963,41.280 29.139,40.122 C28.454,40.445 27.752,40.733 27.038,40.983 C24.117,41.799 23.543,41.799 20.620,40.983 C19.908,40.733 19.204,40.445 18.521,40.122 C18.774,41.781 19.261,43.523 19.775,45.121 C19.562,45.270 19.341,45.430 19.112,45.599 C17.656,46.673 15.862,48.146 13.753,50.148 C9.619,54.070 7.991,54.093 7.352,56.522 C3.323,56.447 0.101,56.226 0.134,55.593 L0.134,55.593 C-1.280,45.806 9.881,44.382 18.392,44.495 C17.807,42.528 17.382,40.525 17.310,39.510 C14.438,37.950 12.031,35.869 10.975,33.981 C10.368,32.900 9.780,31.449 9.304,29.700 C8.414,29.173 6.573,27.576 5.274,25.627 C4.349,24.237 3.674,22.646 3.752,21.086 C3.926,17.684 7.111,17.424 8.449,17.465 C8.631,15.710 8.946,13.876 9.418,11.980 C11.685,2.896 25.697,0.782 33.433,5.636 L33.429,4.892 C33.400,-0.323 39.843,-0.347 39.843,4.891 L39.843,17.473 L39.843,17.473 ZM39.142,56.539 C36.726,56.570 34.116,56.559 31.796,56.559 C29.442,56.559 27.085,56.522 24.731,56.524 L24.731,47.913 C24.731,47.913 26.402,47.933 27.484,46.415 C29.957,48.301 32.719,50.699 33.181,51.137 C36.943,54.707 38.500,54.295 39.142,56.539 L39.142,56.539 ZM20.170,46.357 C21.550,48.169 22.929,47.923 22.929,47.923 L22.929,56.522 C20.576,56.518 18.218,56.559 15.864,56.559 C13.544,56.559 10.936,56.570 8.520,56.539 C9.161,54.295 10.719,54.707 14.481,51.137 C16.561,49.162 18.316,47.721 19.728,46.678 L20.170,46.357 L20.170,46.357 ZM33.441,7.041 C26.486,2.106 12.615,3.839 10.519,12.240 C10.179,13.606 9.923,14.940 9.741,16.233 C14.041,12.777 26.102,12.093 33.482,14.177 L33.441,7.041 L33.441,7.041 ZM33.490,15.316 C30.389,14.417 26.220,14.037 22.217,14.175 C16.766,14.364 13.051,15.680 9.893,17.626 C9.688,17.753 8.338,18.821 8.240,19.022 C8.031,21.444 8.058,24.004 9.335,26.307 C11.495,25.367 15.645,24.652 20.176,24.519 C20.622,23.453 22.004,20.847 22.563,19.973 C22.866,18.821 24.793,18.821 25.097,19.973 C25.656,20.847 27.038,23.453 27.482,24.519 L33.218,25.352 C33.466,24.451 33.535,23.263 33.525,21.534 L33.490,15.316 L33.490,15.316 ZM26.063,31.800 C26.898,32.428 27.433,33.402 27.433,34.496 C27.433,34.909 27.356,35.307 27.214,35.677 C27.487,35.610 27.777,35.508 28.080,35.361 L33.850,32.576 L35.264,31.863 C39.383,29.938 38.708,22.979 38.708,19.178 L38.708,4.891 C38.708,1.127 34.541,1.158 34.560,4.888 L34.656,21.529 C34.681,25.747 34.290,27.093 32.334,28.531 L32.226,28.605 C30.361,29.893 28.335,30.711 26.277,31.690 C26.202,31.724 26.132,31.762 26.063,31.800 L26.063,31.800 ZM23.719,28.846 C23.719,28.855 23.790,28.851 23.823,28.851 C24.324,28.851 24.825,28.582 25.163,28.036 C25.785,27.027 26.316,26.228 26.492,25.745 C26.120,24.849 24.547,21.089 24.111,20.527 L23.806,20.337 L23.719,28.846 L23.719,28.846 Z"/>
  </symbol>

  <symbol id="exclamation-circle" viewBox="0 0 14 14">
	<path fill-rule="evenodd" fill="currentColor" d="m7 0c3.9 0 7 3.1 7 7 0 3.9-3.1 7-7 7-3.9 0-7-3.1-7-7 0-3.9 3.1-7 7-7zm-6 7c0 3.3 2.7 6 6 6 3.3 0 6-2.7 6-6 0-3.3-2.7-6-6-6-3.3 0-6 2.7-6 6zm5 2h2v2h-2zm0-6h2v5h-2z"/>
  </symbol>
</svg>

