<svg version="1.2" xmlns="http://www.w3.org/2000/svg" viewBox="0 0 36 36" width="36" height="36"><style>.a{fill:#f70}</style><path fill-rule="evenodd" class="a" d="m0 25.3c0-4.9 0-9.8 0-14.7 0.1-7.8 3.2-10.6 11.5-10.6h12.9c7.7 0 11.3 2.3 11.3 10.2v15.6c0 7.9-3.6 10.2-11.3 10.2h-12.9c-8 0-11.5-2.6-11.5-10.7zm23.6-6c-0.5-0.8-1.4-1-2.2-0.5-2.1 1.4-4.9 1.4-7.1 0-0.7-0.5-1.7-0.3-2.1 0.5-0.5 0.7-0.3 1.7 0.4 2.2q1.5 0.9 3.1 1.3l-2.9 3c-0.7 0.6-0.7 1.6 0 2.2 0.3 0.3 0.7 0.5 1.1 0.5 0.4 0 0.7-0.2 1.1-0.5l2.9-2.9 2.9 2.9c0.6 0.7 1.6 0.7 2.2 0 0.6-0.6 0.6-1.6 0-2.2l-3-3q1.6-0.4 3.1-1.3c0.7-0.5 0.9-1.5 0.5-2.2zm-0.4-6.4c0-3-2.4-5.4-5.3-5.4-3 0-5.3 2.4-5.3 5.4 0 3 2.3 5.4 5.3 5.4 2.9 0 5.3-2.4 5.3-5.4zm-3.1 0c0 1.3-1 2.3-2.2 2.3-1.2 0-2.2-1-2.2-2.3 0-1.2 1-2.2 2.2-2.2 1.2 0 2.2 1 2.2 2.2z"/></svg>