<svg version="1.2" xmlns="http://www.w3.org/2000/svg" viewBox="0 0 36 36" width="36" height="36"><style>.a{fill:#26a2e2}</style><path fill-rule="evenodd" class="a" d="m0.6 25.3c0-4.9 0-9.8 0-14.7 0.1-7.8 3.1-10.6 11.2-10.6h12.5c7.6 0 11.1 2.3 11.1 10.2v15.6c0 7.9-3.5 10.2-11.1 10.2h-12.5c-7.8 0-11.1-2.6-11.2-10.7zm23.4-15.8l-15.5 6.2c-0.6 0.2-1.4 0.5-1.8 0.9-0.6 0.6-0.1 1.5 0.3 1.7 0.5 0.1 4.3 1.5 4.3 1.5 0 0 0.6 1.5 1.5 4.2q0.1 0.2 0.1 0.3c0.6 2.3 1.3 2.4 1.9 2q0.3-0.3 0.6-0.5c0.8-0.8 2.1-2.1 2.1-2.1 0 0 1.3 1 3.4 2.8 2.1 1.7 2.8-1.4 2.8-1.6 1-4.7 2.1-9.5 3-14.3 0.2-1.2-0.4-1.9-1.5-1.5-0.1 0-0.5 0.2-1.2 0.4zm-9.3 12.5c0 0 0-0.1 0-0.1 0.1-0.1 0.2-0.1 0.3-0.1l1.6 1.3c0.1 0.1 0.1 0.2 0 0.3l-1.8 1.8c-0.2 0.1-0.4 0-0.4-0.2zm-2.4-2.1c0-0.1 0-0.2 0.1-0.3l7-4.8c0.3-0.2 0.6 0.2 0.3 0.4l-5.6 5.4-0.2 2.6c0 0.3-0.4 0.3-0.5 0.1z"/></svg>