<svg version="1.2" xmlns="http://www.w3.org/2000/svg" viewBox="0 0 36 36" width="36" height="36"><style>.a{fill:#07f}</style><path fill-rule="evenodd" class="a" d="m24.2 18.3c0.6 0.4 1.8 1 3.7 3.1 0.6 0.8 2.2 3.3 2.2 4.6h-4.1c-0.6-2.7-3.3-5.2-6.2-5.5v5.5c-9.2 0-13.4-6.6-13.4-15h4c0 3.1 1.6 10 5.6 10.3v-10.3h3.8v5.8c1.5 0 2.9-1.2 3.7-2.1 1.4-1.5 1.5-2.6 2-3.7h3.8c-0.1 0.2-0.2 0.9-0.3 1.1-0.7 2.7-2.6 4.8-4.8 6.2zm-23.9 7c0 8.1 3.4 10.7 11.5 10.7h12.8c7.8 0 11.4-2.3 11.4-10.2v-15.6c0-7.9-3.6-10.2-11.4-10.2h-12.8c-8.4 0-11.4 2.8-11.5 10.6-0.1 4.9 0 9.8 0 14.7z"/></svg>